<svg width="61" height="60" viewBox="0 0 61 60" fill="none" xmlns="http://www.w3.org/2000/svg">
<path fill-rule="evenodd" clip-rule="evenodd" d="M30.336 49.7521C19.4565 49.7521 10.5809 40.8821 10.5809 30.0025C10.5809 19.1231 19.4566 10.2474 30.336 10.2474C41.2156 10.2474 50.0856 19.123 50.0856 30.0025C50.0856 40.8822 41.2157 49.7521 30.336 49.7521ZM30.336 47.8697C40.1786 47.8697 48.2032 39.8451 48.2032 30.0025C48.2032 20.1598 40.1787 12.1297 30.336 12.1297C20.4932 12.1297 12.4632 20.1597 12.4632 30.0025C12.4632 39.8452 20.4933 47.8697 30.336 47.8697ZM27.863 30.3238L36.3406 21.7576L36.3424 21.756C37.7916 20.2992 40.1569 20.2921 41.6136 21.7412C43.0698 23.19 43.0786 25.547 41.6299 27.0107L41.6295 27.0111C37.9184 30.7558 34.2354 34.523 30.5076 38.2509C29.0514 39.707 26.687 39.707 25.2309 38.2509L19.0512 32.0656C17.5954 30.61 17.5938 28.2537 19.0494 26.7905L19.0512 26.7888C20.5073 25.3327 22.8718 25.3327 24.3279 26.7888L27.863 30.3238ZM27.2009 32.3238L22.997 28.1198C22.2757 27.3985 21.1047 27.3983 20.3831 28.119C19.6619 28.8448 19.6605 30.0128 20.3823 30.7345L26.5619 36.9198C27.2834 37.6414 28.455 37.6414 29.1766 36.9198C32.9023 33.1941 36.5832 29.4291 40.292 25.6865C41.0098 24.9612 41.0075 23.7935 40.2859 23.0757C39.5651 22.3585 38.3947 22.3624 37.6773 23.083L28.5353 32.3203C28.4481 32.4084 28.3443 32.4785 28.2299 32.5264C28.1155 32.5743 27.9928 32.5991 27.8688 32.5994C27.7448 32.5997 27.622 32.5756 27.5073 32.5283C27.3927 32.481 27.2886 32.4115 27.2009 32.3238ZM54.2299 33.9862C54.3149 33.4737 54.7999 33.1268 55.3124 33.2117C55.8249 33.2967 56.1719 33.7817 56.0869 34.2942C54.2677 45.2648 45.5983 53.9342 34.6277 55.7534C34.1152 55.8384 33.6302 55.4914 33.5452 54.9789C33.4603 54.4664 33.8072 53.9814 34.3197 53.8964C44.4984 52.2085 52.542 44.1649 54.2299 33.9862ZM26.3467 53.8964C26.8592 53.9814 27.2062 54.4664 27.1212 54.9789C27.0363 55.4914 26.5512 55.8384 26.0387 55.7534C15.0682 53.9342 6.39874 45.2648 4.57956 34.2942C4.4945 33.7817 4.84156 33.2967 5.35403 33.2117C5.8665 33.1268 6.35156 33.4737 6.4365 33.9862C8.12439 44.1649 16.168 52.2085 26.3467 53.8964ZM6.4365 26.0132C6.35156 26.5257 5.8665 26.8727 5.35403 26.7877C4.84156 26.7028 4.4945 26.2177 4.57956 25.7052C6.39874 14.7347 15.0682 6.06524 26.0387 4.24607C26.5512 4.16101 27.0363 4.50807 27.1212 5.02054C27.2062 5.53301 26.8592 6.01807 26.3467 6.10301C16.168 7.79089 8.12439 15.8345 6.4365 26.0132ZM34.3197 6.10301C33.8072 6.01807 33.4603 5.53301 33.5452 5.02054C33.6302 4.50807 34.1152 4.16101 34.6277 4.24607C45.5983 6.06524 54.2677 14.7347 56.0869 25.7052C56.1719 26.2177 55.8249 26.7028 55.3124 26.7877C54.7999 26.8727 54.3149 26.5257 54.2299 26.0132C52.542 15.8345 44.4984 7.79089 34.3197 6.10301ZM31.2744 7.90536C31.2744 8.42477 30.8526 8.84654 30.3332 8.84654C29.8138 8.84654 29.392 8.42477 29.392 7.90536V1.76442C29.392 1.24501 29.8138 0.823242 30.3332 0.823242C30.8526 0.823242 31.2744 1.24501 31.2744 1.76442V7.90536ZM52.4276 30.9409C51.9082 30.9409 51.4864 30.5191 51.4864 29.9997C51.4864 29.4803 51.9082 29.0585 52.4276 29.0585H58.5685C59.0879 29.0585 59.5097 29.4803 59.5097 29.9997C59.5097 30.5191 59.0879 30.9409 58.5685 30.9409H52.4276ZM29.392 52.0941C29.392 51.5747 29.8138 51.1529 30.3332 51.1529C30.8526 51.1529 31.2744 51.5747 31.2744 52.0941V58.235C31.2744 58.7544 30.8526 59.1762 30.3332 59.1762C29.8138 59.1762 29.392 58.7544 29.392 58.235V52.0941ZM8.23886 29.0585C8.75827 29.0585 9.18003 29.4803 9.18003 29.9997C9.18003 30.5191 8.75827 30.9409 8.23886 30.9409H2.09791C1.5785 30.9409 1.15674 30.5191 1.15674 29.9997C1.15674 29.4803 1.5785 29.0585 2.09791 29.0585H8.23886Z" fill="url(#paint0_linear_2823_5842)"/>
<defs>
<linearGradient id="paint0_linear_2823_5842" x1="30.3332" y1="0.823242" x2="30.3332" y2="59.1762" gradientUnits="userSpaceOnUse">
<stop stop-color="#0081EA"/>
<stop offset="1" stop-color="#0071CD"/>
</linearGradient>
</defs>
</svg>
