<svg width="60" height="60" viewBox="0 0 60 60" fill="none" xmlns="http://www.w3.org/2000/svg">
<path d="M50.625 17.8125C52.1757 17.8125 53.4375 16.5506 53.4375 15V3.75C53.4375 2.19937 52.1757 0.9375 50.625 0.9375H37.5C35.9494 0.9375 34.6875 2.19937 34.6875 3.75V5.625C32.6194 5.625 30.9375 7.30687 30.9375 9.375C30.9375 11.4431 32.6194 13.125 34.6875 13.125V17.8125H42.1875V15.9375C42.1875 14.9034 43.0285 14.0625 44.0625 14.0625C45.0966 14.0625 45.9375 14.9034 45.9375 15.9375V17.8125H50.625ZM44.0625 12.1875C41.9944 12.1875 40.3125 13.8694 40.3125 15.9375H36.5625V11.25H34.6875C33.6535 11.25 32.8125 10.4091 32.8125 9.375C32.8125 8.34094 33.6535 7.5 34.6875 7.5H36.5625V3.75C36.5625 3.23344 36.9825 2.8125 37.5 2.8125H50.625C51.1425 2.8125 51.5625 3.23344 51.5625 3.75V15C51.5625 15.5166 51.1425 15.9375 50.625 15.9375H47.8125C47.8125 13.8694 46.1307 12.1875 44.0625 12.1875ZM25.3125 15H27.1875V6.5625H24.6741C14.6878 6.5625 6.56253 14.6878 6.56253 24.6741C6.5579 27.3575 7.15182 30.0082 8.30102 32.4331C9.45022 34.858 11.1258 36.996 13.2057 38.6916L16.875 41.6944V44.2359C16.3282 44.4287 15.8545 44.7859 15.5188 45.2585C15.1831 45.7312 15.0019 46.2962 15 46.8759C15 48.1725 15.886 49.2562 17.0813 49.5797C16.951 49.9031 16.875 50.2547 16.875 50.625C16.875 51.8644 17.686 52.9069 18.8007 53.2809C19.1888 56.5322 21.9591 59.0625 25.3125 59.0625C28.666 59.0625 31.4363 56.5322 31.8244 53.2809C32.3833 53.096 32.8699 52.74 33.2154 52.2634C33.561 51.7868 33.748 51.2137 33.75 50.625C33.75 50.2547 33.6741 49.9031 33.5438 49.5788C34.1395 49.4192 34.666 49.0679 35.0422 48.5793C35.4184 48.0906 35.6232 47.4917 35.625 46.875C35.6232 46.2952 35.442 45.7303 35.1063 45.2576C34.7705 44.7849 34.2968 44.4277 33.75 44.235V41.6934L37.4194 38.6906C39.4994 36.9954 41.175 34.8575 42.3242 32.4327C43.4734 30.008 44.0673 27.3574 44.0625 24.6741V23.4375H38.4375C38.4375 21.3694 36.7557 19.6875 34.6875 19.6875C32.6194 19.6875 30.9375 21.3694 30.9375 23.4375H27.1875V18.75H25.3125C24.2785 18.75 23.4375 17.9091 23.4375 16.875C23.4375 15.8409 24.2785 15 25.3125 15ZM14.3925 37.2403C12.6113 35.7886 11.16 33.9739 10.1354 31.9171C9.11082 29.8603 8.53647 27.6088 8.45065 25.3125H15.9375V23.4375C15.9375 22.4034 16.7785 21.5625 17.8125 21.5625C18.8466 21.5625 19.6875 22.4034 19.6875 23.4375V25.3125H25.3125V29.0625C23.2444 29.0625 21.5625 30.7444 21.5625 32.8125C21.5625 34.8806 23.2444 36.5625 25.3125 36.5625V44.0625H18.75V40.8056L14.3925 37.2403ZM25.3125 57.1875C24.2325 57.1857 23.1862 56.8119 22.3496 56.1288C21.513 55.4458 20.9374 54.4953 20.7197 53.4375H29.9053C29.6876 54.4953 29.112 55.4458 28.2755 56.1288C27.4389 56.8119 26.3925 57.1857 25.3125 57.1875ZM30.9375 51.5625H19.6875C19.4461 51.5517 19.2182 51.4482 19.0512 51.2736C18.8842 51.0989 18.791 50.8666 18.791 50.625C18.791 50.3834 18.8842 50.1511 19.0512 49.9764C19.2182 49.8018 19.4461 49.6983 19.6875 49.6875H30.9375C31.1789 49.6983 31.4068 49.8018 31.5738 49.9764C31.7408 50.1511 31.834 50.3834 31.834 50.625C31.834 50.8666 31.7408 51.0989 31.5738 51.2736C31.4068 51.4482 31.1789 51.5517 30.9375 51.5625ZM32.8125 47.8125H17.8125C17.5711 47.8017 17.3432 47.6982 17.1762 47.5236C17.0092 47.3489 16.916 47.1166 16.916 46.875C16.916 46.6334 17.0092 46.4011 17.1762 46.2264C17.3432 46.0518 17.5711 45.9483 17.8125 45.9375H32.8125C33.0539 45.9483 33.2818 46.0518 33.4488 46.2264C33.6158 46.4011 33.709 46.6334 33.709 46.875C33.709 47.1166 33.6158 47.3489 33.4488 47.5236C33.2818 47.6982 33.0539 47.8017 32.8125 47.8125ZM32.8125 25.3125V23.4375C32.8125 22.4034 33.6535 21.5625 34.6875 21.5625C35.7216 21.5625 36.5625 22.4034 36.5625 23.4375V25.3125H42.1744C42.0883 27.6087 41.5139 29.8602 40.4893 31.917C39.4647 33.9737 38.0136 35.7885 36.2325 37.2403L31.875 40.8056V44.0625H27.1875V34.6875H25.3125C24.2785 34.6875 23.4375 33.8466 23.4375 32.8125C23.4375 31.7784 24.2785 30.9375 25.3125 30.9375H27.1875V25.3125H32.8125ZM25.3125 20.625V23.4375H21.5625C21.5625 21.3694 19.8807 19.6875 17.8125 19.6875C15.7444 19.6875 14.0625 21.3694 14.0625 23.4375H8.4844C9.11815 15.06 16.1372 8.4375 24.675 8.4375H25.3125V13.125C23.2444 13.125 21.5625 14.8069 21.5625 16.875C21.5625 18.9431 23.2444 20.625 25.3125 20.625Z" fill="url(#paint0_linear_2823_5837)"/>
<defs>
<linearGradient id="paint0_linear_2823_5837" x1="30" y1="0.9375" x2="30" y2="59.0625" gradientUnits="userSpaceOnUse">
<stop stop-color="#0081EA"/>
<stop offset="1" stop-color="#0071CD"/>
</linearGradient>
</defs>
</svg>
