<svg width="61" height="60" viewBox="0 0 61 60" fill="none" xmlns="http://www.w3.org/2000/svg">
<path fill-rule="evenodd" clip-rule="evenodd" d="M7.64035 32.8461H4.31611C2.75411 32.8461 1.49011 31.5792 1.49011 30.0259C1.49011 28.4645 2.75482 27.1998 4.31611 27.1998H7.62976C8.89341 16.6344 17.2662 8.24971 27.826 6.96783V3.64924C27.826 2.08724 29.0841 0.823242 30.6462 0.823242C32.2083 0.823242 33.4665 2.08724 33.4665 3.64924V6.96783C44.0127 8.24807 52.3775 16.6129 53.6578 27.1591H57.0228C58.5858 27.1591 59.8431 28.4164 59.8431 29.9794C59.8431 31.5423 58.5858 32.7996 57.0228 32.7996H53.6578C52.3794 43.3303 44.0373 51.6861 33.5129 52.9851V56.3559C33.5129 57.9189 32.2469 59.1762 30.6928 59.1762C29.1307 59.1762 27.8667 57.9181 27.8667 56.3559V52.9958C17.3168 51.7341 8.94117 43.3839 7.64035 32.8461ZM9.52682 27.1998H15.6702C16.8075 21.029 21.6609 16.1645 27.826 15.0109V8.86524C18.3063 10.1248 10.7683 17.6747 9.52682 27.1998ZM17.4855 27.7442C18.1876 28.2582 18.6434 29.0887 18.6434 30.0259C18.6434 30.9527 18.1935 31.7775 17.4988 32.2921C18.4679 37.8483 22.8703 42.2208 28.4419 43.1452C28.958 42.4667 29.774 42.0287 30.6928 42.0287C31.6011 42.0287 32.4115 42.4609 32.9279 43.1322C38.4861 42.1763 42.8658 37.7858 43.8056 32.2222C43.1306 31.7076 42.6955 30.8958 42.6955 29.9794C42.6955 29.0629 43.1306 28.2511 43.8056 27.7365C42.8654 22.1702 38.4819 17.7782 32.9199 16.8252C32.4073 17.5237 31.5812 17.9765 30.6462 17.9765C29.7112 17.9765 28.8852 17.5237 28.3726 16.8252C22.808 17.7787 18.4231 22.1742 17.4855 27.7442ZM15.6865 32.8461H9.53835C10.8162 42.3437 18.3571 49.8592 27.8667 51.0988V44.9554C21.7114 43.821 16.8559 38.989 15.6865 32.8461ZM33.4665 8.86524V15.0109C39.6179 16.1619 44.4636 21.0077 45.6147 27.1591H51.7603C50.5026 17.6531 42.9725 10.123 33.4665 8.86524ZM51.7603 32.7996H45.6147C44.4665 38.9355 39.6423 43.7723 33.5129 44.939V51.0872C42.9971 49.8111 50.5047 42.2901 51.7603 32.7996ZM31.5841 15.1505V3.64924C31.5841 3.12877 31.1668 2.7056 30.6462 2.7056C30.1256 2.7056 29.7083 3.12877 29.7083 3.64924V15.1505C29.7083 15.6711 30.1256 16.0942 30.6462 16.0942C31.1668 16.0942 31.5841 15.6711 31.5841 15.1505ZM27.1133 21.3158C27.1132 21.1922 27.1375 21.0698 27.1848 20.9556C27.2321 20.8414 27.3014 20.7376 27.3888 20.6502C27.4762 20.5628 27.58 20.4934 27.6942 20.4462C27.8084 20.3989 27.9309 20.3746 28.0545 20.3747C28.2214 20.3747 28.3831 20.4187 28.5251 20.5008L37.1381 25.4735C37.2813 25.556 37.4002 25.6748 37.4828 25.8179C37.5655 25.961 37.609 26.1233 37.609 26.2886C37.609 26.4538 37.5655 26.6162 37.4828 26.7593C37.4002 26.9024 37.2813 27.0212 37.1381 27.1037L28.9956 31.8048V38.6836C28.9956 39.203 28.5739 39.6248 28.0545 39.6248C27.5351 39.6248 27.1133 39.203 27.1133 38.6836V21.3158ZM28.9956 22.9459V29.6312L34.7852 26.2887L28.9956 22.9459ZM29.7491 44.8548V56.3559C29.7491 56.8765 30.1722 57.2938 30.6928 57.2938C30.816 57.2939 30.938 57.2696 31.0518 57.2225C31.1656 57.1754 31.269 57.1063 31.3561 57.0192C31.4432 56.9321 31.5122 56.8287 31.5593 56.7149C31.6064 56.6011 31.6306 56.4791 31.6306 56.3559V44.8548C31.6306 44.3342 31.2105 43.911 30.6928 43.911C30.5689 43.911 30.4461 43.9354 30.3316 43.9828C30.2171 44.0302 30.1131 44.0997 30.0254 44.1874C29.9378 44.275 29.8682 44.3791 29.8208 44.4936C29.7734 44.6081 29.749 44.7308 29.7491 44.8548ZM45.5216 30.9172H57.0228C57.5426 30.9172 57.9607 30.4991 57.9607 29.9794C57.9607 29.4596 57.5426 29.0415 57.0228 29.0415H45.5216C45.0011 29.0415 44.5779 29.4588 44.5779 29.9794C44.5779 30.4999 45.0011 30.9172 45.5216 30.9172ZM15.8174 29.0822H4.31611C4.19218 29.0822 4.06945 29.1066 3.95495 29.154C3.84045 29.2014 3.73641 29.2709 3.64878 29.3586C3.56115 29.4462 3.49164 29.5503 3.44423 29.6648C3.39682 29.7793 3.37243 29.902 3.37247 30.0259C3.37247 30.5436 3.79564 30.9637 4.31611 30.9637H15.8174C16.338 30.9637 16.7611 30.5436 16.7611 30.0259C16.7611 29.902 16.7367 29.7793 16.6893 29.6648C16.6419 29.5503 16.5724 29.4462 16.4847 29.3586C16.3971 29.2709 16.2931 29.2014 16.1786 29.154C16.0641 29.1066 15.9413 29.0822 15.8174 29.0822Z" fill="url(#paint0_linear_2823_5832)"/>
<defs>
<linearGradient id="paint0_linear_2823_5832" x1="30.6666" y1="0.823242" x2="30.6666" y2="59.1762" gradientUnits="userSpaceOnUse">
<stop stop-color="#0081EA"/>
<stop offset="1" stop-color="#0071CD"/>
</linearGradient>
</defs>
</svg>
