<svg width="45" height="45" viewBox="0 0 45 45" fill="none" xmlns="http://www.w3.org/2000/svg">
<g clip-path="url(#clip0_2217_12124)">
<path d="M15.7283 4.24286L20.9306 4.14435V1.1513C20.9306 1.11219 21.2624 0.558776 21.3218 0.490686C21.9766 -0.265543 23.2877 -0.106185 23.8222 0.713788C23.8729 0.79057 24.0714 1.20925 24.0714 1.24981V4.1458L29.2738 4.24431V1.34833C29.2738 1.23533 29.4809 0.787673 29.5678 0.660186C30.3226 -0.439389 32.2118 -0.114877 32.4059 1.25851C32.487 1.83075 32.2987 4.41526 32.458 4.64126C36.4753 5.4931 39.5075 8.52381 40.3593 12.5426C40.5853 12.7019 43.1698 12.5136 43.7421 12.5947C44.9981 12.7729 45.4284 14.4433 44.4882 15.2864C44.3259 15.4313 43.8435 15.7268 43.6523 15.7268H40.7563C40.7273 16.3483 40.9185 16.8988 40.8432 17.5319C40.665 19.0313 38.8309 19.6673 37.966 18.3707C37.5054 17.6811 37.6951 16.2237 37.6155 15.3849C37.0084 9.08591 33.9024 7.5213 27.9525 7.28226C24.3003 7.13594 20.1034 7.18375 16.4642 7.38367C9.90153 7.7444 7.76758 9.76971 7.38511 16.3643C7.15912 20.2758 7.15912 24.7234 7.38511 28.6349C7.71832 34.3747 9.36841 37.036 15.3864 37.6126C16.1571 37.6865 17.7058 37.5459 18.3128 37.924C19.3848 38.5933 19.2573 40.2463 18.0824 40.7027C17.2987 41.0069 16.528 40.7693 15.7283 40.7534V43.6494C15.7283 43.8406 15.4327 44.323 15.2879 44.4853C14.4375 45.4327 12.7758 45.0068 12.5961 43.7392C12.515 43.1669 12.7033 40.5824 12.544 40.3564C8.52236 39.5292 5.46412 36.4811 4.6427 32.4551C4.4167 32.2958 1.83219 32.4841 1.25995 32.403C-0.113436 32.2074 -0.437948 30.3197 0.661627 29.565C0.787665 29.478 1.23532 29.2709 1.34977 29.2709H4.24575L4.14724 24.0685H1.2527C1.21214 24.0685 0.79346 23.8686 0.716678 23.8194C-0.103295 23.2848 -0.264103 21.9737 0.493576 21.3189C0.561665 21.2595 1.11652 20.9277 1.15419 20.9277H4.14724L4.24575 15.7254H1.34977C1.15854 15.7254 0.676114 15.4298 0.513858 15.285C-0.435051 14.4346 -0.00623121 12.7729 1.25995 12.5933C1.83219 12.5121 4.4167 12.7005 4.6427 12.5411C5.46267 8.52671 8.53539 5.47282 12.544 4.63981C12.7033 4.41381 12.515 1.8293 12.5961 1.25706C12.7888 -0.10039 14.6417 -0.435043 15.4342 0.658737C15.5037 0.754352 15.7283 1.17883 15.7283 1.24836V4.24141V4.24286Z" fill="white"/>
<path d="M44.4625 34.4518C44.8276 31.3241 44.1264 29.532 42.3198 28.9742C42.2011 28.938 41.7476 28.8786 41.4492 28.8395C40.5988 28.728 40.4452 28.7091 40.2902 28.4933C39.9729 28.0543 40.2656 27.5023 40.5249 27.0156C40.5799 26.9113 40.6567 26.7678 40.6727 26.7157C41.3289 24.6744 40.0265 23.4358 39.1921 22.878C37.3058 21.6191 35.3428 20.6803 33.7608 22.3116C33.7159 22.3594 33.6058 22.5405 33.5247 22.6738C33.1915 23.2243 32.6352 24.1442 31.879 23.7024C31.7399 23.6212 31.6906 23.5387 31.4183 23.0794C31.3125 22.9012 31.1358 22.6013 31.0807 22.5347C30.4215 21.7379 29.4205 21.3294 28.4064 21.4424C27.385 21.5568 24.7745 23.2185 24.2993 24.0573C23.5836 25.3191 23.8169 26.3694 24.534 27.9833L24.8324 28.6555L24.0979 28.6961C22.6984 28.7714 20.9136 29.2278 20.3602 30.972C19.7228 32.9828 20.0473 36.1744 22.3145 36.9393C22.4507 36.9856 22.7868 37.0262 23.0577 37.0595C23.8053 37.1508 24.2558 37.2073 24.4615 37.5434C24.6426 37.8418 24.5151 38.1374 24.208 38.853C24.1037 39.0964 23.9284 39.5035 23.911 39.6237C23.714 40.9855 24.1674 42.1097 25.2207 42.8761C27.9022 44.8275 29.7827 44.971 31.1358 43.3223C31.2039 43.2397 31.2676 43.1253 31.3342 43.005C31.5081 42.6936 31.7239 42.3068 32.1904 42.1373L32.273 42.1068H32.3614H32.3643C32.8206 42.1068 33.1176 42.5806 33.4928 43.1818C33.5986 43.3498 33.742 43.5802 33.8014 43.641C35.085 44.955 36.7452 44.3813 37.4 44.0742C40.3728 42.6762 41.3507 41.2173 40.6698 39.1935C40.6524 39.1413 40.5741 38.9907 40.5176 38.8791C40.2409 38.3387 39.9787 37.8288 40.2438 37.4347C40.4554 37.1218 40.8697 37.1131 41.4419 37.1001C41.5593 37.0972 41.7201 37.0943 41.7679 37.087C42.9776 36.8697 44.2916 35.8948 44.4596 34.4504L44.4625 34.4518ZM42.1793 34.4924C41.8679 35.0139 41.2333 35.0009 40.7697 34.9936C40.635 34.9908 40.4959 34.9879 40.409 35.0009C39.5673 35.1139 38.8299 35.6267 38.3866 36.4061C37.91 37.2435 37.8404 38.2547 38.204 39.1109C38.2388 39.1935 38.304 39.2876 38.3721 39.3876C38.5822 39.6947 38.9357 40.209 38.5459 40.8508C38.4808 40.9595 38.4243 41.0522 37.2841 41.6954C36.1353 42.343 36.0194 42.3386 35.889 42.3386C35.3848 42.3299 35.1197 41.8461 34.9082 41.4564C34.8648 41.3767 34.7981 41.255 34.7706 41.2202C34.1274 40.4321 33.2451 39.9685 32.3483 39.9497C31.5095 39.9323 30.7098 40.3017 30.0927 40.9913C30.0376 41.0522 29.8783 41.3115 29.7725 41.4824C29.4263 42.0402 29.3089 42.2285 29.0713 42.3053C28.9772 42.3357 28.8888 42.3473 28.8077 42.3473C28.6251 42.3473 28.4774 42.2865 28.3774 42.2459L28.3325 42.2285C28.1137 42.1431 26.5115 41.2144 26.3144 41.0232C25.7306 40.4553 26.1391 39.6947 26.3825 39.2413C26.4622 39.0921 26.5462 38.9371 26.5767 38.8356C26.8302 37.9896 26.6839 37.0219 26.1884 36.2453C25.7422 35.5485 25.0787 35.1066 24.321 34.998C24.2326 34.985 24.0878 34.9879 23.9487 34.9893C23.4532 34.9951 22.7057 35.0067 22.4102 34.3635C22.2015 33.9086 22.2711 32.1918 22.2928 32.0049C22.4217 30.901 23.346 30.901 23.8444 30.9025C24.0066 30.9025 24.1616 30.9025 24.2949 30.8822C25.0859 30.7562 25.7567 30.3259 26.1841 29.6696C26.652 28.9511 26.7882 28.0355 26.5578 27.1604C26.5303 27.0576 26.4506 26.8837 26.3724 26.7142C26.1247 26.1797 25.8451 25.5741 26.1449 25.0801C26.2116 24.9685 26.2652 24.8816 27.4314 24.2196C28.6063 23.5531 28.7135 23.556 28.8497 23.5575C29.2742 23.5662 29.5233 23.9878 29.8406 24.5238C29.9044 24.631 29.9913 24.7773 30.0232 24.8164C30.5968 25.5234 31.4255 25.9435 32.2976 25.9696C33.1524 25.9913 33.9521 25.6509 34.5489 25.0004C34.6286 24.9135 34.7228 24.7469 34.8126 24.5846C35.0502 24.1602 35.4935 23.3692 36.2932 23.6632C36.3091 23.669 38.2678 24.7005 38.4721 24.9483C38.982 25.5683 38.614 26.1579 38.4373 26.4419C38.3866 26.5245 38.333 26.6085 38.3127 26.665C37.9302 27.7153 37.9896 28.7888 38.4779 29.6073C38.9009 30.3186 39.6064 30.7648 40.5148 30.8996C40.593 30.9112 40.719 30.9097 40.8422 30.9068C41.2652 30.901 41.9736 30.8909 42.2503 31.5182C42.4024 31.863 42.4271 34.0795 42.1808 34.4895L42.1793 34.4924Z" fill="#0081EA"/>
<path d="M18.5548 10.4556C21.1118 10.2991 24.8292 10.2353 27.363 10.4222C29.071 10.5483 32.0916 11.8101 32.9883 13.3356C33.7678 14.6641 32.2466 16.2866 30.7747 15.4522C30.075 15.0552 29.9156 14.4685 28.9073 14.0802C26.895 13.3066 21.5203 13.4515 19.2096 13.5616C15.0924 13.7572 13.7813 14.8147 13.5669 19.0088C13.4466 21.3542 13.3148 26.6928 14.016 28.7746C14.3868 29.8756 14.9345 29.9466 15.4198 30.7086C16.4194 32.2761 14.6273 33.9291 13.2279 32.9005C11.8284 31.8719 10.6057 29.3511 10.442 27.6388C10.2087 25.1991 10.2942 21.2123 10.426 18.7147C10.71 13.3153 13.1598 10.7844 18.5562 10.4541L18.5548 10.4556Z" fill="white"/>
<path d="M31.6677 28.6236C30.2567 28.7931 29.0803 29.6609 28.4386 31.0039C27.762 32.4193 27.8388 34.0302 28.6428 35.3124C29.5483 36.7582 31.1998 37.5115 32.9542 37.2812C34.6637 37.0552 36.0284 35.931 36.5151 34.3461C36.9758 32.8423 36.6875 31.3197 35.7241 30.1694C34.8781 29.1582 33.6119 28.5889 32.2559 28.5889C32.0618 28.5889 31.8648 28.6005 31.6677 28.6251V28.6236ZM34.1465 31.6007C34.6811 32.3584 34.726 33.4261 34.2566 34.1983C33.8654 34.843 33.1845 35.1921 32.3515 35.1921C32.2096 35.1921 32.0632 35.182 31.9126 35.1617C30.8695 35.0183 30.1422 34.1722 30.1046 33.0582C30.0655 31.918 30.7608 30.9735 31.7938 30.759C32.7702 30.5577 33.6264 30.8634 34.1465 31.6007Z" fill="#0081EA"/>
</g>
<defs>
<clipPath id="clip0_2217_12124">
<rect width="44.9957" height="45" fill="white"/>
</clipPath>
</defs>
</svg>
