<svg width="45" height="45" viewBox="0 0 45 45" fill="none" xmlns="http://www.w3.org/2000/svg">
<g clip-path="url(#clip0_2218_12475)">
<path d="M15.0293 39.5533C15.0328 40.1965 15.034 40.8431 15.0293 41.4862C15.0234 42.2843 15.1395 43.5189 15.0246 44.2489C14.9684 44.6068 14.659 44.7793 14.4141 45.0011H0.615234L0 44.3862V33.23C0.246094 32.7935 0.510938 32.6022 1.0207 32.5376C1.93242 32.4226 4.39102 32.4273 5.30742 32.5376C5.52539 32.5646 5.70937 32.6151 5.89336 32.7418C6.37617 33.0751 7.73437 35.0679 7.96758 35.1489C9.89648 35.3038 12.0305 34.9916 13.9336 35.1594C14.3953 35.2005 14.9414 35.393 15.0234 35.9152C15.1723 36.86 15.0234 38.5206 15.0281 39.5557L15.0293 39.5533ZM13.0957 37.0935H7.16367C6.89062 37.0935 5.26992 34.8261 4.87852 34.5456H1.93477V43.067H13.0969V37.0935H13.0957Z" fill="white"/>
<path d="M44.9999 35.8636V44.385C44.7691 44.6373 44.5991 44.8251 44.2968 45H30.5859C30.3409 44.7793 30.0327 44.6057 29.9753 44.2477C29.8593 43.5177 29.9765 42.2831 29.9706 41.4851C29.9659 40.842 29.973 40.1953 29.9706 39.5522C29.9624 37.462 29.973 35.3672 29.9753 33.2758C30.0679 32.8252 30.4265 32.6362 30.8448 32.5635C31.63 32.4273 34.5526 32.4262 35.3366 32.5635C35.6214 32.6139 35.7819 32.6797 35.9952 32.8721C36.3808 33.2195 37.6546 35.0574 37.9429 35.1418L44.0694 35.1677C44.5698 35.2357 44.7573 35.4552 44.9999 35.8624V35.8636ZM43.0663 37.0935H37.1343C36.8155 37.0935 35.2253 34.8625 34.8491 34.5457H31.9054V43.0671H43.0675V37.0935H43.0663Z" fill="white"/>
<path d="M23.4664 30.8562C22.8535 30.882 22.1457 30.882 21.5328 30.8562C16.9379 30.6626 9.37109 28.8787 7.99414 23.7877L7.99766 6.12641C8.50977 3.70765 10.9355 2.3416 13.0742 1.53769C18.5211 -0.51139 26.4828 -0.513737 31.9262 1.53769C34.0695 2.34512 36.5785 3.75225 37.0051 6.21209V23.7889C35.6129 28.8799 28.0801 30.6626 23.4664 30.8574V30.8562ZM21.0758 1.98013C18.0664 2.12449 12.3184 2.99646 10.373 5.5138C8.62227 7.78 12.4297 9.52864 14.1043 10.1248C19.1926 11.9368 28.1223 11.9263 32.8965 9.22703C37.1023 6.85052 34.4387 4.57611 31.2453 3.35792C28.052 2.13974 24.3219 1.82405 21.0746 1.98013H21.0758ZM35.068 10.1248C33.6031 11.2292 31.8605 11.9275 30.0957 12.4016C25.4176 13.6585 19.509 13.6585 14.8344 12.384C13.0977 11.9098 11.375 11.2092 9.93125 10.1248V14.9999C9.93125 15.4118 11.0387 16.5948 11.3844 16.8859C16.3824 21.1002 27.4812 21.0685 32.8109 17.4867C33.3641 17.1147 35.0691 15.6653 35.0691 14.9999V10.1248H35.068ZM35.068 18.2061C30.6066 21.7797 24.0676 22.6458 18.5258 21.7821C15.4473 21.3032 12.3477 20.1883 9.93125 18.2061V23.6962C9.93125 24.6972 12.2176 26.2968 13.0367 26.7416C18.2656 29.5841 26.7348 29.5841 31.9637 26.7416C32.7828 26.2968 35.0691 24.6961 35.0691 23.6962V18.2061H35.068Z" fill="white"/>
<path d="M23.467 37.0057C24.4795 37.2733 25.7533 38.5396 26.0158 39.5535C26.1271 39.9819 26.1236 41.0546 26.0158 41.4864C25.1439 44.9755 19.8013 44.9168 18.9846 41.4864C18.8791 41.0416 18.8709 39.9925 18.9846 39.5535C19.2471 38.5396 20.5209 37.2733 21.5334 37.0057C21.9447 36.8965 23.0556 36.8965 23.467 37.0057ZM22.3056 38.8705C20.1224 39.1099 20.5103 42.5039 22.8013 42.18C24.7619 41.9031 24.5334 38.6264 22.3056 38.8705Z" fill="white"/>
<path d="M23.4668 30.8555V37.0051C23.0555 36.8959 21.9445 36.8959 21.5332 37.0051V30.8555C22.1461 30.8813 22.8539 30.8813 23.4668 30.8555Z" fill="#0081EA"/>
<path d="M18.9844 39.5537C18.8707 39.9926 18.8789 41.0418 18.9844 41.4866H15.0293C15.034 40.8435 15.0328 40.1968 15.0293 39.5537H18.9844Z" fill="#0081EA"/>
<path d="M29.9707 39.5537C29.973 40.1968 29.966 40.8435 29.9707 41.4866H26.0156C26.1234 41.0559 26.127 39.9832 26.0156 39.5537H29.9707Z" fill="#0081EA"/>
<path d="M16.4977 23.6716C18.2216 23.2772 18.1032 25.9589 16.52 25.5434C15.6259 25.3087 15.7126 23.8511 16.4977 23.6716Z" fill="#0081EA"/>
<path d="M13.0719 22.7942C14.6328 22.4773 14.6012 24.9032 13.1469 24.7025C12.118 24.5605 12.1402 22.9832 13.0719 22.7942Z" fill="#0081EA"/>
<path d="M13.1628 14.006C14.4296 13.8535 14.5632 15.6948 13.648 15.9037C12.0437 16.2699 12.0413 14.141 13.1628 14.006Z" fill="#0081EA"/>
<path d="M16.6778 14.8836C17.9317 14.7334 18.1086 16.6052 17.0891 16.7953C15.5551 17.0817 15.5762 15.0162 16.6778 14.8836Z" fill="#0081EA"/>
</g>
<defs>
<clipPath id="clip0_2218_12475">
<rect width="45" height="45" fill="white"/>
</clipPath>
</defs>
</svg>
