<svg width="45" height="45" viewBox="0 0 45 45" fill="none" xmlns="http://www.w3.org/2000/svg">
<g clip-path="url(#clip0_2203_10978)">
<path d="M6.52307 45.0003C3.61314 44.2279 2.63417 40.5174 5.12504 38.6381C7.04191 37.1919 10.068 38.1744 10.6526 40.5197C10.7911 41.075 10.7899 41.9002 10.6526 42.453C10.331 43.7431 9.01629 44.7561 7.75325 45.0014H6.52307V45.0003ZM6.85057 39.9246C5.03113 40.2615 5.35511 43.3956 7.51261 43.0458C9.51752 42.7207 9.11841 39.5044 6.85057 39.9246Z" fill="white"/>
<path d="M37.9783 44.9995H36.7481C35.5626 44.6263 34.3406 43.7201 34.0248 42.4511C33.8875 41.8994 33.8863 41.0731 34.0248 40.5178C34.3195 39.3381 35.6001 38.1584 36.815 37.9929C41.0936 37.4107 42.602 43.0803 38.7413 44.7519L37.9795 44.9995H37.9783ZM37.0768 39.9251C35.4769 40.1986 35.4299 42.7646 37.1648 43.0463C39.6064 43.4419 39.6592 39.4849 37.0768 39.9251Z" fill="white"/>
<path d="M23.305 38.0595C24.3415 38.3177 25.5083 39.481 25.7654 40.5198C25.8957 41.0469 25.898 41.9249 25.7654 42.4531C25.4461 43.7279 24.1162 44.7433 22.866 45.0015H21.6359C20.4644 44.6118 19.2272 43.7091 18.9126 42.4531C18.7799 41.9249 18.7823 41.0481 18.9126 40.5198C19.1696 39.481 20.3364 38.3177 21.3729 38.0595C21.9281 37.921 22.7533 37.9222 23.3062 38.0595H23.305ZM21.9634 39.9259C20.3517 40.2006 20.3376 42.7689 22.0514 43.0471C24.4836 43.4415 24.5939 39.4775 21.9634 39.9259Z" fill="white"/>
<path d="M21.3722 35.1601C19.2382 35.1519 16.7332 35.3292 14.652 35.1589C10.6316 34.8303 8.47883 30.3415 10.9169 27.0771C7.5609 27.2203 4.44437 27.117 2.04506 24.4818C-2.12439 19.9038 0.438086 12.3831 6.52205 11.4358C6.56549 6.66888 11.0037 3.16382 15.6779 4.25783C16.043 4.34352 17.4821 4.97152 17.6218 4.92574C17.6899 4.90344 18.3625 3.9585 18.5151 3.79182C25.3397 -3.72305 37.7213 0.655343 38.5207 10.6317C45.3101 12.5228 46.9429 21.5906 41.0304 25.604C38.7754 27.1346 36.4102 27.1652 33.762 27.0783C36.1989 30.3392 34.0484 34.8314 30.0269 35.1601C27.9457 35.3303 25.4407 35.1531 23.3067 35.1613C22.6634 35.1636 22.0166 35.1636 21.3734 35.1613L21.3722 35.1601ZM33.762 25.1426C34.613 25.1039 35.5075 25.1966 36.3526 25.1426C43.7759 24.6649 45.174 14.9984 38.1333 12.5556C37.6908 12.4019 37.1145 12.4383 36.7963 12.0474C36.4888 11.6682 36.5498 10.505 36.4595 9.92392C35.2093 1.86791 24.6918 -0.884724 19.6173 5.50796C19.2699 5.9458 18.629 7.21471 18.1606 7.30158C17.4035 7.44361 16.651 6.66536 15.9221 6.38481C12.4476 5.04899 8.6373 7.49291 8.45183 11.2116C8.42249 11.8126 8.68895 12.3749 8.28045 12.8867C7.92478 13.3327 7.32965 13.1977 6.85308 13.3046C-0.236867 14.9033 0.567208 24.7048 7.96704 25.145C8.92841 25.2025 9.9473 25.0957 10.9134 25.1403L10.283 23.97C8.96949 20.9485 11.0343 17.4376 14.294 17.0538L30.6173 17.0796C33.688 17.6266 35.6272 20.911 34.4405 23.8456L33.7585 25.1403L33.762 25.1426ZM14.3222 19.0152C10.6434 20.0365 11.1293 24.8891 15.0863 25.1473C19.8544 25.4584 24.9594 24.9079 29.7627 25.1415C33.5671 24.8234 33.9428 19.9167 30.3567 19.0152H14.3222ZM14.3222 27.0994C10.6011 28.1993 11.1282 32.9768 15.1732 33.2315C20.1092 33.5426 25.4853 33.0801 30.4436 33.1177C33.674 32.3159 33.6 27.8072 30.3555 27.1006H14.3222V27.0994Z" fill="white"/>
<path d="M18.9114 40.5195C18.7811 41.0466 18.7788 41.9246 18.9114 42.4528H10.6523C10.7897 41.9011 10.7909 41.0748 10.6523 40.5195H18.9114Z" fill="#0081EA"/>
<path d="M34.0247 40.5195C33.8862 41.0748 33.8874 41.9011 34.0247 42.4528H25.7656C25.8983 41.9246 25.8959 41.0478 25.7656 40.5195H34.0247Z" fill="#0081EA"/>
<path d="M23.3054 35.1602V38.0595C22.7537 37.9222 21.9273 37.921 21.3721 38.0595V35.1602C22.0153 35.1625 22.6621 35.1625 23.3054 35.1602Z" fill="#0081EA"/>
<path d="M19.5923 21.1217L28.8785 21.1064C29.9303 21.2673 29.942 22.886 28.6203 23.0339C25.9474 23.332 22.7382 22.8097 20.009 23.0339C18.8927 22.9834 18.5523 21.5912 19.5911 21.1217H19.5923Z" fill="#0081EA"/>
<path d="M15.7244 21.1217C16.9464 20.874 17.4265 22.339 16.444 22.8942C15.1903 23.6044 14.4132 21.387 15.7244 21.1217Z" fill="#0081EA"/>
<path d="M19.5923 29.2057L28.8785 29.1904C29.9303 29.3512 29.942 30.97 28.6203 31.1179C25.9474 31.416 22.7382 30.8937 20.009 31.1179C18.8927 31.0674 18.5523 29.6752 19.5911 29.2057H19.5923Z" fill="#0081EA"/>
<path d="M15.7244 29.2047C16.9464 28.957 17.4265 30.422 16.444 30.9772C15.1903 31.6874 14.4132 29.47 15.7244 29.2047Z" fill="#0081EA"/>
</g>
<defs>
<clipPath id="clip0_2203_10978">
<rect width="44.6643" height="45" fill="white"/>
</clipPath>
</defs>
</svg>
