<svg width="34" height="45" viewBox="0 0 34 45" fill="none" xmlns="http://www.w3.org/2000/svg">
<g clip-path="url(#clip0_2196_10174)">
<path d="M2.90112 44.9999C1.35537 44.5135 0.257096 43.379 0.104039 41.709C-0.0198082 40.3636 -0.0607013 36.1058 0.231392 34.9092C0.400806 34.2131 0.792211 33.8029 1.14389 33.2134C0.574894 32.6239 0.195172 31.8187 0.113386 30.9972C-0.0385022 29.4713 -0.0326603 26.4031 0.104039 24.869C0.185825 23.9502 0.567883 23.186 1.15557 22.4993C0.5562 21.809 0.202183 21.1398 0.114555 20.2069C-0.0151347 18.8287 -0.0653748 14.7385 0.215035 13.488C0.481424 12.3008 1.85076 10.7878 3.12078 10.7878H4.38846C4.5497 9.17049 3.7552 6.85703 5.66783 6.06243C6.06508 5.89719 6.46466 5.89133 6.85607 5.76241C8.12375 5.34402 9.28044 4.36425 9.82607 3.12783C10.3343 1.97696 10.1392 0.560052 11.6639 0.146347C14.9202 0.220181 18.5199 -0.158364 21.7528 0.0818892C23.8991 0.241277 23.5369 2.00626 24.2835 3.42082C25.2509 5.25378 26.3644 5.40379 28.1088 5.98743C30.2212 6.69412 29.429 9.08142 29.5762 10.7878H30.8439C32.1256 10.7878 33.4821 12.295 33.7497 13.488C34.0324 14.7467 33.9763 18.7349 33.8595 20.1295C33.7789 21.0976 33.4179 21.775 32.8243 22.5145C33.3793 23.179 33.7625 23.9091 33.8502 24.7905C34.002 26.3152 33.995 29.3846 33.8595 30.9187C33.7836 31.773 33.4132 32.6004 32.8208 33.2134C33.1713 33.8017 33.5639 34.2131 33.7333 34.9092C34.0312 36.1316 33.9752 40.2452 33.8607 41.6222C33.7637 42.7813 33.1935 43.9029 32.1712 44.49L30.8883 45.001H2.90112V44.9999ZM23.0731 22.8626C25.1773 20.7296 26.8177 17.6251 27.3633 14.6647C27.7746 12.4344 27.6613 10.1444 27.6134 7.88601C25.1107 7.4477 22.9375 5.74718 22.1162 3.31183C21.9923 2.945 21.9643 2.46684 21.865 2.16096C21.8416 2.09064 21.8124 2.04376 21.7365 2.02735L12.1663 2.05314C11.7107 4.59865 9.99548 6.75155 7.53372 7.58248C7.28252 7.66686 6.37703 7.79343 6.32446 7.94813C6.13518 12.0758 6.32913 15.812 8.36677 19.4744C10.041 22.484 13.1583 25.1585 16.2241 26.682C16.8573 26.9961 17.0431 27.0031 17.6869 26.7137C19.2163 26.0257 21.8872 24.0685 23.0754 22.8637L23.0731 22.8626ZM3.55658 21.5781C4.69574 21.7199 6.1048 21.4726 7.27317 21.5781C7.02899 20.8023 6.47985 20.1143 6.12116 19.3561C5.15842 17.3239 4.54269 14.9729 4.47492 12.7169C3.17569 12.5985 2.14869 12.8809 2.02251 14.3377C1.90801 15.6632 1.87296 18.8322 2.04821 20.1085C2.16271 20.9429 2.72119 21.4738 3.55658 21.5781ZM26.6892 21.5781H30.4058C30.4397 21.5781 30.8731 21.4515 30.9502 21.4222C31.5274 21.2066 31.8312 20.7073 31.9142 20.1073C32.0894 18.8322 32.0544 15.662 31.9399 14.3365C31.816 12.9009 30.775 12.5926 29.4874 12.7157C29.422 14.9764 28.8004 17.318 27.8412 19.3549C27.5491 19.976 26.9918 20.6933 26.757 21.25C26.7102 21.3613 26.6658 21.448 26.688 21.5758L26.6892 21.5781ZM21.0915 26.9293H29.0061C29.0855 26.9293 29.3718 27.1942 29.4384 27.2856C29.9162 27.9348 29.5809 28.6767 28.8261 28.8537L16.5968 28.8502C15.5511 28.7283 12.8323 26.8965 11.8812 26.2121C10.7876 25.4245 9.76882 24.5338 8.87385 23.5271L3.21308 23.5142C2.47116 23.724 2.11715 24.3146 2.0377 25.0542C1.89048 26.4289 1.91385 29.1724 2.02368 30.5729C2.09611 31.4918 2.43611 32.0777 3.38016 32.2828C12.5379 32.2324 21.7189 32.3731 30.8626 32.2125C31.5707 31.9441 31.8686 31.3875 31.9352 30.6561C32.0614 29.2685 32.0637 26.5179 31.9352 25.1327C31.8604 24.3275 31.4597 23.588 30.5857 23.5036C28.8589 23.3372 26.8469 23.622 25.0897 23.5259C23.9318 24.8573 22.5298 25.9261 21.0927 26.9293H21.0915ZM3.40352 34.2318C2.54126 34.4111 2.09728 35.0592 2.02368 35.9183C1.90801 37.2684 1.88347 40.2053 2.03653 41.5261C2.12299 42.2785 2.50621 42.8247 3.24696 43.0321L30.4105 43.0743C31.4129 42.9841 31.8581 42.3219 31.941 41.3632C32.0544 40.0354 32.0847 37.0469 31.9282 35.7554C31.8394 35.0229 31.358 34.4064 30.6301 34.2506L3.40469 34.2318H3.40352Z" fill="white"/>
<path d="M4.88728 37.7377L17.0278 37.7178C18.0104 37.8678 18.1787 39.2261 17.2043 39.566C13.1185 39.7054 8.94971 39.7054 4.86508 39.566C3.96894 39.205 3.99347 38.0869 4.88728 37.7377Z" fill="white"/>
<path d="M21.3286 37.7387C22.8556 37.3859 23.0169 39.5107 21.727 39.6314C20.582 39.7381 20.3039 37.9754 21.3286 37.7387Z" fill="#0081EA"/>
<path d="M24.8303 37.7416C26.0151 37.4345 26.6425 38.8772 25.6704 39.4609C24.3349 40.2613 23.6561 38.0463 24.8303 37.7416Z" fill="#0081EA"/>
<path d="M28.0304 39.3554C27.216 38.5854 28.222 37.2295 29.2209 37.8541C30.4057 38.596 29.0504 40.3188 28.0304 39.3554Z" fill="#0081EA"/>
<path d="M5.06493 26.949C6.46581 26.7052 6.63873 28.7362 5.38273 28.8546C4.12906 28.9718 3.92693 27.1482 5.06493 26.949Z" fill="#0081EA"/>
<path d="M9.26163 26.9491C10.6789 26.6608 10.8144 28.6731 9.65537 28.8418C8.42508 29.0212 8.15401 27.1741 9.26163 26.9491Z" fill="#0081EA"/>
<path d="M14.1594 4.05302C15.8863 4.14326 17.869 3.86433 19.5667 4.02841C20.5282 4.12099 20.5142 4.86988 20.9348 5.55079C21.8099 6.9677 22.7703 7.91348 24.1829 8.78542C24.8056 9.16982 25.5137 9.16865 25.6329 10.05C25.8081 11.3497 25.5616 13.5424 25.2637 14.8398C24.4166 18.5291 22.1675 21.4755 19.0397 23.51C18.3375 23.9671 17.3421 24.7781 16.5102 24.464C15.9903 24.2671 14.6981 23.3764 14.1933 23.0154C10.1753 20.1383 7.88177 15.1972 8.32108 10.2129C8.41689 9.12646 9.38663 9.03973 10.2068 8.50766C11.7911 7.47868 12.8649 6.0395 13.657 4.33663L14.1606 4.05185L14.1594 4.05302ZM15.0275 5.97621C13.8837 7.9709 12.3496 9.63978 10.2898 10.6981C9.87852 15.611 12.6347 20.348 17.0184 22.4576C20.2046 20.8039 22.6477 17.8506 23.4094 14.2972C23.5905 13.4545 23.8651 11.6333 23.7156 10.8305C23.6712 10.5938 22.9736 10.3242 22.7259 10.1566C21.1708 9.10185 19.8506 7.68846 18.993 6.00551L15.0264 5.97621H15.0275Z" fill="#0081EA"/>
<path d="M20.5459 11.8571C21.3147 11.7423 21.8848 12.5966 21.5355 13.2951C20.1136 14.6534 18.6975 16.4852 17.202 17.7205C16.7849 18.065 16.3678 18.2608 15.8479 17.9338C15.5277 17.7322 13.6244 15.7973 13.3499 15.4398C13.0134 15.0015 12.8895 14.5234 13.3066 14.0757C14.3839 12.9201 15.5663 15.2676 16.4017 15.6942C16.6423 15.652 19.3273 12.6623 19.8671 12.2345C20.0563 12.0845 20.304 11.8935 20.547 11.8571H20.5459Z" fill="white"/>
</g>
<defs>
<clipPath id="clip0_2196_10174">
<rect width="33.9623" height="45" fill="white"/>
</clipPath>
</defs>
</svg>
