<svg width="45" height="46" viewBox="0 0 45 46" fill="none" xmlns="http://www.w3.org/2000/svg">
<g clip-path="url(#clip0_2166_10130)">
<path d="M22.1555 0C22.9151 0.390937 23.2144 0.75722 23.2954 1.62714C23.4316 3.07584 23.414 5.79009 23.3001 7.25288C23.1416 9.28387 21.7833 8.91054 20.2924 9.1653C10.7303 10.7971 5.93454 21.6213 11.174 29.8368C13.596 33.6347 17.7718 35.8183 22.2424 36.0754C22.6803 36.2468 23.0442 36.6142 23.1839 37.0662C23.4445 37.9091 23.3846 42.2106 23.3001 43.2836C23.1604 45.0681 21.869 45.1726 20.364 44.8967C18.1545 44.4917 18.6699 42.3703 18.1158 40.7314C16.2151 40.3076 14.4283 39.5058 12.7566 38.5266L12.5863 38.5337C11.3184 39.3109 10.418 40.6363 8.7568 40.1655C8.10406 39.9812 6.05077 37.9127 5.55769 37.3034C3.72862 35.0411 5.44382 34.2698 6.51918 32.2963C5.5166 30.6163 4.74412 28.799 4.28274 26.8913C2.85753 26.37 0.922801 26.8479 0.268891 25.1068C0.0927937 24.6396 0.165581 24.2592 0.0211807 23.8166C0.0681401 22.9561 -0.0422145 22.0322 0.0211807 21.1799C0.117447 19.8896 0.496644 18.9 1.84673 18.5677C2.38441 18.4351 3.80493 18.374 4.17826 18.1756C4.36962 18.0735 4.4154 17.5205 4.49993 17.2681C5.03879 15.6656 5.61052 14.1371 6.51801 12.7013C5.51191 10.8511 3.74154 9.94952 5.46964 7.78234C6.02259 7.08852 8.15807 4.90608 8.95755 4.76872C10.6187 4.48462 11.3701 5.82766 12.6979 6.48861C14.4001 5.52477 16.1893 4.68537 18.1158 4.26509C18.2896 4.1336 18.495 2.14839 18.5948 1.75628C18.8977 0.554121 19.7782 0.104485 20.9263 0.00234797H22.1555V0ZM21.7164 1.49448C21.2339 1.55083 20.3323 1.44517 20.0963 1.93942C19.7934 2.57455 19.8228 4.24278 19.5868 5.03287C19.3755 5.73726 18.4715 5.67739 17.8728 5.8664C16.6671 6.2456 15.5518 6.67762 14.4248 7.24935C13.6417 7.64734 12.9773 8.46208 12.1144 7.98192C11.4934 7.63677 10.2971 6.47335 9.7676 6.28786C9.23813 6.10237 8.9282 6.4757 8.53961 6.80911C8.15102 7.14252 6.41 8.86828 6.29495 9.22282C6.25034 9.36018 6.24212 9.45997 6.27265 9.60202C6.40061 10.2078 7.84461 11.6342 8.14163 12.3057C8.36821 12.9608 7.5699 13.8178 7.26584 14.4095C7.01461 14.8979 6.77511 15.4003 6.56732 15.9075C6.11651 17.0146 5.86293 18.1662 5.46847 19.2897C5.35107 19.4294 5.2278 19.521 5.04936 19.5738C4.19822 19.8286 2.83287 19.7664 2.03926 20.0775C1.89838 20.1327 1.77511 20.2184 1.69998 20.3522C1.60136 20.5283 1.53092 21.316 1.51449 21.5731C1.4687 22.3186 1.46401 23.745 1.62015 24.4541C1.65185 24.5997 1.82559 24.8427 1.95826 24.9073C2.59808 25.2195 4.23226 25.1784 5.03057 25.4367C5.82888 25.695 5.75257 26.7187 5.97093 27.3961C6.329 28.5079 6.73168 29.5433 7.26584 30.5823C7.58986 31.2127 8.40695 32.0568 8.12285 32.7553L6.27265 35.3909C6.22569 35.5518 6.26326 35.6833 6.3243 35.8312C6.47692 36.2022 8.14398 37.8434 8.54079 38.1838C8.93759 38.5243 9.22052 38.8965 9.76877 38.7051C10.317 38.5137 11.4945 37.3574 12.1156 37.011C12.9761 36.5332 13.4962 37.2634 14.2499 37.6567C15.2384 38.1721 16.2633 38.6323 17.3269 38.9728C17.8564 39.1418 19.1524 39.3062 19.4354 39.6748C19.8791 40.2524 19.75 42.321 20.0975 43.0547C20.3323 43.549 21.2363 43.4421 21.7176 43.4996V37.436C15.9932 37.2963 10.6786 33.4046 8.58657 28.1193C5.01296 19.0949 10.6187 9.25687 20.1174 7.67081C20.5659 7.59568 21.1095 7.6262 21.4981 7.55811C21.5967 7.5405 21.6624 7.51233 21.7176 7.42663V1.49448H21.7164Z" fill="white"/>
<path d="M23.2977 12.7422V14.2367H31.6858C31.8948 14.2367 32.2634 14.7345 32.2622 14.9833C32.2611 15.2017 31.9758 15.73 31.7739 15.73H23.2977V18.0146H35.3756C35.7408 18.0146 35.9838 17.4886 36.0272 17.1716C36.1822 16.0223 35.9251 14.5959 36.0389 13.4161C35.3357 13.0791 34.636 12.4651 34.5421 11.6434C34.2017 8.67435 38.057 8.07444 38.8636 10.4835C39.2932 11.7655 38.6558 12.8033 37.5428 13.4149C37.2916 15.2005 38.2789 18.3621 36.2115 19.2895C36.1293 19.3259 35.587 19.5091 35.5529 19.5091H23.3V21.7056H40.6914C41.5297 19.3494 45.0411 20.0303 45.0023 22.5415C44.9647 24.9669 41.4862 25.6032 40.6914 23.2869H23.3V25.4835H35.5529C35.5881 25.4835 36.1293 25.6654 36.2115 25.703C38.2777 26.6304 37.2916 29.7908 37.5428 31.5776C37.9972 31.9145 38.3059 32.0167 38.6194 32.5215C39.7875 34.3987 38.0218 36.6046 35.9732 35.872C33.954 35.15 34.0901 32.309 36.0389 31.5764C35.9262 30.3966 36.1833 28.969 36.0272 27.8209C35.9849 27.5051 35.7419 26.9779 35.3756 26.9779H23.2977V29.2625H31.7739C31.9758 29.2625 32.2611 29.792 32.2622 30.0092C32.2634 30.2581 31.896 30.7558 31.6858 30.7558H23.2977V32.2503H28.1732C28.2073 32.2503 28.7215 32.4569 28.8037 32.498C29.4388 32.815 29.9143 33.517 29.9777 34.2238C30.115 35.7617 29.8567 37.4875 29.9882 39.0465C30.0281 39.1674 30.5553 39.4104 30.7184 39.5454C32.1613 40.7429 31.451 43.2811 29.5691 43.4877C26.8807 43.7824 25.9932 40.1242 28.4855 39.1369C28.3717 37.6365 28.6182 35.9636 28.4844 34.4867C28.4397 33.9984 28.2343 33.8011 27.7354 33.7413C26.3301 33.5734 24.6055 33.8716 23.165 33.7424C22.571 34.4128 22.1472 34.502 21.235 34.4445C18.1369 34.2531 14.7135 32.1482 12.8974 29.6922C8.10164 23.2095 10.8558 13.9678 18.3998 11.2219C19.4235 10.8486 21.8795 10.1289 22.767 10.8544C22.8938 10.9577 22.9596 11.155 23.0347 11.2019C23.239 11.3276 27.3339 11.3052 27.8234 11.2477C28.2296 11.2008 28.435 10.993 28.482 10.5891C28.6511 9.12398 28.3482 7.35244 28.4855 5.85209C26.7539 5.18996 26.4475 2.82791 28.0676 1.8265C30.1408 0.544506 32.4501 3.00753 31.1 5.03617C30.7983 5.48933 30.3956 5.63373 29.9871 5.94366C29.8544 7.50271 30.1138 9.22847 29.9765 10.7664C29.9049 11.567 29.0138 12.7399 28.1721 12.7399H23.2965L23.2977 12.7422ZM29.1617 3.00283C28.1662 3.12962 28.3482 4.63349 29.3954 4.47735C30.2864 4.34469 30.1338 2.87839 29.1617 3.00283ZM36.4463 10.5633C35.8582 10.7382 35.8793 11.8242 36.5191 11.9498C37.8798 12.2151 37.7577 10.1747 36.4463 10.5633ZM21.7163 12.039C15.0188 12.5685 10.5647 19.0488 12.47 25.5515C13.6605 29.6159 17.4747 32.6812 21.7163 32.9535V12.039ZM42.4195 21.8124C41.7656 22.0073 41.8948 23.3398 42.8093 23.24C43.914 23.1202 43.6311 21.4508 42.4195 21.8124ZM36.4463 33.0604C35.8582 33.2353 35.8793 34.3212 36.5191 34.4468C37.8798 34.7122 37.7577 32.6718 36.4463 33.0604ZM29.0702 40.5281C28.165 40.7276 28.4292 42.0906 29.305 42.0038C30.3381 41.9016 30.1408 40.2921 29.0702 40.5281Z" fill="#0081EA"/>
</g>
<defs>
<clipPath id="clip0_2166_10130">
<rect width="45" height="45.0106" fill="white"/>
</clipPath>
</defs>
</svg>
