<svg width="46" height="45" viewBox="0 0 46 45" fill="none" xmlns="http://www.w3.org/2000/svg">
<g clip-path="url(#clip0_2219_12868)">
<path d="M26.0202 0C26.2435 0.184513 26.401 0.200966 26.5667 0.465396C26.8817 0.968399 27.5939 3.32711 27.9312 3.49987C29.4331 3.89828 30.8611 4.53878 32.2208 5.27448L35.146 4.06751C35.6525 3.96997 35.8946 4.09454 36.2719 4.39658C37.7856 5.6059 39.1583 7.5239 40.6696 8.79551C40.9552 9.114 41.0621 9.52416 40.934 9.94372L39.7471 12.8007C40.5051 14.1769 41.1197 15.6354 41.551 17.1503C41.7508 17.4183 44.0449 18.1363 44.5561 18.456C44.8206 18.6205 44.837 18.7804 45.0215 19.0025V26.0398C44.837 26.2619 44.8206 26.4218 44.5561 26.5863C44.0414 26.9072 41.7602 27.61 41.551 27.892C41.1197 29.4069 40.5051 30.8642 39.7471 32.2416L40.954 35.1668C41.0433 35.6298 40.9423 35.8931 40.6696 36.248C39.9339 37.2034 37.232 39.8795 36.2719 40.6469C35.9028 40.9419 35.6419 41.0806 35.1448 40.976L32.2208 39.7678C30.8599 40.5035 29.4331 41.144 27.9312 41.5424C27.6103 41.707 26.8864 44.0751 26.5667 44.5769C26.4222 44.8049 26.2741 44.9036 26.0226 45H18.9794C18.7279 44.9025 18.5798 44.8037 18.4352 44.5769C18.105 44.0586 17.4421 41.8033 17.1307 41.5718C15.644 41.1335 14.1832 40.5682 12.8469 39.7784L9.78427 40.9901C9.31065 41.0582 9.0803 40.9231 8.73243 40.6457C7.77108 39.8783 5.07037 37.2034 4.33467 36.2468C4.04556 35.8719 3.94449 35.5828 4.07024 35.0986L5.25724 32.2416C4.49098 30.8689 3.88573 29.4081 3.45324 27.892C3.23935 27.6041 0.962903 26.9142 0.448148 26.5875C0.220151 26.4429 0.12143 26.2949 0.0250606 26.0434L0.00390625 19.0671C0.0861732 18.8297 0.184893 18.6346 0.392911 18.4877C0.89944 18.1316 3.29811 17.4559 3.4838 17.0915C3.61542 16.8342 3.7259 16.2125 3.854 15.8775C4.25476 14.821 4.70252 13.7856 5.25959 12.8007C5.00338 11.5703 3.42621 9.88378 4.38051 8.75085C5.88482 7.51802 7.27748 5.50836 8.77944 4.3531C9.15434 4.06399 9.44345 3.96291 9.92765 4.08867L12.7847 5.27566C14.1573 4.5094 15.6182 3.90415 17.1342 3.47166C17.4457 3.24014 18.0826 0.994254 18.4411 0.467746C18.6174 0.209193 18.7514 0.182162 18.9864 0.00117524H26.0238L26.0202 0ZM43.0765 19.891C42.3655 19.5419 40.2454 19.0213 39.8822 18.3796C39.6072 17.3959 39.3063 16.4264 38.9056 15.4862C38.6882 14.9773 37.7785 13.4718 37.7256 13.1474C37.5776 12.2413 38.6306 10.7358 38.8503 9.82149L35.2553 6.19705C35.0437 6.09128 32.9189 7.19483 32.4664 7.28062C31.6473 7.43575 30.9927 6.77057 30.2746 6.43445C29.1229 5.89619 28.0217 5.66819 26.9017 5.23218C25.7817 4.79616 25.7323 2.81588 24.9942 1.94973L19.916 1.92975C19.7421 1.97676 18.9359 4.95364 18.36 5.13933C17.3763 5.41434 16.4056 5.71403 15.4666 6.11596C14.9589 6.33338 13.4616 7.24184 13.1278 7.2959C12.2217 7.44398 10.7162 6.39096 9.8019 6.17119L6.17745 9.76626C6.07168 9.9778 7.17523 12.1026 7.26102 12.5551C7.41851 13.386 6.85204 13.8291 6.53002 14.5095C5.933 15.7753 5.48171 17.088 5.0833 18.429C4.79889 19.0213 2.05353 19.663 1.93013 20.0261L1.91015 25.1043C1.94893 25.2477 4.27944 26.001 4.66491 26.2361C4.85178 26.3501 4.99398 26.4899 5.10093 26.6792C5.4206 27.6675 5.7097 28.6594 6.12221 29.6161C6.33728 30.1132 7.22342 31.5705 7.2763 31.8925C7.42438 32.7986 6.37137 34.3041 6.1516 35.2185L9.74666 38.8429C10.0405 38.9886 12.3216 37.5548 13.2007 37.757C13.5744 37.8428 14.8731 38.6678 15.4031 38.897C16.3821 39.3201 17.3975 39.6115 18.4105 39.9371C19.0029 40.2215 19.6445 42.9668 20.0077 43.0902L25.0859 43.1102C25.2293 43.0714 25.9826 40.7409 26.2177 40.3554C26.6114 39.7079 28.1662 39.474 28.9207 39.1884C29.4049 39.0051 29.9749 38.7407 30.4485 38.5174C31.2418 38.1436 31.6355 37.5607 32.6004 37.7981C33.027 37.9039 35.0167 38.9017 35.1989 38.8676L38.8233 35.2725C38.969 34.9787 37.5352 32.6976 37.7374 31.8185C37.8232 31.4448 38.6482 30.1461 38.8774 29.6161C39.3005 28.6371 39.5919 27.6217 39.9175 26.6086C40.2077 26.0104 42.9414 25.3899 43.0706 25.0115L43.0742 19.8886L43.0765 19.891Z" fill="white"/>
<path d="M20.9877 7.94328C34.0858 6.84443 42.1456 21.7253 33.7591 31.8865C26.8757 40.2272 13.4826 38.3092 9.11427 28.4736C5.1349 19.5159 11.1768 8.76595 20.9877 7.94328ZM26.7241 34.4838C36.1542 31.0767 38.2356 18.7132 30.2334 12.4562C23.9176 7.51785 14.5615 9.8225 11.0899 16.9586C7.75334 23.8161 11.1839 31.9605 18.2776 34.4838L18.8946 25.6424C18.6161 25.284 18.0849 25.0348 17.71 24.7163C14.008 21.5737 14.3758 15.4331 18.5503 12.8934C19.2484 12.468 20.5012 11.952 20.7221 13.1708C20.9266 14.3025 20.5752 15.8045 20.7891 16.975C20.9936 17.1431 21.2428 17.5427 21.4931 17.5908C21.7199 17.6343 23.3958 17.6308 23.5838 17.5744C23.6544 17.5532 24.1386 17.0937 24.1785 17.0256C24.4159 16.6107 24.1903 14.1298 24.2584 13.4105C24.4335 11.5478 26.341 12.7183 27.166 13.4129C31.2029 16.814 30.5801 22.89 26.1235 25.5672L26.7253 34.4826L26.7241 34.4838ZM18.8065 17.6379C18.669 17.002 18.9087 15.9091 18.8065 15.2192C16.1528 17.6567 16.6511 21.7289 19.6057 23.7009C20.1263 24.0488 20.7915 24.0946 20.9019 24.8762L20.2097 34.9586C20.721 35.3076 24.7191 35.2394 24.7943 34.9586L24.1221 24.8045C24.2772 24.0652 25.0435 23.943 25.6088 23.5599C27.6008 22.2095 28.4106 19.5429 27.6067 17.2841C27.3423 16.5425 26.8252 15.6964 26.1976 15.218V17.6367C26.1976 17.7377 25.0611 18.98 24.879 19.1328C24.6016 19.3666 24.4171 19.4971 24.0469 19.5323C23.531 19.5805 21.0336 19.6076 20.6504 19.4889C20.4542 19.4289 18.8453 17.8094 18.8077 17.6367L18.8065 17.6379Z" fill="#0081EA"/>
</g>
<defs>
<clipPath id="clip0_2219_12868">
<rect width="45.0212" height="45" fill="white"/>
</clipPath>
</defs>
</svg>
