<svg width="45" height="45" viewBox="0 0 45 45" fill="none" xmlns="http://www.w3.org/2000/svg">
<g clip-path="url(#clip0_2217_12102)">
<path d="M18.9356 7.41585C19.1038 7.53836 20.8158 7.31947 21.1817 7.31947C23.9635 7.31947 30.8112 8.08886 32.216 10.8724C32.3778 11.1909 32.4807 11.596 32.5117 11.9537L32.5084 25.8517C33.7515 25.6099 33.5473 27.6992 34.7578 27.7825C35.9682 27.8658 35.8424 25.7047 36.5171 25.5037C37.0872 25.3338 39.7465 26.1522 40.1222 26.6292C40.5453 27.1666 40.1173 27.4427 39.9801 27.9573C39.6142 29.3147 40.2333 30.0139 41.5875 29.4732C42.3748 29.1595 42.5725 28.4735 43.3697 29.4356C43.8009 29.9583 44.8251 31.8467 44.6895 32.4788C44.554 33.111 42.731 33.2891 42.731 34.3345C42.731 35.4927 44.5703 35.3799 44.8807 35.8128C45.191 36.2457 44.8186 37.448 44.6585 37.9544C44.4592 38.5865 44.0982 39.8884 43.2945 39.7904C42.7702 39.7251 41.416 38.9361 40.9406 39.7414C40.3264 40.782 42.0269 41.8552 41.3653 42.6425C40.9455 43.144 38.7076 44.2826 38.0656 44.1911C37.3649 44.0915 37.3796 42.4972 36.3864 42.2897C35.0224 42.0055 35.1417 44.1503 34.6565 44.4606C34.0864 44.8249 31.8322 44.0278 31.2376 43.6798C30.2264 43.0869 31.1461 42.2636 31.1428 41.3978C31.1379 40.5092 30.6266 40.3197 29.8278 40.4569C29.194 40.5663 28.6533 41.2982 28.0195 41.0286C27.5393 40.8228 26.288 38.3529 26.2717 37.8171C26.2652 37.6358 26.2962 37.461 26.4171 37.3189L27.2845 36.8583C26.4056 36.9743 25.5415 37.1948 24.6594 37.3042C21.3613 37.7126 17.4769 37.5525 14.2833 36.6067C12.8197 36.1722 10.0509 35.099 9.85978 33.3266C9.7144 31.9741 9.87122 30.1511 9.86305 28.7381C9.85162 26.4299 9.86795 24.0875 9.86305 21.7761C9.85978 20.3533 9.91206 18.9207 9.76667 17.5077L9.42037 18.5825C9.16064 19.4418 7.67088 18.9305 7.03544 18.7263C6.47351 18.5466 5.1667 18.1056 5.22878 17.4048C5.28105 16.8167 6.27749 15.0983 4.95435 14.9382C3.8991 14.8108 3.20159 15.8219 2.52368 15.5328C2.01076 15.3139 0.712114 12.7117 0.780722 12.1498C0.877099 11.3804 2.91572 11.3101 2.79648 10.1324C2.6707 8.87621 0.390312 9.37606 0.419715 8.213C0.436051 7.55143 1.04535 5.63532 1.43576 5.09463C2.081 4.20436 3.5969 5.74313 4.42182 4.91821C5.20101 4.13902 3.83702 2.93022 3.89746 2.33889C3.96444 1.67242 6.21378 0.545296 6.82962 0.40318C8.38309 0.048708 7.87507 1.96645 9.00872 2.26048C10.4903 2.64599 10.3041 0.246363 10.9526 0.0307394C11.5423 -0.165282 14.2458 0.653108 14.628 1.13499C15.074 1.69692 14.3438 2.44344 14.3454 3.15401C14.3487 4.03774 14.8779 4.23867 15.6767 4.11125C16.2501 4.01814 16.7075 3.35984 17.3298 3.47582C17.8558 3.57383 19.0173 5.87545 19.1496 6.42594C19.2574 6.87352 19.2312 7.06138 18.9372 7.41748L18.9356 7.41585ZM13.1562 1.91908L11.6975 1.55481C11.0555 4.2354 8.05475 4.46246 6.87862 1.99749L6.73487 1.95338L5.55548 2.60189C6.56172 4.206 5.91975 6.46351 3.83702 6.58439C3.3339 6.61379 2.84385 6.42267 2.34563 6.41777L1.97482 7.78012C4.63744 8.41066 4.96578 11.4702 2.44037 12.5647C2.28029 12.8162 2.90429 13.6395 2.9876 13.9238C5.60612 12.5745 7.69865 14.3207 6.83452 17.1336L8.19523 17.4946C8.72449 15.5148 10.8252 14.4514 12.4244 16.0849C12.6008 16.2646 12.9569 16.9343 13.068 17.0046C13.2706 17.132 14.1429 16.6191 14.3438 16.4361C14.2605 16.0114 14.0285 15.6291 13.9534 15.1979C13.5711 13.0204 15.6244 11.9848 17.5095 12.6317L18.0208 11.2693C15.2798 10.5996 15.0364 7.67721 17.5226 6.40797L17.0048 5.13056C16.8953 5.05052 16.2909 5.39193 16.0965 5.44747C13.6822 6.12211 12.3983 4.07695 13.1595 1.91908H13.1562ZM17.2841 9.06896C17.5242 10.1405 19.5694 9.71583 19.5792 10.7613C19.5841 11.3118 18.8082 13.8454 18.3835 14.1557C17.8509 14.5445 17.3674 14.0332 16.8496 13.9499C16.5229 13.8976 15.2961 13.8813 15.4513 14.4285C15.5085 14.6262 17.3854 14.8826 17.7104 14.9235C21.0591 15.3547 25.7751 15.2077 28.9016 13.8519C32.3941 12.3376 31.1951 10.8675 28.3119 9.82365C24.9355 8.60178 20.8076 8.60995 17.2857 9.06733L17.2841 9.06896ZM31.0399 18.0092V14.2946C26.502 16.9017 20.8599 16.8412 15.8172 16.0375C16.0802 16.4688 16.2174 16.7693 15.8221 17.1875C15.4268 17.6057 13.4682 18.6234 12.9194 18.6887C11.9017 18.8112 12.0046 17.573 11.3691 17.0454C11.1601 16.9392 11.2189 17.5518 11.2287 17.6449C11.312 18.4486 12.0601 18.9272 12.7119 19.28C16.616 21.3922 25.7669 21.4543 29.6367 19.2621C29.97 19.0726 30.9648 18.3636 31.0432 18.0075L31.0399 18.0092ZM31.0399 20.0723C30.4028 20.4529 29.7429 20.7959 29.0454 21.0573C24.5549 22.748 16.9117 22.7545 12.5191 20.7567C12.0699 20.5526 11.6746 20.2781 11.2319 20.0723V23.5108C11.2319 23.9731 12.4587 24.718 12.8491 24.9189C16.7777 26.9396 24.973 26.9069 28.9931 25.1313C29.4015 24.95 31.0399 24.0597 31.0399 23.6023V20.0723ZM11.2319 25.574V28.2791C11.2319 28.9782 13.1905 29.9126 13.7769 30.1364C16.8496 31.3076 23.4931 31.7601 26.5886 30.7048C26.9643 30.5774 27.1554 30.2573 27.5115 30.2442C28.062 30.2229 29.5256 31.1704 30.0206 30.2867C30.5727 29.3033 29.2724 28.3346 29.4472 27.7041C29.622 27.0735 30.6462 26.8775 30.9501 26.5394C31.0856 26.3875 31.1346 25.5756 30.9043 25.6687C30.7165 25.7439 30.3653 26.0608 30.1268 26.1767C25.958 28.1909 19.2884 28.2676 14.86 27.1291C13.5826 26.8007 12.315 26.3368 11.2303 25.5772L11.2319 25.574ZM38.6488 27.4149L37.1901 27.049C36.7409 29.0893 34.5062 30.0531 32.9675 28.3689C32.7747 28.1582 32.5101 27.5995 32.3712 27.4901C32.2487 27.3937 31.4663 27.7972 31.3176 27.9148C31.249 27.9703 31.1641 28.0193 31.1412 28.1125C32.2928 30.6607 30.6985 32.7173 27.9624 31.8957L27.8186 31.9545L27.469 33.2678C29.7298 33.9278 30.5008 36.0089 28.606 37.6767C28.4459 37.8171 28.1061 37.9527 28.0048 38.0867C27.7582 38.4117 28.3936 39.0717 28.4786 39.4164C31.035 38.1144 33.1994 39.7872 32.3157 42.5739C32.332 42.6785 33.5114 43.0934 33.7025 42.9578C34.5013 40.3034 37.4906 40.0338 38.5606 42.6311L39.8347 41.9287C39.1438 40.4683 39.1993 38.5718 41.0158 38.0736C41.8162 37.8531 42.2981 38.0622 43.0528 38.0965L43.5101 36.7635C40.8246 36.1346 40.5192 33.1045 43.0103 31.9022C43.1491 31.6768 42.5349 30.8731 42.4451 30.6117C39.8805 31.9496 37.7324 30.187 38.6455 27.4149H38.6488ZM11.2319 30.4353V33.1404C11.2319 33.7285 12.8524 34.5746 13.3441 34.7886C16.8104 36.2882 21.9625 36.3731 25.646 35.7263C26.4154 35.5907 27.1881 35.4175 27.9232 35.1578C27.9215 34.6792 26.6017 34.5501 26.2978 34.3998C25.5595 34.0323 26.1998 32.9003 26.1802 32.2714C22.3725 32.8137 18.2642 32.8954 14.5349 31.8581C13.3702 31.5347 12.2594 31.0756 11.2336 30.4369L11.2319 30.4353Z" fill="white"/>
<path d="M4.26179 25.117V38.6441C4.26179 41.0535 6.39515 43.0137 8.70658 43.1869C11.722 43.4139 15.0136 43.0056 18.0584 43.1885C18.7772 43.3012 18.8817 44.2389 18.2055 44.5182L8.24756 44.5623C5.78095 44.4463 2.88637 41.6775 2.88637 39.1946V25.3016C2.34731 25.5923 1.3574 27.0396 0.87225 27.1899C0.280919 27.3712 -0.303879 26.677 0.179641 26.0334C0.614155 25.4551 2.67238 23.3985 3.25228 22.9607C3.64759 22.6618 3.85014 22.6618 4.26669 22.9591C4.72734 23.2874 6.89501 25.4698 7.24458 25.9419C7.48797 26.2686 7.61702 26.6704 7.29195 27.002C6.39515 27.9184 5.06221 25.3571 4.26179 25.1186V25.117Z" fill="white"/>
<path d="M39.2939 18.7889C39.454 18.8281 39.4769 18.7219 39.57 18.6517C39.9506 18.3609 41.1055 16.9642 41.3766 16.8826C41.9271 16.7176 42.5021 17.0639 42.3518 17.6716C42.2016 18.2792 39.5095 20.4044 39.026 21.133C38.8545 21.3192 38.5915 21.2947 38.3726 21.2244L34.9112 17.8071C34.8606 17.5637 34.8655 17.2452 35.0337 17.0492C35.8309 16.1197 37.2929 18.436 37.9201 18.7889V7.55521C37.9201 5.39897 35.478 3.61844 33.4753 3.47143C30.455 3.24927 27.1716 3.64948 24.1235 3.46979C23.4276 3.35708 23.4309 2.26263 24.05 2.12378L33.8429 2.09601C36.1494 2.06171 39.2955 4.90075 39.2955 7.1893V18.7905L39.2939 18.7889Z" fill="white"/>
<path d="M32.7225 37.6478C29.2301 34.054 34.6223 28.6863 38.1834 32.1412C41.965 35.8117 36.295 41.3232 32.7225 37.6478ZM37.2441 36.6382C38.5084 35.3739 37.9743 33.1327 36.2673 32.5904C34.0261 31.8782 32.2554 34.4167 33.5328 36.3344C34.3414 37.5497 36.233 37.6494 37.2441 36.6382Z" fill="#0081EA"/>
<path d="M9.5607 5.60965C15.1048 4.96604 15.3842 13.8229 9.5362 13.2855C5.14532 12.882 4.9934 6.1389 9.5607 5.60965ZM9.8384 6.9818C6.66939 7.23172 6.98139 12.294 10.4444 11.8105C13.2867 11.4135 12.996 6.73187 9.8384 6.9818Z" fill="#0081EA"/>
<path d="M22.5768 23.6758C22.8659 23.9209 22.8626 24.5073 22.5604 24.7523C22.2582 24.9973 20.4973 25.0022 20.1004 24.914C19.3114 24.7376 19.3048 23.6481 20.1951 23.488C20.6394 23.4079 22.2501 23.3998 22.5768 23.6775V23.6758Z" fill="#0081EA"/>
<path d="M22.5737 19.035C22.2551 19.3274 20.6445 19.3062 20.1936 19.2261C19.3034 19.066 19.3099 17.9765 20.0989 17.8001C20.4142 17.7298 21.8419 17.7364 22.1669 17.8017C22.7681 17.9226 23.0261 18.6185 22.572 19.035H22.5737Z" fill="#0081EA"/>
<path d="M20.1005 28.9884C20.4305 28.9149 21.9104 28.928 22.2388 29.0129C23.0539 29.2253 22.9689 30.2969 22.0934 30.4308C21.7585 30.4815 20.3226 30.4847 20.0319 30.3949C19.3311 30.1825 19.3834 29.1485 20.1021 28.9884H20.1005Z" fill="#0081EA"/>
<path d="M22.5735 33.7664C23.0276 34.1829 22.7695 34.8788 22.1684 34.9997C21.8417 35.065 20.4156 35.0715 20.1004 35.0013C19.3114 34.8249 19.3048 33.7353 20.1951 33.5752C20.6443 33.4952 22.2566 33.474 22.5751 33.7664H22.5735Z" fill="#0081EA"/>
</g>
<defs>
<clipPath id="clip0_2217_12102">
<rect width="45" height="44.5622" fill="white"/>
</clipPath>
</defs>
</svg>
