<svg width="60" height="60" viewBox="0 0 60 60" fill="none" xmlns="http://www.w3.org/2000/svg">
<path fill-rule="evenodd" clip-rule="evenodd" d="M36.545 4.74747L38.925 10.48C40.1575 11.045 41.335 11.725 42.44 12.51L48.595 11.7075C48.9014 11.667 49.213 11.7029 49.5022 11.8119C49.7914 11.9209 50.0491 12.0998 50.2525 12.3325C52.5405 14.957 54.2972 18.0008 55.425 21.295C55.63 21.8875 55.5225 22.545 55.14 23.0425L51.3675 27.97C51.495 29.32 51.495 30.68 51.3675 32.03L55.14 36.9575C55.3284 37.2024 55.453 37.4903 55.5028 37.7953C55.5525 38.1003 55.5258 38.4129 55.425 38.705C54.2972 41.9991 52.5405 45.0429 50.2525 47.6675C50.0491 47.9002 49.7914 48.079 49.5022 48.1881C49.213 48.2971 48.9014 48.333 48.595 48.2925C48.595 48.2925 42.44 47.49 42.4425 47.4875C41.3373 48.2746 40.1595 48.9543 38.925 49.5175L36.545 55.2525C36.4265 55.5375 36.2394 55.7889 36.0005 55.9843C35.7615 56.1796 35.4779 56.313 35.175 56.3725C31.7575 57.0424 28.2425 57.0424 24.825 56.3725C24.5221 56.313 24.2386 56.1796 23.9996 55.9843C23.7606 55.7889 23.5735 55.5375 23.455 55.2525L21.075 49.52C19.8424 48.9549 18.6655 48.2752 17.56 47.49L11.405 48.2925C11.0986 48.333 10.787 48.2971 10.4978 48.1881C10.2086 48.079 9.95089 47.9002 9.74752 47.6675C7.45951 45.0429 5.70284 41.9991 4.57502 38.705C4.47423 38.4129 4.44751 38.1003 4.49725 37.7953C4.54699 37.4903 4.67164 37.2024 4.86002 36.9575L8.63252 32.03C8.50502 30.6796 8.50502 29.3203 8.63252 27.97L4.86002 23.0425C4.67164 22.7975 4.54699 22.5096 4.49725 22.2046C4.44751 21.8997 4.47423 21.5871 4.57502 21.295C5.70284 18.0008 7.45951 14.957 9.74752 12.3325C9.95089 12.0998 10.2086 11.9209 10.4978 11.8119C10.787 11.7029 11.0986 11.667 11.405 11.7075C11.405 11.7075 17.56 12.51 17.5575 12.5125C18.6627 11.7254 19.8406 11.0456 21.075 10.4825L23.455 4.74747C23.5735 4.46244 23.7606 4.21107 23.9996 4.01569C24.2386 3.82031 24.5221 3.68696 24.825 3.62747C28.2425 2.95751 31.7575 2.95751 35.175 3.62747C35.4779 3.68696 35.7615 3.82031 36.0005 4.01569C36.2394 4.21107 36.4265 4.46244 36.545 4.74747ZM30 15.625C22.065 15.625 15.625 22.065 15.625 30C15.625 37.935 22.065 44.375 30 44.375C37.935 44.375 44.375 37.935 44.375 30C44.375 22.065 37.935 15.625 30 15.625Z" fill="#0081EA"/>
<path fill-rule="evenodd" clip-rule="evenodd" d="M23.0501 31.3248C22.8761 31.1508 22.738 30.9442 22.6439 30.7169C22.5497 30.4896 22.5012 30.2459 22.5012 29.9998C22.5012 29.7537 22.5497 29.5101 22.6439 29.2827C22.738 29.0554 22.8761 28.8488 23.0501 28.6748C23.2241 28.5008 23.4306 28.3628 23.658 28.2686C23.8853 28.1744 24.129 28.126 24.3751 28.126C24.6211 28.126 24.8648 28.1744 25.0921 28.2686C25.3195 28.3628 25.5261 28.5008 25.7001 28.6748L28.1251 31.0973L34.3001 24.9248C34.4741 24.7508 34.6806 24.6128 34.908 24.5186C35.1353 24.4244 35.379 24.376 35.6251 24.376C35.8711 24.376 36.1148 24.4244 36.3421 24.5186C36.5695 24.6128 36.7761 24.7508 36.9501 24.9248C37.1241 25.0988 37.2621 25.3054 37.3563 25.5327C37.4504 25.7601 37.4989 26.0037 37.4989 26.2498C37.4989 26.4959 37.4504 26.7396 37.3563 26.9669C37.2621 27.1942 37.1241 27.4008 36.9501 27.5748L29.4501 35.0748C29.2761 35.249 29.0696 35.3871 28.8422 35.4814C28.6149 35.5757 28.3712 35.6242 28.1251 35.6242C27.8789 35.6242 27.6352 35.5757 27.4079 35.4814C27.1805 35.3871 26.974 35.249 26.8001 35.0748L23.0501 31.3248Z" fill="#0081EA"/>
</svg>
