<svg width="61" height="60" viewBox="0 0 61 60" fill="none" xmlns="http://www.w3.org/2000/svg">
<g clip-path="url(#clip0_3211_4740)">
<path d="M51.9969 6.84502C50.7999 5.64801 49.0044 5.64801 47.8074 6.84502C46.6103 8.04203 46.6103 10.1368 47.8074 11.3338C57.0842 21.8076 57.0842 38.2665 47.8074 48.441C46.6103 49.638 46.6103 51.7328 47.8074 52.9298C48.7051 54.4261 50.7999 54.4261 51.9969 52.9298C63.6677 40.3612 63.6677 19.7129 51.9969 6.84502ZM13.6926 11.3338C14.8897 10.1368 14.8897 8.04203 13.6926 6.84502C12.4956 5.64801 10.7001 5.64801 9.50312 6.84502C-2.16771 19.4136 -2.16771 40.3612 9.50312 52.9298C10.7001 54.4261 12.7949 54.4261 13.6926 52.9298C14.8897 51.7328 14.8897 49.638 13.6926 48.441C4.41584 37.9672 4.41584 21.5084 13.6926 11.3338Z" fill="#0081EA"/>
<path d="M43.3188 16.1218C42.1218 14.9248 40.3263 14.9248 39.1293 16.1218C37.9322 17.3188 37.9322 19.4136 39.1293 20.6106C43.9173 25.6979 43.9173 34.0769 39.1293 39.1642C37.9322 40.3612 37.9322 42.456 39.1293 43.653C40.3263 45.1492 42.421 45.1492 43.3188 43.9522C50.2016 36.1717 50.2016 23.9024 43.3188 16.1218ZM22.3712 20.3113C23.5682 19.1143 23.5682 17.0196 22.3712 15.8226C21.1741 14.6256 19.3786 14.6256 18.1816 15.8226C11.2988 23.6031 11.2988 35.8724 18.1816 43.653C19.0794 45.1492 21.1741 45.1492 22.3712 43.3537C23.5682 42.1567 23.5682 40.062 22.3712 38.865C17.5831 33.7777 17.5831 25.3986 22.3712 20.3113Z" fill="#0081EA"/>
<path d="M30.7502 35.8724C34.0556 35.8724 36.7352 33.1928 36.7352 29.8874C36.7352 26.5819 34.0556 23.9023 30.7502 23.9023C27.4447 23.9023 24.7651 26.5819 24.7651 29.8874C24.7651 33.1928 27.4447 35.8724 30.7502 35.8724Z" fill="#0081EA"/>
</g>
<defs>
<clipPath id="clip0_3211_4740">
<rect width="60" height="60" fill="white" transform="translate(0.75)"/>
</clipPath>
</defs>
</svg>
