<svg width="61" height="60" viewBox="0 0 61 60" fill="none" xmlns="http://www.w3.org/2000/svg">
<path d="M39.9842 30C39.9851 28.3013 39.9248 26.6031 39.8036 24.9087C37.8722 24.5383 36.3085 23.1205 35.7308 21.2706H21.0623C20.7126 23.9653 20.5159 26.8899 20.5159 30C20.5159 31.9078 20.5903 33.7454 20.7281 35.5038C22.645 35.8835 24.1946 37.2963 24.7692 39.1362H39.384C39.7676 36.3301 39.9842 33.267 39.9842 30ZM41.368 14.4021C43.5006 14.627 45.2615 16.1174 45.8827 18.1066H54.4848C51.0193 11.0737 44.5821 5.75854 36.8221 3.81042C37.8935 5.2467 38.8701 7.05338 39.7228 9.20705C40.3541 10.8017 40.9039 12.5443 41.368 14.4021ZM17.5825 35.84C17.4279 33.8972 17.3509 31.949 17.3517 30C17.3517 26.9991 17.5311 24.0642 17.8759 21.2706H4.69882C3.76036 24.0101 3.25 26.9465 3.25 30C3.25 33.2053 3.81268 36.2814 4.84247 39.1362H14.6174C15.0798 37.6556 16.1739 36.4518 17.5825 35.84ZM19.2384 46.0138C17.0583 45.8281 15.249 44.3224 14.6173 42.3003H6.21821C9.72884 49.1314 16.0678 54.2791 23.6779 56.1895C22.6065 54.7532 21.6299 52.9465 20.7772 50.7928C20.1933 49.318 19.6795 47.7159 19.2384 46.0138ZM21.5613 18.1065H35.7308C36.1448 16.7812 37.0647 15.6772 38.2632 15.0214C36.3695 7.55752 33.2018 3 30.25 3C26.9111 3 23.2961 8.83284 21.5613 18.1065ZM15.3289 8.56348C15.3289 11.4949 12.9441 13.8798 10.0126 13.8798C9.56832 13.8798 9.13695 13.8243 8.72414 13.7211C7.68359 15.0934 6.77649 16.5619 6.01518 18.1066H18.3475C18.9238 14.8368 19.7414 11.8235 20.7772 9.20715C21.6299 7.05348 22.6065 5.2468 23.6779 3.81053C20.6256 4.57676 17.7776 5.86337 15.2347 7.57123C15.2971 7.8983 15.3286 8.23051 15.3289 8.56348ZM45.1711 51.4365C45.1711 48.5051 47.5559 46.1202 50.4874 46.1202C50.9317 46.1202 51.363 46.1757 51.7759 46.2789C52.725 45.0279 53.5635 43.6967 54.2818 42.3003H42.0784C41.5069 45.4131 40.7155 48.2856 39.7228 50.7928C38.8701 52.9465 37.8935 54.7532 36.8221 56.1895C39.8745 55.4231 42.7225 54.1366 45.2654 52.4287C45.2029 52.1016 45.1714 51.7695 45.1711 51.4365ZM38.8612 42.3003H24.7692C24.366 43.5912 23.4821 44.671 22.3289 45.3324C24.232 52.5856 27.3454 57 30.25 57C33.5399 57 37.0978 51.3375 38.8612 42.3003ZM55.6575 39.1362C56.6873 36.2814 57.25 33.2053 57.25 30C57.25 26.9465 56.7396 24.0101 55.8012 21.2706H45.8827C45.4236 22.7406 44.3415 23.9373 42.9474 24.5533C43.0817 26.3657 43.1487 28.1826 43.1483 30C43.1483 33.1468 42.9514 36.2214 42.5729 39.1362H55.6575ZM40.8067 21.8408C41.9935 21.8408 42.959 20.8754 42.959 19.6885C42.959 18.5017 41.9935 17.5362 40.8067 17.5362C39.6199 17.5362 38.6545 18.5017 38.6545 19.6885C38.6545 20.8754 39.6199 21.8408 40.8067 21.8408Z" fill="#0081EA"/>
<path d="M19.6933 42.87C20.882 42.87 21.8456 41.9064 21.8456 40.7177C21.8456 39.529 20.882 38.5654 19.6933 38.5654C18.5046 38.5654 17.541 39.529 17.541 40.7177C17.541 41.9064 18.5046 42.87 19.6933 42.87Z" fill="#0081EA"/>
<path d="M10.0127 10.7157C11.2013 10.7157 12.165 9.75212 12.165 8.56343C12.165 7.37475 11.2013 6.41113 10.0127 6.41113C8.82397 6.41113 7.86035 7.37475 7.86035 8.56343C7.86035 9.75212 8.82397 10.7157 10.0127 10.7157Z" fill="#0081EA"/>
<path d="M50.4873 49.2842C49.3004 49.2842 48.335 50.2496 48.335 51.4365C48.335 52.6233 49.3004 53.5888 50.4873 53.5888C51.674 53.5888 52.6395 52.6233 52.6395 51.4365C52.6395 50.2496 51.674 49.2842 50.4873 49.2842Z" fill="#0081EA"/>
</svg>
