<svg width="61" height="60" viewBox="0 0 61 60" fill="none" xmlns="http://www.w3.org/2000/svg">
<path fill-rule="evenodd" clip-rule="evenodd" d="M26.4785 31.5911L29.1591 34.2717L38.1669 25.2636L35.4866 22.5833L26.4785 31.5911ZM42.6282 17.2496L47.0771 12.8008C47.1927 12.6851 47.3496 12.6201 47.5131 12.62C47.6767 12.62 47.8336 12.685 47.9493 12.8006C48.0649 12.9162 48.1299 13.0731 48.13 13.2366C48.13 13.4002 48.0651 13.5571 47.9494 13.6728L43.5006 18.122L48.1051 22.7265L56.1883 14.6434L46.1072 4.56152L38.024 12.6451L42.6282 17.2496ZM22.958 45.9487L19.0285 42.0189C18.9713 41.9617 18.9258 41.8938 18.8948 41.819C18.8638 41.7443 18.8478 41.6641 18.8478 41.5832C18.8478 41.5022 18.8637 41.4221 18.8946 41.3473C18.9256 41.2725 18.971 41.2045 19.0282 41.1473C19.0854 41.09 19.1533 41.0446 19.2281 41.0136C19.3028 40.9826 19.383 40.9666 19.4639 40.9666C19.5449 40.9665 19.625 40.9825 19.6998 41.0134C19.7746 41.0443 19.8426 41.0897 19.8998 41.1469L23.966 45.2127L32.2838 39.1414L25.1823 32.0395L25.1698 32.0274L25.1584 32.0156L21.6095 28.4664L18.9105 32.1641L23.5265 36.7801C23.5838 36.8374 23.6292 36.9053 23.6602 36.9802C23.6911 37.055 23.7071 37.1352 23.7071 37.2162C23.707 37.2972 23.6911 37.3774 23.6601 37.4522C23.6291 37.527 23.5836 37.595 23.5263 37.6522C23.4691 37.7095 23.4011 37.7549 23.3262 37.7859C23.2514 37.8169 23.1712 37.8328 23.0902 37.8328C23.0092 37.8328 22.929 37.8168 22.8542 37.7858C22.7794 37.7548 22.7114 37.7093 22.6542 37.6521L18.1742 33.1727L12.1021 41.4905L19.2597 48.6484L22.958 45.9487ZM12.5066 43.6387L5.31201 50.834L9.9159 55.4382L17.1115 48.2436L12.5066 43.6387Z" fill="#0081EA"/>
<path fill-rule="evenodd" clip-rule="evenodd" d="M35.8932 12.3871C35.8115 12.3867 35.733 12.4188 35.6749 12.4763L21.7379 26.4143C21.6809 26.4725 21.6489 26.5508 21.6489 26.6323C21.6489 26.7138 21.6809 26.7921 21.7379 26.8503L25.6065 30.7189L35.051 21.2748C35.1668 21.1594 35.3235 21.0946 35.487 21.0946C35.6504 21.0946 35.8072 21.1594 35.923 21.2748L39.4753 24.8271C39.5909 24.9427 39.6559 25.0995 39.6559 25.2631C39.6559 25.4266 39.5909 25.5834 39.4753 25.6991L30.0308 35.1435L33.9001 39.0128C33.9584 39.0696 34.0365 39.1014 34.1179 39.1014C34.1993 39.1014 34.2775 39.0696 34.3357 39.0128L48.2737 25.0748C48.331 25.0167 48.3629 24.9384 48.3626 24.8568C48.363 24.7753 48.331 24.6969 48.2737 24.6388L47.6792 24.0447L47.6688 24.0343L47.6574 24.0229L42.2061 18.5713L42.1923 18.5578C42.1876 18.5531 42.183 18.5484 42.1784 18.5436L36.732 13.0968C36.7204 13.086 36.7092 13.0748 36.6984 13.0632L36.1112 12.476C36.0531 12.4185 35.9746 12.3864 35.8929 12.3867L35.8932 12.3871Z" fill="#0081EA"/>
</svg>
