<svg width="61" height="60" viewBox="0 0 61 60" fill="none" xmlns="http://www.w3.org/2000/svg">
<path fill-rule="evenodd" clip-rule="evenodd" d="M23.418 52.6208H17.4644C17.2614 52.6243 17.0679 52.7075 16.9256 52.8524C16.7832 52.9972 16.7035 53.1922 16.7035 53.3953C16.7035 53.5983 16.7832 53.7933 16.9256 53.9381C17.0679 54.083 17.2614 54.1662 17.4644 54.1697H43.0393C43.2424 54.1662 43.4359 54.083 43.5782 53.9381C43.7205 53.7933 43.8003 53.5983 43.8003 53.3953C43.8003 53.1922 43.7205 52.9972 43.5782 52.8524C43.4359 52.7075 43.2424 52.6243 43.0393 52.6208H33.7288C33.7118 52.621 33.695 52.617 33.68 52.609C33.665 52.601 33.6523 52.5893 33.6431 52.5751C32.74 51.2299 32.0798 49.7613 31.5914 48.2034C31.5851 48.1824 31.572 48.1639 31.5542 48.1509C31.5365 48.1378 31.515 48.1309 31.4929 48.1311H29.0111C28.989 48.1309 28.9675 48.1378 28.9498 48.1509C28.932 48.1639 28.919 48.1824 28.9126 48.2034C28.424 49.7617 27.764 51.2295 26.8609 52.5751C26.8516 52.5893 26.8389 52.6009 26.8239 52.6089C26.809 52.6169 26.7922 52.621 26.7752 52.6208H23.418ZM51.1902 44.8174H9.31296C9.25656 44.8174 9.21036 44.863 9.20976 44.9195C9.20436 45.4169 9.17376 45.8271 9.56976 46.223C9.68272 46.3366 9.81701 46.4269 9.96492 46.4885C10.1128 46.5502 10.2715 46.582 10.4317 46.5823H50.0722C50.7424 46.5823 51.2934 46.0311 51.2934 45.361V44.9206C51.2933 44.8933 51.2824 44.8671 51.2631 44.8477C51.2438 44.8284 51.2175 44.8175 51.1902 44.8174ZM30.2519 27.2777C27.7033 27.2777 25.6373 29.3438 25.6373 31.8923C25.6373 34.4409 27.7033 36.5069 30.2519 36.5069C32.8004 36.5069 34.8665 34.4409 34.8665 31.8923C34.8665 29.3438 32.8004 27.2777 30.2519 27.2777ZM15.6691 31.8268C23.4011 22.3451 37.1027 22.345 44.8346 31.8268C44.8499 31.8452 44.8583 31.8684 44.8583 31.8924C44.8583 31.9163 44.8499 31.9395 44.8346 31.958C37.1028 41.4395 23.401 41.4395 15.6691 31.958C15.6539 31.9395 15.6455 31.9163 15.6455 31.8924C15.6455 31.8685 15.6539 31.8453 15.6691 31.8268ZM45.5228 27.5162C45.7282 27.5161 45.9252 27.4345 46.0704 27.2893C46.2157 27.1441 46.2973 26.9471 46.2973 26.7417V22.9853C46.2973 22.7799 46.2157 22.583 46.0704 22.4377C45.9252 22.2925 45.7282 22.2109 45.5228 22.2109H41.7665C41.5634 22.2144 41.3699 22.2976 41.2276 22.4424C41.0853 22.5873 41.0055 22.7823 41.0055 22.9853C41.0055 23.1884 41.0853 23.3834 41.2276 23.5282C41.3699 23.6731 41.5634 23.7562 41.7665 23.7598H44.6452C44.702 23.7598 44.7484 23.8061 44.7484 23.863V26.7417C44.7484 26.9471 44.83 27.1441 44.9752 27.2893C45.1205 27.4345 45.3174 27.5161 45.5228 27.5162ZM14.2064 37.0429V40.7992C14.2065 41.0046 14.2881 41.2016 14.4333 41.3468C14.5786 41.4921 14.7755 41.5737 14.9809 41.5737H18.7373C18.9403 41.5701 19.1338 41.487 19.2762 41.3421C19.4185 41.1972 19.4982 41.0023 19.4982 40.7992C19.4982 40.5961 19.4185 40.4012 19.2762 40.2563C19.1338 40.1115 18.9403 40.0283 18.7373 40.0247H15.8586C15.8312 40.0247 15.805 40.0138 15.7857 39.9945C15.7663 39.9751 15.7554 39.9489 15.7554 39.9215V37.0429C15.7518 36.8398 15.6687 36.6463 15.5238 36.504C15.379 36.3616 15.184 36.2819 14.9809 36.2819C14.7778 36.2819 14.5829 36.3616 14.438 36.504C14.2932 36.6463 14.21 36.8398 14.2064 37.0429ZM44.7485 37.0429V39.9215C44.7485 39.9784 44.7022 40.0247 44.6453 40.0247H41.7666C41.5636 40.0283 41.37 40.1115 41.2277 40.2563C41.0854 40.4012 41.0056 40.5961 41.0056 40.7992C41.0056 41.0023 41.0854 41.1972 41.2277 41.3421C41.37 41.487 41.5636 41.5701 41.7666 41.5737H45.523C45.7284 41.5737 45.9253 41.4921 46.0706 41.3468C46.2158 41.2016 46.2974 41.0046 46.2974 40.7992V37.0429C46.2939 36.8398 46.2107 36.6463 46.0658 36.504C45.921 36.3616 45.726 36.2819 45.523 36.2819C45.3199 36.2819 45.1249 36.3616 44.9801 36.504C44.8352 36.6463 44.7521 36.8398 44.7485 37.0429ZM14.9809 27.5162C15.1863 27.5161 15.3833 27.4345 15.5285 27.2893C15.6738 27.1441 15.7554 26.9471 15.7554 26.7417V23.863C15.7554 23.8061 15.8017 23.7598 15.8586 23.7598H18.7373C18.9403 23.7562 19.1338 23.6731 19.2762 23.5282C19.4185 23.3834 19.4982 23.1884 19.4982 22.9853C19.4982 22.7823 19.4185 22.5873 19.2762 22.4424C19.1338 22.2976 18.9403 22.2144 18.7373 22.2109H14.9809C14.7755 22.2109 14.5786 22.2925 14.4333 22.4377C14.2881 22.583 14.2065 22.7799 14.2064 22.9853V26.7417C14.2064 26.9471 14.288 27.1441 14.4333 27.2893C14.5785 27.4346 14.7755 27.5162 14.9809 27.5162ZM50.0722 20.5161C50.7424 20.5161 51.2934 21.0673 51.2934 21.7373V43.1653C51.2934 43.2221 51.2471 43.2685 51.1902 43.2685H9.31356C9.2862 43.2684 9.25997 43.2575 9.24062 43.2382C9.22128 43.2188 9.21039 43.1926 9.21036 43.1653V21.7375C9.21036 21.0673 9.76152 20.5162 10.4316 20.5162L50.0722 20.5161ZM20.3011 11.5003C20.1559 11.6455 19.9589 11.7271 19.7536 11.7271C19.5482 11.7271 19.3512 11.6455 19.206 11.5003C19.0608 11.355 18.9792 11.1581 18.9792 10.9527C18.9792 10.7473 19.0608 10.5504 19.206 10.4051C25.3228 4.28837 35.2168 4.32437 41.2976 10.4051C41.4429 10.5504 41.5244 10.7473 41.5244 10.9527C41.5244 11.1581 41.4429 11.355 41.2976 11.5003C41.1524 11.6455 40.9555 11.7271 40.7501 11.7271C40.5447 11.7271 40.3477 11.6455 40.2025 11.5003C34.7111 6.00881 25.8056 5.99573 20.3011 11.5003ZM27.1372 18.3364C26.9919 18.4816 26.795 18.5632 26.5896 18.5632C26.3842 18.5632 26.1873 18.4816 26.042 18.3364C25.8968 18.1912 25.8152 17.9942 25.8152 17.7889C25.8152 17.5835 25.8968 17.3865 26.042 17.2413C28.3645 14.9189 32.1391 14.9188 34.4615 17.2413C34.6067 17.3865 34.6883 17.5835 34.6883 17.7889C34.6883 17.9942 34.6067 18.1912 34.4615 18.3364C34.3163 18.4816 34.1193 18.5632 33.9139 18.5632C33.7085 18.5632 33.5116 18.4816 33.3664 18.3364C31.6442 16.6141 28.8595 16.6142 27.1372 18.3364ZM23.7192 14.9183C27.3292 11.3085 33.1747 11.3085 36.7847 14.9183C36.9299 15.0636 37.1269 15.1451 37.3322 15.1451C37.5376 15.1451 37.7346 15.0636 37.8798 14.9183C38.025 14.7731 38.1066 14.5761 38.1066 14.3708C38.1066 14.1654 38.025 13.9684 37.8798 13.8232C33.6697 9.61325 26.8343 9.61325 22.6242 13.8232C22.4813 13.9689 22.4016 14.1651 22.4026 14.3692C22.4036 14.5733 22.4851 14.7687 22.6294 14.913C22.7737 15.0574 22.9691 15.1389 23.1732 15.1399C23.3773 15.1409 23.5735 15.0612 23.7192 14.9183Z" fill="#0081EA"/>
</svg>
