<svg width="61" height="60" viewBox="0 0 61 60" fill="none" xmlns="http://www.w3.org/2000/svg">
<path d="M43.8555 26.6684C36.9987 26.6684 31.4198 32.2472 31.4198 39.1041C31.4198 45.9612 36.9979 51.5414 43.8555 51.5414C50.7135 51.5414 56.2918 45.9618 56.2918 39.1041C56.2918 32.2466 50.7128 26.6684 43.8555 26.6684ZM45.6954 44.8343H44.6808V46.0706C44.6809 46.179 44.6596 46.2864 44.6181 46.3865C44.5766 46.4867 44.5159 46.5777 44.4392 46.6543C44.3626 46.731 44.2716 46.7918 44.1714 46.8333C44.0712 46.8747 43.9639 46.896 43.8555 46.896C43.7471 46.896 43.6398 46.8746 43.5397 46.8331C43.4396 46.7916 43.3487 46.7308 43.2721 46.6542C43.1955 46.5775 43.1347 46.4866 43.0933 46.3864C43.0519 46.2863 43.0306 46.179 43.0306 46.0706V44.8343H42.1387C40.8843 44.8343 39.7251 44.0987 39.1828 42.9684C38.9859 42.5583 39.1591 42.0643 39.5695 41.8676C39.7668 41.7731 39.9935 41.7609 40.1998 41.8335C40.4061 41.9061 40.5751 42.0577 40.6698 42.2549C40.9395 42.8169 41.5144 43.1845 42.1386 43.1845H45.6953C46.593 43.1845 47.3233 42.4542 47.3233 41.5566C47.3233 40.6589 46.593 39.9287 45.6953 39.9287H42.0154C40.2089 39.9287 38.7378 38.4598 38.7378 36.6527C38.7378 34.8457 40.2083 33.3745 42.0154 33.3745H43.0305V32.1372C43.0341 31.9207 43.1227 31.7144 43.277 31.5626C43.4314 31.4109 43.6392 31.3258 43.8556 31.3258C44.0721 31.3258 44.2799 31.4109 44.4342 31.5626C44.5885 31.7144 44.6771 31.9207 44.6807 32.1372V33.3745H45.5722C46.8268 33.3745 47.9862 34.1105 48.5286 35.241C48.623 35.4382 48.6352 35.6648 48.5627 35.8711C48.4902 36.0774 48.3389 36.2464 48.1419 36.3413C47.7316 36.5382 47.2387 36.3643 47.0416 35.9544C46.7713 35.3923 46.1968 35.0249 45.5722 35.0249H42.0155C41.1179 35.0249 40.3881 35.7552 40.3881 36.6529C40.3881 37.5495 41.1192 38.2791 42.0155 38.2791H45.6954C47.5025 38.2791 48.9731 39.7497 48.9731 41.5567C48.9731 43.3638 47.5026 44.8343 45.6954 44.8343ZM29.7696 39.104C29.7696 33.4283 33.1885 28.3152 38.4012 26.1182L38.4462 26.0992L38.4631 26.0534C38.9416 24.7548 39.8759 23.64 41.076 22.9491C41.8199 22.5207 42.1321 21.6247 41.8147 20.827C41.1152 19.0692 40.1675 17.4193 38.9964 15.9336C38.4639 15.2579 37.531 15.0796 36.7867 15.5111C34.9525 16.5744 32.6726 16.5781 30.8365 15.5176C29.0012 14.4575 27.8634 12.4815 27.8674 10.3621C27.869 9.50004 27.25 8.78368 26.3969 8.66028C24.524 8.39005 22.6219 8.39191 20.7495 8.66579C19.898 8.79012 19.2805 9.50602 19.2814 10.3663C19.2837 12.4841 18.1467 14.4587 16.3122 15.5175C14.4771 16.5768 12.1976 16.5741 10.3641 15.5121C9.61916 15.0806 8.6867 15.2593 8.15444 15.936C7.57105 16.6782 7.04138 17.4611 6.56948 18.2788C6.09705 19.0964 5.68384 19.9469 5.33303 20.8236C5.01381 21.622 5.32553 22.5186 6.07061 22.9475C7.90717 24.005 9.0501 25.977 9.0501 28.0966C9.0501 30.215 7.90846 32.1866 6.07284 33.2435C5.32823 33.6723 5.01674 34.5683 5.33409 35.3666C6.0329 37.1247 6.98229 38.7725 8.1528 40.2588C8.68565 40.9352 9.61776 41.1137 10.3626 40.6815C12.196 39.6175 14.4765 39.6145 16.3122 40.6745C18.1487 41.7349 19.2853 43.7112 19.2814 45.8317C19.2797 46.6938 19.8985 47.41 20.7519 47.5335C22.6248 47.8037 24.527 47.8016 26.3994 47.5274C27.2511 47.4031 27.8684 46.6875 27.8675 45.8269C27.8671 44.9794 28.0479 44.1416 28.3977 43.3697C28.7475 42.5978 29.2582 41.9095 29.8956 41.351L29.9422 41.3104L29.9328 41.2493C29.8239 40.5394 29.7693 39.8222 29.7696 39.104ZM23.5612 35.904C22.1949 35.9044 20.8526 35.5442 19.6701 34.8597C17.8702 33.8203 16.5718 32.1214 16.0346 30.1146C15.4994 28.1149 15.7763 25.9852 16.8118 24.1917C17.8508 22.3922 19.5493 21.0941 21.5556 20.5569C23.5552 20.0215 25.6852 20.2984 27.4787 21.334C29.285 22.3772 30.5773 24.06 31.1172 26.0749C31.6559 28.0857 31.3784 30.1984 30.3374 32.0013C28.9373 34.4265 26.352 35.904 23.5612 35.904Z" fill="#0081EA"/>
</svg>
