<svg width="61" height="60" viewBox="0 0 61 60" fill="none" xmlns="http://www.w3.org/2000/svg">
<path fill-rule="evenodd" clip-rule="evenodd" d="M37.2386 53.6865V51.1148H33.0509C31.4138 53.0617 29.0865 53.0617 27.4496 51.1148H23.2619V53.6865H37.2386ZM30.2502 7.50293C35.0583 7.50293 38.956 11.4007 38.956 16.2088C38.956 17.7758 38.5417 19.2461 37.817 20.5164L35.354 18.0533C34.8498 17.5491 34.6047 16.9261 34.6301 16.2136C34.6735 14.9979 34.2313 13.768 33.3032 12.8399C32.1298 11.6665 30.474 11.2698 28.9742 11.6491L31.6535 14.3285L30.9595 16.9184L28.3697 17.6123L25.6903 14.933C25.311 16.4329 25.7076 18.0886 26.8811 19.262C27.8091 20.19 29.039 20.6323 30.2548 20.5888C30.9674 20.5634 31.5904 20.8085 32.0945 21.3127L34.5576 23.7757C33.2874 24.5004 31.8171 24.9146 30.2501 24.9146C25.442 24.9146 21.5442 21.0169 21.5442 16.2089C21.5442 11.4009 25.442 7.50305 30.2501 7.50305L30.2502 7.50293ZM17.7686 19.2527C18.0799 20.5326 18.5874 21.7566 19.273 22.8812L18.2183 23.9359C17.8034 24.3507 17.8034 25.0276 18.2183 25.4426L21.0164 28.2407C21.4313 28.6556 22.1081 28.6556 22.5231 28.2407L23.5772 27.1866C24.702 27.8723 25.9261 28.3798 27.2062 28.6911V30.1805C27.2062 30.7672 27.6847 31.2458 28.2715 31.2458H32.2287C32.8154 31.2458 33.294 30.7672 33.294 30.1805V28.6904C34.5739 28.3791 35.7978 27.8716 36.9225 27.186L37.9772 28.2407C38.3922 28.6556 39.0689 28.6556 39.4839 28.2407L42.282 25.4426C42.6969 25.0277 42.6969 24.3509 42.282 23.9359L41.2279 22.8817C41.9136 21.7569 42.4212 20.5328 42.7326 19.2527H44.2219C44.8087 19.2527 45.2872 18.7741 45.2872 18.1874V14.2303C45.2872 13.6436 44.8087 13.165 44.2219 13.165H42.7326C42.4212 11.8849 41.9136 10.6608 41.2279 9.53602L42.2821 8.4818C42.6971 8.06695 42.6971 7.39008 42.2821 6.97512L39.484 4.17703C39.069 3.76207 38.3923 3.76207 37.9773 4.17703L36.9229 5.2316C35.7982 4.54604 34.5741 4.03859 33.2943 3.72727V2.23723C33.2943 1.65047 32.8157 1.17188 32.2289 1.17188H28.2717C27.685 1.17188 27.2064 1.65047 27.2064 2.23723V3.72656C25.9264 4.03791 24.7022 4.54548 23.5774 5.23125L22.5232 4.17703C22.1083 3.76207 21.4314 3.76207 21.0165 4.17703L18.2185 6.97512C17.8035 7.38996 17.8035 8.06684 18.2185 8.4818L19.273 9.53637C18.5875 10.6611 18.08 11.8851 17.7688 13.165H16.2788C15.692 13.165 15.2134 13.6436 15.2134 14.2303V18.1874C15.2134 18.7741 15.692 19.2527 16.2788 19.2527H17.7688H17.7686ZM30.2502 6.0968C24.6655 6.0968 20.1381 10.6241 20.1381 16.2088C20.1381 21.7935 24.6654 26.3208 30.2502 26.3208C35.835 26.3208 40.3622 21.7935 40.3622 16.2088C40.3622 10.6241 35.8349 6.0968 30.2502 6.0968ZM5.82846 17.7223V46.6813H54.6717V17.7223H46.6935V18.1873C46.6935 19.5502 45.5848 20.6589 44.2219 20.6589H43.7924C43.5692 21.338 43.295 21.9993 42.9721 22.6371L43.2763 22.9414C44.2401 23.9052 44.2401 25.473 43.2763 26.4368L40.4782 29.2349C39.5145 30.1986 37.9465 30.1986 36.9828 29.2349L36.6778 28.9301C36.0402 29.2529 35.3791 29.5271 34.7002 29.7503V30.1805C34.7002 31.5434 33.5915 32.6521 32.2286 32.6521H28.2714C26.9085 32.6521 25.7998 31.5434 25.7998 30.1805V29.751C25.1206 29.5278 24.4593 29.2536 23.8215 28.9307L23.5173 29.2349C22.5536 30.1986 20.9856 30.1986 20.0219 29.2349L17.2238 26.4368C16.26 25.473 16.26 23.9052 17.2238 22.9414L17.5287 22.6365C17.2059 21.9989 16.9317 21.3378 16.7085 20.6589H16.2783C14.9154 20.6589 13.8067 19.5502 13.8067 18.1873V17.7223H5.82846ZM5.05279 49.7085H55.4472C56.6856 49.7085 57.6988 48.6953 57.6988 47.4568V16.9467C57.6988 15.7083 56.6856 14.6951 55.4472 14.6951H46.6934V16.316H56.0779V48.0874H4.42232V16.3161H13.8068V14.6952H5.05291C3.81447 14.6952 2.80127 15.7084 2.80127 16.9468V47.457C2.80127 48.6954 3.81447 49.7086 5.05291 49.7086L5.05279 49.7085ZM16.3016 58.8278H44.1986V56.9602C44.1986 55.933 43.3582 55.0925 42.331 55.0925H18.1692C17.1421 55.0925 16.3016 55.9329 16.3016 56.9602V58.8278Z" fill="#0081EA"/>
</svg>
