<svg width="61" height="60" viewBox="0 0 61 60" fill="none" xmlns="http://www.w3.org/2000/svg">
<g clip-path="url(#clip0_3211_8586)">
<path d="M13.2985 34.4492C12.736 35.249 12.9339 36.3499 13.7332 36.9055L14.9413 37.7444C12.9603 39.6551 10.3155 40.723 7.56329 40.7235H4.26563V36.9149C4.26563 35.9441 3.4786 35.157 2.50782 35.157C1.53703 35.157 0.75 35.9441 0.75 36.9149V54.8446C0.75 55.8154 1.53703 56.6024 2.50782 56.6024C3.4786 56.6024 4.26563 55.8154 4.26563 54.8446V51.2704H6.64829C12.9567 51.2704 19.126 48.6177 23.5083 43.694L25.2668 44.9153C26.0652 45.4728 27.1729 45.2682 27.7219 44.4606L28.9266 42.6922L14.666 32.5074L13.2985 34.4492ZM59.9837 34.6063L59.3357 34.1633L45.8532 44.9364L49.711 47.7137C50.4644 48.2559 51.518 48.1189 52.1052 47.3903L60.3599 37.1621C61.007 36.36 60.8269 35.1813 59.9837 34.6063ZM57.2541 28.4743L23.4538 4.06479C21.9357 2.96815 19.8277 3.25315 18.6549 4.71308L7.54654 18.5395C6.28325 20.1122 6.60212 22.4296 8.24416 23.6023L38.1471 44.9569C38.4584 45.1792 38.8337 45.2938 39.216 45.2835C39.5984 45.2732 39.967 45.1384 40.2658 44.8997L57.3221 31.2727C58.2285 30.5488 58.1972 29.1553 57.2541 28.4743ZM44.8126 31.5828C43.8418 31.5828 43.0548 30.7958 43.0548 29.825C43.0548 28.8542 43.8418 28.0672 44.8126 28.0672C45.7834 28.0672 46.5704 28.8542 46.5704 29.825C46.5704 30.7958 45.7834 31.5828 44.8126 31.5828Z" fill="#0081EA"/>
</g>
<defs>
<clipPath id="clip0_3211_8586">
<rect width="60" height="60" fill="white" transform="translate(0.75)"/>
</clipPath>
</defs>
</svg>
