<svg width="61" height="60" viewBox="0 0 61 60" fill="none" xmlns="http://www.w3.org/2000/svg">
<path d="M33.5847 42.6187L32.2534 43.9406L31.5878 43.275C31.5011 43.1881 31.3981 43.1191 31.2846 43.0721C31.1712 43.0251 31.0497 43.0008 30.9269 43.0008C30.8041 43.0008 30.6825 43.0251 30.5691 43.0721C30.4557 43.1191 30.3527 43.1881 30.2659 43.275C29.9003 43.6406 29.9003 44.2313 30.2659 44.6063L39.5472 53.8781C39.6326 53.9673 39.7352 54.0383 39.8488 54.0869C39.9624 54.1354 40.0846 54.1604 40.2081 54.1604C40.3316 54.1604 40.4539 54.1354 40.5675 54.0869C40.6811 54.0383 40.7836 53.9673 40.8691 53.8781C40.956 53.7914 41.0249 53.6884 41.072 53.575C41.119 53.4615 41.1432 53.34 41.1432 53.2172C41.1432 53.0944 41.119 52.9728 41.072 52.8594C41.0249 52.746 40.956 52.643 40.8691 52.5563L40.2034 51.8906L41.5347 50.5687L33.5847 42.6187ZM43.5222 31.3406L44.1878 32.0062L42.8659 33.3375L50.8159 41.2875L52.1378 39.9562L52.8034 40.6219C52.9909 40.8094 53.2253 40.8937 53.4691 40.8937C53.7034 40.8937 53.9472 40.8094 54.1253 40.6219C54.5003 40.2563 54.5003 39.6656 54.1253 39.3L44.8534 30.0188C44.4784 29.6531 43.8878 29.6531 43.5222 30.0188C43.4353 30.1055 43.3663 30.2085 43.3193 30.3219C43.2722 30.4353 43.248 30.5569 43.248 30.6797C43.248 30.8025 43.2722 30.924 43.3193 31.0375C43.3663 31.1509 43.4353 31.2539 43.5222 31.3406ZM55.2691 50.0062L48.2097 43.8937L49.4847 42.6094L41.5347 34.6594L34.9066 41.2875L42.8566 49.2375L44.1409 47.9625L50.2534 55.0219C50.5742 55.3898 50.9666 55.6884 51.4066 55.8996C51.8467 56.1108 52.3251 56.23 52.8128 56.25H52.9441C53.8816 56.25 54.7909 55.875 55.4566 55.2094C56.1503 54.5156 56.5347 53.55 56.4972 52.5656C56.4772 52.0779 56.358 51.5995 56.1468 51.1594C55.9356 50.7194 55.637 50.327 55.2691 50.0062ZM23.6875 26.25C26.7906 26.25 29.3125 23.7281 29.3125 20.625C29.3125 17.5219 26.7906 15 23.6875 15C20.5844 15 18.0625 17.5219 18.0625 20.625C18.0625 23.7281 20.5844 26.25 23.6875 26.25ZM21.1469 19.9594C21.5125 19.5938 22.1125 19.5938 22.4781 19.9594L23.0594 20.55L24.8969 18.7125C25.2625 18.3469 25.8625 18.3469 26.2281 18.7125C26.5937 19.0781 26.5937 19.6688 26.2281 20.0344L23.725 22.5375C23.5375 22.725 23.3031 22.8094 23.0594 22.8094C22.9373 22.811 22.8161 22.7877 22.7033 22.7409C22.5905 22.6942 22.4883 22.625 22.4031 22.5375L21.1469 21.2906C20.7813 20.925 20.7813 20.325 21.1469 19.9594Z" fill="#0081EA"/>
<path d="M23.6875 13.125C27.8219 13.125 31.1875 16.4906 31.1875 20.625C31.1875 24.7594 27.8219 28.125 23.6875 28.125C19.5531 28.125 16.1875 24.7594 16.1875 20.625C16.1875 16.4906 19.5531 13.125 23.6875 13.125ZM10.5625 32.8125H19.9375C20.4531 32.8125 20.875 33.2344 20.875 33.75C20.875 34.2656 20.4531 34.6875 19.9375 34.6875H10.5625C10.0469 34.6875 9.625 34.2656 9.625 33.75C9.625 33.2344 10.0469 32.8125 10.5625 32.8125ZM26.5 47.8125H10.5625C10.0469 47.8125 9.625 47.3906 9.625 46.875C9.625 46.3594 10.0469 45.9375 10.5625 45.9375H26.5C27.0156 45.9375 27.4375 46.3594 27.4375 46.875C27.4375 47.3906 27.0156 47.8125 26.5 47.8125ZM26.5 41.25H10.5625C10.0469 41.25 9.625 40.8281 9.625 40.3125C9.625 39.7969 10.0469 39.375 10.5625 39.375H26.5C27.0156 39.375 27.4375 39.7969 27.4375 40.3125C27.4375 40.8281 27.0156 41.25 26.5 41.25ZM28.9375 45.9281C28.5441 45.5342 28.2764 45.0325 28.1684 44.4863C28.0604 43.9402 28.1169 43.3743 28.3307 42.8603C28.5445 42.3463 28.9061 41.9074 29.3696 41.599C29.8331 41.2906 30.3777 41.1268 30.9344 41.1281C31.3562 41.1281 31.7594 41.2312 32.1344 41.4094L41.6594 31.8844C41.1625 30.8437 41.3406 29.5594 42.2031 28.6875C42.5312 28.3594 42.9344 28.125 43.375 27.9938V15.9375H36.8125C33.7094 15.9375 31.1875 13.4156 31.1875 10.3125V3.75H7.75C5.67812 3.75 4 5.42812 4 7.5V53.4375C4 54.9844 5.26562 56.25 6.8125 56.25H39.2594L28.9375 45.9281Z" fill="#0081EA"/>
<path d="M36.8125 14.0625H43.375C43.375 13.8094 43.2719 13.575 43.1031 13.3969L42.8312 13.125L34 4.29375L33.7281 4.02187C33.55 3.85312 33.3156 3.75 33.0625 3.75V10.3125C33.0625 12.3844 34.7406 14.0625 36.8125 14.0625Z" fill="#0081EA"/>
</svg>
