<svg width="61" height="60" viewBox="0 0 61 60" fill="none" xmlns="http://www.w3.org/2000/svg">
<path fill-rule="evenodd" clip-rule="evenodd" d="M23.6859 4.83047C25.4863 4.74917 27.518 4.82635 29.3676 5.29223C32.7891 6.15412 35.7504 6.97647 39.1256 11.2724C39.9612 12.336 40.8944 13.8488 41.7099 15.2742L40.1571 15.8684C39.4125 14.5782 38.5812 13.2456 37.8304 12.29C34.7691 8.39353 32.0686 7.67117 28.9653 6.88941C27.2496 6.45729 25.3649 6.38847 23.6945 6.46753C23.3277 8.16212 21.8186 9.43317 20.015 9.43317C17.9371 9.43317 16.2503 7.74635 16.2503 5.66847C16.2503 3.5907 17.9371 1.90376 20.015 1.90376C21.8047 1.90376 23.3045 3.15553 23.6859 4.83047ZM22.6124 14.2751H25.0092C28.3803 14.2751 31.1131 17.0079 31.1131 20.3789V24.2936H8.91674V20.3789C8.91674 17.0079 11.6496 14.2751 15.0206 14.2751H17.4174V10.4165C18.2135 10.8532 19.107 11.0815 20.015 11.0802C20.9229 11.0815 21.8164 10.8532 22.6124 10.4165V14.2751ZM14.6603 6.45694C14.753 7.0916 14.9587 7.70452 15.2674 8.2667L10.4876 11.0264C8.89051 11.9485 6.84827 11.4012 5.92627 9.80412L11.7236 6.45694H14.6603ZM16.6007 1.4707C15.5924 2.292 14.8851 3.46917 14.671 4.80988H6.71027C4.86604 4.80988 3.37109 3.31494 3.37109 1.4707H16.6007ZM8.91674 52.9802V47.3344H31.1131V52.9802H8.91674ZM8.91674 25.9407H31.1131V45.6873H8.91674V25.9407ZM8.91674 54.6273H31.1131V57.1422C31.1131 57.3244 31.0773 57.5048 31.0076 57.6731C30.9379 57.8415 30.8357 57.9944 30.7069 58.1232C30.5781 58.2521 30.4251 58.3542 30.2568 58.424C30.0885 58.4937 29.9081 58.5295 29.7259 58.5295H10.304C10.1219 58.5295 9.94145 58.4937 9.77314 58.4239C9.60482 58.3542 9.4519 58.252 9.32309 58.1232C9.19425 57.9944 9.09205 57.8414 9.02232 57.6731C8.9526 57.5048 8.91672 57.3244 8.91674 57.1422V54.6273ZM39.6998 17.8068L43.5653 16.328C43.721 16.2684 43.893 16.2669 44.0497 16.3238C44.2065 16.3806 44.3375 16.4921 44.4187 16.6376L48.8606 24.5928C48.9091 24.6797 48.9383 24.776 48.9463 24.8751C48.9543 24.9743 48.9409 25.074 48.907 25.1675C48.873 25.2611 48.8194 25.3462 48.7497 25.4172C48.6799 25.4881 48.5958 25.5433 48.5029 25.5788L42.1976 27.9911C42.1046 28.0266 42.0051 28.0418 41.9058 28.0355C41.8066 28.0292 41.7098 28.0016 41.6221 27.9546C41.5344 27.9076 41.4578 27.8423 41.3976 27.7631C41.3373 27.6839 41.2948 27.5927 41.273 27.4956L39.271 18.6071C39.2343 18.4444 39.2575 18.274 39.3363 18.127C39.415 17.9801 39.5441 17.8664 39.6998 17.8068ZM54.2589 45.3174C55.5896 44.5498 56.0442 44.1298 57.194 42.8021C60.0318 50.1246 56.2597 57.2833 47.8487 57.1779C41.2893 57.0961 38.4233 51.6456 39.4614 45.6776C40.097 42.0345 41.4403 40.2334 42.6972 36.9316C44.182 37.5042 44.7578 37.9588 45.3933 39.0882C47.6852 36.3308 48.165 33.5733 48.6006 30.5436C53.5211 34.6083 54.9997 39.5775 54.2589 45.3174ZM49.171 42.2743C47.822 44.2033 45.7442 45.4369 45.1264 48.0612C44.5582 50.4648 45.9507 52.946 48.5133 52.9798C51.7991 53.0235 53.4222 50 51.66 47.3361C50.5417 45.6435 50.0729 44.8907 49.171 42.2743Z" fill="#0081EA"/>
</svg>
