<svg width="61" height="60" viewBox="0 0 61 60" fill="none" xmlns="http://www.w3.org/2000/svg">
<path d="M29.6757 35.4788L29.6565 23.309H22.007L23.9723 35.4788H29.6757ZM38.6202 23.309H30.7885L30.8078 35.4788H36.6549L38.6202 23.309ZM37.8006 35.4788H41.6655C42.3732 35.4786 43.0621 35.2513 43.6309 34.8303C44.1997 34.4092 44.6183 33.8167 44.8251 33.1399L47.8297 23.309H39.7659L37.8006 35.4788ZM20.8614 23.309H12.7976L15.8021 33.1399C16.0089 33.8167 16.4275 34.4092 16.9963 34.8303C17.5651 35.2513 18.2541 35.4786 18.9617 35.4788H22.8255L20.8614 23.309ZM7.37494 18.9448C7.37345 19.3695 7.45581 19.7902 7.61728 20.183C7.77876 20.5758 8.01618 20.9328 8.31593 21.2336C8.61568 21.5344 8.97186 21.773 9.36404 21.9359C9.75623 22.0987 10.1767 22.1826 10.6014 22.1826H49.8957C50.3204 22.1826 50.7408 22.0987 51.133 21.9359C51.5252 21.773 51.8814 21.5344 52.1811 21.2336C52.4809 20.9328 52.7183 20.5758 52.8798 20.183C53.0412 19.7902 53.1236 19.3695 53.1221 18.9448V16.658H7.37494V18.9448ZM2.79004 5.90332V12.4365C2.79004 13.2562 3.11565 14.0423 3.69524 14.6219C4.27484 15.2015 5.06094 15.5271 5.8806 15.5271H54.6199C55.4393 15.5268 56.2251 15.201 56.8045 14.6215C57.3838 14.0419 57.7093 13.256 57.7093 12.4365V5.90445L2.79004 5.90332ZM53.1278 10.6207H35.5727C35.4226 10.6207 35.2786 10.561 35.1724 10.4549C35.0663 10.3487 35.0066 10.2048 35.0066 10.0546C35.0066 9.90452 35.0663 9.76054 35.1724 9.65439C35.2786 9.54824 35.4226 9.4886 35.5727 9.4886H53.1278C53.2779 9.4886 53.4219 9.54824 53.528 9.65439C53.6342 9.76054 53.6938 9.90452 53.6938 10.0546C53.6938 10.2048 53.6342 10.3487 53.528 10.4549C53.4219 10.561 53.2779 10.6207 53.1278 10.6207ZM30.8768 38.8829C30.9455 38.7494 30.9585 38.5942 30.9128 38.4511C30.8672 38.3081 30.7667 38.189 30.6334 38.1199C30.4998 38.0522 30.3448 38.0397 30.202 38.0853C30.0593 38.1308 29.9402 38.2307 29.8704 38.3633C29.7685 38.5614 27.3912 43.2471 29.9214 46.6048C31.9885 49.3501 29.4119 53.1709 29.3859 53.2082C29.3018 53.3318 29.2701 53.4836 29.2975 53.6305C29.325 53.7774 29.4094 53.9075 29.5324 53.9924C29.6554 54.0773 29.807 54.1101 29.9541 54.0836C30.1012 54.0572 30.2319 53.9737 30.3176 53.8512C30.4455 53.6678 33.3866 49.3252 30.8259 45.9245C28.7259 43.1373 30.8542 38.9248 30.8768 38.8829ZM23.0259 38.8829C23.0946 38.7494 23.1075 38.5942 23.0619 38.4511C23.0163 38.3081 22.9158 38.189 22.7825 38.1199C22.6488 38.0522 22.4939 38.0397 22.3511 38.0853C22.2083 38.1308 22.0892 38.2307 22.0195 38.3633C21.9176 38.5614 19.5402 43.2471 22.0704 46.6048C24.1376 49.3501 21.561 53.1709 21.5349 53.2082C21.4509 53.3318 21.4191 53.4836 21.4466 53.6305C21.474 53.7774 21.5585 53.9075 21.6815 53.9924C21.8045 54.0773 21.9561 54.1101 22.1032 54.0836C22.2502 54.0572 22.3809 53.9737 22.4666 53.8512C22.5934 53.6678 25.5368 49.3252 22.9749 45.9245C20.8761 43.1373 23.0032 38.9248 23.0259 38.8829ZM38.7289 38.8829C38.7975 38.7493 38.8103 38.5939 38.7644 38.4509C38.7186 38.3078 38.6179 38.1888 38.4844 38.1199C38.3507 38.0522 38.1958 38.0397 38.053 38.0853C37.9102 38.1308 37.7911 38.2307 37.7214 38.3633C37.6195 38.5614 35.2421 43.2471 37.7723 46.6048C39.8395 49.3501 37.2629 53.1709 37.2368 53.2082C37.1528 53.3318 37.121 53.4836 37.1485 53.6305C37.1759 53.7774 37.2604 53.9075 37.3834 53.9924C37.5064 54.0773 37.658 54.1101 37.805 54.0836C37.9521 54.0572 38.0828 53.9737 38.1685 53.8512C38.2953 53.6678 41.2387 49.3252 38.678 45.9245C36.578 43.1373 38.7063 38.9248 38.7278 38.8829H38.7289Z" fill="#0081EA"/>
</svg>
