<svg width="60" height="60" viewBox="0 0 60 60" fill="none" xmlns="http://www.w3.org/2000/svg">
<path d="M30.0019 3.75C29.055 3.75 28.1081 4.3875 28.1269 5.655V11.5219L24.6806 8.07187C24.5076 7.89279 24.3007 7.74995 24.072 7.65169C23.8432 7.55342 23.5972 7.50169 23.3482 7.49953C23.0993 7.49737 22.8524 7.54481 22.6219 7.63908C22.3915 7.73336 22.1822 7.87259 22.0061 8.04863C21.8301 8.22468 21.6908 8.43403 21.5966 8.66446C21.5023 8.89489 21.4549 9.14179 21.457 9.39075C21.4592 9.63971 21.5109 9.88575 21.6092 10.1145C21.7074 10.3433 21.8503 10.5502 22.0294 10.7231L28.1269 16.8206V26.7544L19.5206 21.7894C18.7762 19.0125 18.0356 16.2356 17.2894 13.4587C17.2387 13.2074 17.1371 12.9691 16.9908 12.7585C16.8444 12.548 16.6565 12.3696 16.4386 12.2345C16.2207 12.0994 15.9774 12.0103 15.7238 11.9728C15.4701 11.9354 15.2115 11.9503 14.9638 12.0166C14.7162 12.0829 14.4847 12.1993 14.2838 12.3586C14.0828 12.5178 13.9166 12.7166 13.7954 12.9425C13.6743 13.1685 13.6007 13.4169 13.5792 13.6724C13.5577 13.9279 13.5888 14.1851 13.6706 14.4281L14.9325 19.1381L9.85123 16.2056C9.63825 16.0825 9.40309 16.0026 9.15921 15.9703C8.91532 15.9381 8.66747 15.9542 8.42981 16.0177C8.19215 16.0813 7.96933 16.191 7.77408 16.3407C7.57883 16.4904 7.41497 16.677 7.29186 16.89C7.16874 17.103 7.08879 17.3381 7.05655 17.582C7.02431 17.8259 7.04043 18.0738 7.10398 18.3114C7.16753 18.5491 7.27727 18.7719 7.42693 18.9672C7.57659 19.1624 7.76325 19.3263 7.97623 19.4494L13.0537 22.3819L8.34748 23.6419C8.10963 23.7056 7.88666 23.8156 7.69131 23.9656C7.49597 24.1155 7.33207 24.3025 7.20897 24.5158C7.08588 24.729 7.006 24.9645 6.97389 25.2086C6.94179 25.4528 6.95808 25.7009 7.02186 25.9387C7.08563 26.1766 7.19563 26.3996 7.34557 26.5949C7.49551 26.7903 7.68246 26.9542 7.89575 27.0773C8.10903 27.2004 8.34448 27.2802 8.58863 27.3123C8.83279 27.3444 9.08088 27.3281 9.31873 27.2644L17.6456 25.0331L26.2519 30.0019L17.6456 34.9706L9.32061 32.7394C9.08275 32.6756 8.83466 32.6593 8.59051 32.6914C8.34635 32.7235 8.11091 32.8034 7.89763 32.9265C7.68434 33.0496 7.49739 33.2135 7.34745 33.4088C7.1975 33.6042 7.08751 33.8271 7.02373 34.065C6.95996 34.3029 6.94366 34.5509 6.97577 34.7951C7.00787 35.0393 7.08775 35.2747 7.21085 35.488C7.33394 35.7013 7.49784 35.8882 7.69319 36.0382C7.88853 36.1881 8.1115 36.2981 8.34936 36.3619L13.0575 37.62L7.97623 40.5544C7.76325 40.6775 7.57659 40.8414 7.42693 41.0366C7.27727 41.2318 7.16753 41.4547 7.10398 41.6923C7.04043 41.93 7.02431 42.1778 7.05655 42.4217C7.08879 42.6656 7.16874 42.9008 7.29186 43.1138C7.41497 43.3267 7.57883 43.5134 7.77408 43.6631C7.96933 43.8127 8.19215 43.9225 8.42981 43.986C8.66747 44.0495 8.91532 44.0657 9.15921 44.0334C9.40309 44.0012 9.63825 43.9212 9.85123 43.7981L14.9325 40.8656L13.6687 45.5756C13.593 45.8171 13.5669 46.0715 13.592 46.3233C13.617 46.5752 13.6928 46.8194 13.8147 47.0412C13.9366 47.263 14.1021 47.4579 14.3012 47.6141C14.5004 47.7703 14.7291 47.8846 14.9735 47.9502C15.218 48.0157 15.4732 48.0311 15.7238 47.9955C15.9744 47.9599 16.2152 47.8739 16.4317 47.7428C16.6482 47.6117 16.8359 47.4382 16.9837 47.2327C17.1314 47.0272 17.236 46.7939 17.2912 46.5469C18.0356 43.7681 18.7762 40.9912 19.5225 38.2144L28.125 33.2475V43.185L22.0275 49.2806C21.8484 49.4536 21.7056 49.6605 21.6073 49.8892C21.509 50.118 21.4573 50.364 21.4551 50.613C21.453 50.862 21.5004 51.1089 21.5947 51.3393C21.689 51.5697 21.8282 51.7791 22.0042 51.9551C22.1803 52.1312 22.3896 52.2704 22.6201 52.3647C22.8505 52.4589 23.0974 52.5064 23.3464 52.5042C23.5953 52.5021 23.8414 52.4503 24.0701 52.3521C24.2989 52.2538 24.5058 52.111 24.6787 51.9319L28.125 48.4856V54.3488C28.1207 54.5988 28.1666 54.8472 28.2601 55.0792C28.3535 55.3112 28.4926 55.5221 28.669 55.6993C28.8454 55.8766 29.0556 56.0167 29.2871 56.1113C29.5186 56.2059 29.7668 56.253 30.0169 56.25C31.0612 56.2313 31.8919 55.3838 31.8769 54.3488V48.4931L35.3194 51.9319C35.4923 52.111 35.6992 52.2538 35.928 52.3521C36.1567 52.4503 36.4028 52.5021 36.6517 52.5042C36.9007 52.5064 37.1476 52.4589 37.378 52.3647C37.6084 52.2704 37.8178 52.1312 37.9938 51.9551C38.1699 51.7791 38.3091 51.5697 38.4034 51.3393C38.4977 51.1089 38.5451 50.862 38.5429 50.613C38.5408 50.364 38.4891 50.118 38.3908 49.8892C38.2925 49.6605 38.1497 49.4536 37.9706 49.2806L31.875 43.1869V33.2512L40.4775 38.2181L42.7106 46.545C42.7651 46.7927 42.8692 47.0267 43.0166 47.233C43.164 47.4393 43.3517 47.6136 43.5684 47.7454C43.7851 47.8771 44.0262 47.9636 44.2772 47.9996C44.5282 48.0356 44.7839 48.0204 45.0288 47.9549C45.2738 47.8893 45.5029 47.7748 45.7024 47.6182C45.9019 47.4617 46.0676 47.2663 46.1895 47.044C46.3114 46.8216 46.3869 46.5769 46.4116 46.3245C46.4363 46.0721 46.4096 45.8174 46.3331 45.5756L45.0731 40.8694L50.1487 43.7981C52.3256 45.0975 54.2362 41.7881 52.0237 40.5506L46.9481 37.62L51.6506 36.3619C52.131 36.2331 52.5405 35.9187 52.7891 35.488C53.0377 35.0572 53.105 34.5454 52.9762 34.065C52.8474 33.5846 52.5331 33.1751 52.1023 32.9265C51.6716 32.6779 51.1597 32.6106 50.6794 32.7394L42.3544 34.9706L33.75 30L42.3562 25.0312L50.6812 27.2625C50.9191 27.3263 51.1672 27.3426 51.4113 27.3105C51.6555 27.2784 51.8909 27.1985 52.1042 27.0754C52.3175 26.9523 52.5045 26.7884 52.6544 26.593C52.8043 26.3977 52.9143 26.1747 52.9781 25.9369C53.0419 25.699 53.0582 25.4509 53.0261 25.2068C52.994 24.9626 52.9141 24.7272 52.791 24.5139C52.6679 24.3006 52.504 24.1137 52.3087 23.9637C52.1133 23.8138 51.8903 23.7038 51.6525 23.64L46.95 22.38L52.0256 19.4512C54.2381 18.2137 52.3275 14.9044 50.1506 16.2038L45.0694 19.1363L46.335 14.4262C46.4107 14.1847 46.4368 13.9304 46.4118 13.6786C46.3867 13.4267 46.3109 13.1825 46.189 12.9607C46.0671 12.7389 45.9016 12.544 45.7025 12.3878C45.5033 12.2316 45.2747 12.1173 45.0302 12.0517C44.7857 11.9862 44.5305 11.9707 44.2799 12.0064C44.0293 12.042 43.7886 12.1279 43.572 12.259C43.3555 12.3901 43.1678 12.5637 43.0201 12.7692C42.8723 12.9747 42.7677 13.208 42.7125 13.455L40.4794 21.7875L31.875 26.7544V16.8169L37.9687 10.7231C38.1478 10.5502 38.2907 10.3433 38.3889 10.1145C38.4872 9.88575 38.5389 9.63971 38.5411 9.39075C38.5432 9.14179 38.4958 8.89489 38.4015 8.66446C38.3072 8.43403 38.168 8.22468 37.992 8.04863C37.8159 7.87259 37.6066 7.73336 37.3761 7.63908C37.1457 7.54481 36.8988 7.49737 36.6499 7.49953C36.4009 7.50169 36.1549 7.55342 35.9261 7.65169C35.6973 7.74995 35.4904 7.89279 35.3175 8.07187L31.875 11.5125V5.655C31.8937 4.38563 30.9506 3.75 30.0019 3.75Z" fill="#0081EA"/>
</svg>
