<svg width="61" height="60" viewBox="0 0 61 60" fill="none" xmlns="http://www.w3.org/2000/svg">
<path fill-rule="evenodd" clip-rule="evenodd" d="M49.57 56.8754H32.2C31.2031 56.8761 30.2236 56.6147 29.3596 56.1175C28.4956 55.6204 27.7775 54.9048 27.2771 54.0426C26.7768 53.1805 26.5118 52.2019 26.5088 51.2051C26.5058 50.2082 26.7649 49.2281 27.26 48.3629L35.945 33.1629C36.4422 32.2915 37.1611 31.5671 38.0287 31.0632C38.8963 30.5593 39.8817 30.2939 40.885 30.2939C41.8883 30.2939 42.8737 30.5593 43.7413 31.0632C44.6089 31.5671 45.3278 32.2915 45.825 33.1629L54.51 48.3629C55.0035 49.2283 55.2613 50.2081 55.2575 51.2044C55.2538 52.2007 54.9886 53.1785 54.4886 54.0401C53.9885 54.9018 53.2711 55.6172 52.408 56.1147C51.5448 56.6123 50.5663 56.8746 49.57 56.8754ZM40.885 49.0479C40.3877 49.0479 39.9108 49.2455 39.5592 49.5971C39.2075 49.9487 39.01 50.4256 39.01 50.9229C39.01 51.4202 39.2075 51.8971 39.5592 52.2488C39.9108 52.6004 40.3877 52.7979 40.885 52.7979C41.3823 52.7979 41.8592 52.6004 42.2108 52.2488C42.5624 51.8971 42.76 51.4202 42.76 50.9229C42.76 50.4256 42.5624 49.9487 42.2108 49.5971C41.8592 49.2455 41.3823 49.0479 40.885 49.0479ZM39.01 39.0479V44.0479C39.01 44.5452 39.2075 45.0221 39.5592 45.3738C39.9108 45.7254 40.3877 45.9229 40.885 45.9229C41.3823 45.9229 41.8592 45.7254 42.2108 45.3738C42.5624 45.0221 42.76 44.5452 42.76 44.0479V39.0479C42.76 38.5506 42.5624 38.0737 42.2108 37.7221C41.8592 37.3705 41.3823 37.1729 40.885 37.1729C40.3877 37.1729 39.9108 37.3705 39.5592 37.7221C39.2075 38.0737 39.01 38.5506 39.01 39.0479Z" fill="#0081EA"/>
<path fill-rule="evenodd" clip-rule="evenodd" d="M26.3077 56.875H13.1152C11.2923 56.8737 9.54436 56.1489 8.25534 54.8599C6.96631 53.5709 6.24156 51.823 6.24023 50V10C6.24156 8.17704 6.96631 6.42913 8.25534 5.1401C9.54436 3.85108 11.2923 3.12632 13.1152 3.125H34.0827C35.9052 3.125 37.6527 3.85 38.9427 5.1375L48.5152 14.71C49.8027 16 50.5277 17.7475 50.5277 19.57V36.355L47.9952 31.9225C47.2795 30.6681 46.2446 29.6254 44.9957 28.9001C43.7468 28.1748 42.3282 27.7927 40.884 27.7927C39.4397 27.7927 38.0212 28.1748 36.7723 28.9001C35.5234 29.6254 34.4885 30.6681 33.7727 31.9225L25.0877 47.1225C24.2086 48.6612 23.8522 50.4436 24.0722 52.2021C24.2922 53.9606 25.0766 55.6003 26.3077 56.875ZM34.9027 6.7V16.25C34.9017 16.5786 34.9657 16.9041 35.091 17.2079C35.2163 17.5116 35.4004 17.7876 35.6328 18.02C35.8651 18.2523 36.1411 18.4364 36.4449 18.5617C36.7486 18.687 37.0742 18.751 37.4027 18.75H46.9527C46.7052 18.2047 46.3613 17.7084 45.9377 17.285L36.3677 7.715C35.9443 7.29141 35.4481 6.94758 34.9027 6.7ZM16.8652 26.875H31.8652C32.3625 26.875 32.8394 26.6775 33.1911 26.3258C33.5427 25.9742 33.7402 25.4973 33.7402 25C33.7402 24.5027 33.5427 24.0258 33.1911 23.6742C32.8394 23.3225 32.3625 23.125 31.8652 23.125H16.8652C16.368 23.125 15.891 23.3225 15.5394 23.6742C15.1878 24.0258 14.9902 24.5027 14.9902 25C14.9902 25.4973 15.1878 25.9742 15.5394 26.3258C15.891 26.6775 16.368 26.875 16.8652 26.875ZM16.8652 34.375H24.3652C24.8625 34.375 25.3394 34.1775 25.6911 33.8258C26.0427 33.4742 26.2402 32.9973 26.2402 32.5C26.2402 32.0027 26.0427 31.5258 25.6911 31.1742C25.3394 30.8225 24.8625 30.625 24.3652 30.625H16.8652C16.368 30.625 15.891 30.8225 15.5394 31.1742C15.1878 31.5258 14.9902 32.0027 14.9902 32.5C14.9902 32.9973 15.1878 33.4742 15.5394 33.8258C15.891 34.1775 16.368 34.375 16.8652 34.375ZM16.8652 19.375H24.3652C24.8625 19.375 25.3394 19.1775 25.6911 18.8258C26.0427 18.4742 26.2402 17.9973 26.2402 17.5C26.2402 17.0027 26.0427 16.5258 25.6911 16.1742C25.3394 15.8225 24.8625 15.625 24.3652 15.625H16.8652C16.368 15.625 15.891 15.8225 15.5394 16.1742C15.1878 16.5258 14.9902 17.0027 14.9902 17.5C14.9902 17.9973 15.1878 18.4742 15.5394 18.8258C15.891 19.1775 16.368 19.375 16.8652 19.375Z" fill="#0081EA"/>
</svg>
