<svg width="60" height="60" viewBox="0 0 60 60" fill="none" xmlns="http://www.w3.org/2000/svg">
<g clip-path="url(#clip0_3211_4882)">
<path d="M58.2703 22.5237C58.0898 22.5672 57.9337 22.6802 57.8362 22.8383C57.7387 22.9964 57.7077 23.1866 57.75 23.3675C58.2625 25.5428 58.5221 27.7701 58.5235 30.005C58.5144 37.5671 55.5064 44.8169 50.1591 50.1641C44.8119 55.5113 37.5621 58.5194 30 58.5284C23.7891 58.5502 17.7448 56.5201 12.8063 52.7534C13.4694 51.7647 13.7343 50.562 13.548 49.3862C13.3617 48.2104 12.7379 47.1484 11.8017 46.4132C10.8654 45.6779 9.68588 45.3236 8.49944 45.4213C7.31299 45.519 6.20731 46.0615 5.40396 46.94C4.60061 47.8186 4.15896 48.9682 4.16752 50.1587C4.17607 51.3491 4.6342 52.4923 5.4501 53.3592C6.26599 54.2261 7.37936 54.7526 8.56709 54.8333C9.75481 54.9139 10.9291 54.5427 11.8547 53.7941C17.0545 57.7971 23.4379 59.9573 30 59.9347C34.5208 59.9298 38.9818 58.902 43.0489 56.9283C47.116 54.9546 50.6838 52.0861 53.485 48.5378C56.2861 44.9895 58.248 40.8533 59.2237 36.4391C60.1993 32.0249 60.1635 27.4471 59.1188 23.0487C59.0978 22.9584 59.0592 22.8731 59.0052 22.7977C58.9511 22.7224 58.8827 22.6585 58.8038 22.6097C58.725 22.5609 58.6372 22.5282 58.5457 22.5134C58.4541 22.4987 58.3605 22.5022 58.2703 22.5237ZM1.47659 30.005C1.4769 24.9313 2.83044 19.9495 5.39765 15.5733C7.96486 11.197 11.6528 7.58468 16.0814 5.10869C20.5099 2.6327 25.5186 1.38268 30.5912 1.48749C35.6638 1.59231 40.6166 3.04818 44.9391 5.70499C44.4929 6.65949 44.4215 7.74674 44.739 8.75139C45.0565 9.75604 45.7397 10.6048 46.6533 11.1296C47.567 11.6544 48.6444 11.8169 49.6721 11.585C50.6999 11.3531 51.6031 10.7437 52.2029 9.87738C52.8026 9.0111 53.0551 7.95118 52.9104 6.90754C52.7657 5.86391 52.2343 4.91268 51.4215 4.24226C50.6087 3.57183 49.5738 3.23112 48.5217 3.28759C47.4695 3.34406 46.477 3.79361 45.7407 4.54718C41.2067 1.74438 36.0066 0.203168 30.6777 0.0828264C25.3487 -0.0375152 20.0843 1.26738 15.4285 3.86265C10.7727 6.45792 6.89437 10.2494 4.19438 14.8453C1.49438 19.4412 0.0706554 24.6747 0.0703407 30.005C0.06782 31.832 0.234152 33.6554 0.567216 35.4519C0.595804 35.6137 0.680591 35.7603 0.806643 35.8658C0.932694 35.9712 1.09192 36.0288 1.25628 36.0284C1.29885 36.0284 1.3413 36.0237 1.38284 36.0144C1.56613 35.9813 1.7288 35.8768 1.83514 35.7239C1.94147 35.571 1.98279 35.3821 1.95003 35.1987C1.63405 33.4856 1.47558 31.7471 1.47659 30.005Z" fill="#0081EA"/>
<path d="M25.7812 25.36V25.7818H34.2188V25.36C34.1531 19.66 25.8469 19.66 25.7812 25.36Z" fill="#0081EA"/>
<path d="M49.6644 15.3941C41.7519 15.4738 34.1395 10.5847 31.2285 8.47534C30.8711 8.21712 30.4413 8.07812 30.0004 8.07812C29.5594 8.07812 29.1297 8.21712 28.7723 8.47534C25.8613 10.5847 18.2301 15.455 10.3363 15.3941C10.056 15.3913 9.77786 15.444 9.51797 15.5491C9.25808 15.6543 9.02156 15.8098 8.82201 16.0067C8.62247 16.2037 8.46385 16.4381 8.35529 16.6966C8.24673 16.9551 8.19037 17.2325 8.18945 17.5128C8.19414 28.3363 10.3598 43.8191 29.0488 53.2785C29.3435 53.4287 29.6696 53.507 30.0004 53.507C30.3312 53.507 30.6572 53.4287 30.952 53.2785C49.641 43.8191 51.8066 28.3363 51.8113 17.5128C51.8071 16.9473 51.5787 16.4066 51.1762 16.0094C50.7737 15.6121 50.23 15.3908 49.6644 15.3941ZM37.7348 36.7972C37.7348 37.7296 37.3644 38.6238 36.7051 39.2831C36.0458 39.9424 35.1515 40.3128 34.2191 40.3128H25.7816C24.8492 40.3128 23.955 39.9424 23.2957 39.2831C22.6364 38.6238 22.266 37.7296 22.266 36.7972V29.2972C22.2664 28.6135 22.4661 27.9447 22.8408 27.3727C23.2154 26.8007 23.7487 26.3504 24.3754 26.0769V25.3503C24.4598 17.8269 35.541 17.8269 35.6254 25.3503V26.0769C36.2521 26.3504 36.7854 26.8007 37.16 27.3727C37.5347 27.9447 37.7344 28.6135 37.7348 29.2972V36.7972Z" fill="#0081EA"/>
<path d="M31.1513 32.2397C31.1409 32.1768 31.1439 32.1123 31.16 32.0506C31.1762 31.9889 31.2052 31.9313 31.2451 31.8816C31.4021 31.6545 31.494 31.3888 31.5109 31.1133C31.5277 30.8377 31.4689 30.5628 31.3407 30.3183C31.2125 30.0738 31.0198 29.8691 30.7836 29.7262C30.5474 29.5833 30.2766 29.5078 30.0006 29.5078C29.7245 29.5078 29.4537 29.5833 29.2175 29.7262C28.9813 29.8691 28.7886 30.0738 28.6604 30.3183C28.5323 30.5628 28.4734 30.8377 28.4903 31.1133C28.5071 31.3888 28.599 31.6545 28.756 31.8816C28.7958 31.9308 28.8247 31.9878 28.8408 32.049C28.857 32.1101 28.86 32.174 28.8498 32.2364C28.7396 32.7853 28.4279 34.3547 28.2081 35.4441C28.1813 35.5799 28.185 35.7201 28.2189 35.8543C28.2528 35.9886 28.316 36.1137 28.404 36.2206C28.4919 36.3276 28.6025 36.4137 28.7277 36.4728C28.853 36.5319 28.9897 36.5626 29.1282 36.5625H30.872C31.0107 36.5626 31.1477 36.5318 31.2731 36.4725C31.3985 36.4132 31.5092 36.3268 31.5972 36.2196C31.6852 36.1123 31.7482 35.9868 31.7819 35.8523C31.8155 35.7177 31.8188 35.5773 31.7916 35.4413L31.1513 32.2397Z" fill="#0081EA"/>
</g>
<defs>
<clipPath id="clip0_3211_4882">
<rect width="60" height="60" fill="white"/>
</clipPath>
</defs>
</svg>
