<svg width="60" height="60" viewBox="0 0 60 60" fill="none" xmlns="http://www.w3.org/2000/svg">
<g clip-path="url(#clip0_3211_9009)">
<path d="M38.2587 47.2279L27.9032 42.5209C27.5774 42.3728 27.2142 42.3276 26.8622 42.3915C26.5101 42.4553 26.1859 42.6251 25.9329 42.8782L23.6487 45.1623C19.0628 44.9162 15.0843 40.9375 14.8378 36.3512L17.1219 34.0671C17.3749 33.8141 17.5447 33.4899 17.6085 33.1378C17.6724 32.7857 17.6273 32.4225 17.4792 32.0968L12.7721 21.7414C12.3836 20.8863 11.3912 20.4881 10.5191 20.8367L1.10496 24.6022C0.778668 24.7331 0.499043 24.9587 0.302108 25.2499C0.105174 25.5412 -4.7234e-05 25.8847 1.59063e-08 26.2362C1.59063e-08 44.877 15.1373 60 33.7656 60C34.1169 60 34.4601 59.8947 34.7511 59.6977C35.042 59.5008 35.2672 59.2212 35.3977 58.895L39.1632 49.481C39.5121 48.6089 39.1138 47.6165 38.2587 47.2279ZM28.5879 11.0469C27.7404 11.0469 27.0507 11.7365 27.0507 12.584V17.291C27.1283 19.3279 30.0482 19.3264 30.1249 17.291V12.584C30.125 11.7364 29.4355 11.0469 28.5879 11.0469ZM47.8867 11.0469H46.8203V15.0625H47.8867C50.5474 14.9612 50.5453 11.1472 47.8867 11.0469Z" fill="#0081EA"/>
<path d="M54.4766 0H10.2304C7.15016 0 4.70703 2.49996 4.70703 5.52352V19.3751L9.21348 17.5725C9.45055 17.4777 11.4916 16.6211 13.7223 17.8556L11.3671 9.78129C11.0953 8.8493 11.6305 7.87348 12.5625 7.60148C13.4942 7.33008 14.4703 7.8648 14.7421 8.7968L16.3496 14.308L17.9571 8.7968C18.2289 7.8648 19.2046 7.32984 20.1368 7.60148C21.0687 7.87336 21.6039 8.84918 21.3321 9.78129L18.0371 21.0782C17.9557 21.3566 17.8067 21.6106 17.6032 21.8174C17.3998 22.0243 17.1483 22.1775 16.8712 22.2635L20.3311 29.8751H54.4766C57.5571 29.8751 60 27.3749 60 24.3516V5.52352C60 2.43797 57.4947 0 54.4766 0ZM33.6406 17.291C33.3857 23.9868 23.7876 23.9816 23.5352 17.291V12.5841C23.7901 5.88832 33.3882 5.89348 33.6406 12.5841V17.291ZM40.2304 20.586C40.1439 22.9158 36.8005 22.914 36.7148 20.586V9.2891C36.8013 6.9593 40.1448 6.96105 40.2304 9.2891V20.586ZM47.8866 18.5781H46.8202V20.586C46.7337 22.9158 43.3903 22.914 43.3046 20.586V9.2891C43.3046 8.31832 44.0916 7.53129 45.0624 7.53129H47.8866C55.2059 7.80984 55.2005 18.3022 47.8866 18.5781Z" fill="#0081EA"/>
</g>
<defs>
<clipPath id="clip0_3211_9009">
<rect width="60" height="60" fill="white"/>
</clipPath>
</defs>
</svg>
