<svg width="60" height="60" viewBox="0 0 60 60" fill="none" xmlns="http://www.w3.org/2000/svg">
<path d="M19.1817 25.5447V28.9993C19.1817 29.9993 18.3635 30.8175 17.3635 30.8175H14.909C13.909 30.8175 13.0908 29.9993 13.0908 28.9993V25.5447C13.0908 24.5447 13.909 23.7266 14.909 23.7266H17.3635C18.3635 23.7266 19.1817 24.5447 19.1817 25.5447ZM22.0908 27.9084C22.6363 27.9084 22.9999 27.5447 22.9999 26.9993V24.6357C22.9999 24.0902 22.6363 23.7266 22.0908 23.7266C21.5454 23.7266 21.1817 24.0902 21.1817 24.6357V26.9993C21.1817 27.5447 21.5454 27.9084 22.0908 27.9084ZM25.8181 23.7266C25.2726 23.7266 24.909 24.0902 24.909 24.6357V26.9993C24.909 27.5447 25.2726 27.9084 25.8181 27.9084C26.3635 27.9084 26.7272 27.5447 26.7272 26.9993V24.6357C26.7272 24.0902 26.2726 23.7266 25.8181 23.7266ZM29.4545 27.9084C29.9999 27.9084 30.3636 27.5447 30.3636 26.9993V24.6357C30.3636 24.0902 29.9999 23.7266 29.4545 23.7266C28.909 23.7266 28.5454 24.0902 28.5454 24.6357V26.9993C28.5454 27.5447 28.9999 27.9084 29.4545 27.9084ZM34.0908 26.9993V24.6357C34.0908 24.0902 33.7272 23.7266 33.1817 23.7266C32.6363 23.7266 32.2726 24.0902 32.2726 24.6357V26.9993C32.2726 27.5447 32.6363 27.9084 33.1817 27.9084C33.7272 27.9084 34.0908 27.5447 34.0908 26.9993ZM36.909 23.7266C36.3635 23.7266 35.9999 24.0902 35.9999 24.6357V26.9993C35.9999 27.5447 36.3635 27.9084 36.909 27.9084C37.4545 27.9084 37.8181 27.5447 37.8181 26.9993V24.6357C37.8181 24.0902 37.3635 23.7266 36.909 23.7266ZM24.5454 28.9084H21.6363C21.0908 28.9084 20.7272 29.272 20.7272 29.8175C20.7272 30.3629 21.0908 30.7266 21.6363 30.7266H24.5454C25.0908 30.7266 25.4545 30.3629 25.4545 29.8175C25.4545 29.272 24.9999 28.9084 24.5454 28.9084ZM30.7272 28.9084H27.8181C27.2726 28.9084 26.909 29.272 26.909 29.8175C26.909 30.3629 27.2726 30.7266 27.8181 30.7266H30.7272C31.2726 30.7266 31.6363 30.3629 31.6363 29.8175C31.6363 29.272 31.1817 28.9084 30.7272 28.9084ZM36.909 28.9084H33.9999C33.4545 28.9084 33.0908 29.272 33.0908 29.8175C33.0908 30.3629 33.4545 30.7266 33.9999 30.7266H36.909C37.4545 30.7266 37.8181 30.3629 37.8181 29.8175C37.8181 29.272 37.3635 28.9084 36.909 28.9084ZM46.909 27.272C46.909 29.1811 45.3636 30.8175 43.3636 30.8175C41.4545 30.8175 39.8181 29.1811 39.8181 27.272C39.8181 25.272 41.4545 23.7266 43.3636 23.7266C45.3636 23.7266 46.909 25.272 46.909 27.272ZM22.0908 52.272C22.6363 52.272 22.9999 51.9084 22.9999 51.3629V48.9993C22.9999 48.4538 22.6363 48.0902 22.0908 48.0902C21.5454 48.0902 21.1817 48.4538 21.1817 48.9993V51.3629C21.1817 51.9084 21.5454 52.272 22.0908 52.272ZM25.8181 48.0902C25.2726 48.0902 24.909 48.4538 24.909 48.9993V51.3629C24.909 51.9084 25.2726 52.272 25.8181 52.272C26.3635 52.272 26.7272 51.9084 26.7272 51.3629V48.9993C26.7272 48.4538 26.2726 48.0902 25.8181 48.0902ZM29.4545 52.272C29.9999 52.272 30.3636 51.9084 30.3636 51.3629V48.9993C30.3636 48.4538 29.9999 48.0902 29.4545 48.0902C28.909 48.0902 28.5454 48.4538 28.5454 48.9993V51.3629C28.5454 51.9084 28.9999 52.272 29.4545 52.272ZM34.0908 51.3629V48.9993C34.0908 48.4538 33.7272 48.0902 33.1817 48.0902C32.6363 48.0902 32.2726 48.4538 32.2726 48.9993V51.3629C32.2726 51.9084 32.6363 52.272 33.1817 52.272C33.7272 52.272 34.0908 51.9084 34.0908 51.3629ZM36.909 48.0902C36.3635 48.0902 35.9999 48.4538 35.9999 48.9993V51.3629C35.9999 51.9084 36.3635 52.272 36.909 52.272C37.4545 52.272 37.8181 51.9084 37.8181 51.3629V48.9993C37.8181 48.4538 37.3635 48.0902 36.909 48.0902ZM24.5454 53.3629H21.6363C21.0908 53.3629 20.7272 53.7266 20.7272 54.272C20.7272 54.8175 21.0908 55.1811 21.6363 55.1811H24.5454C25.0908 55.1811 25.4545 54.8175 25.4545 54.272C25.4545 53.7266 24.9999 53.3629 24.5454 53.3629ZM30.7272 53.3629H27.8181C27.2726 53.3629 26.909 53.7266 26.909 54.272C26.909 54.8175 27.2726 55.1811 27.8181 55.1811H30.7272C31.2726 55.1811 31.6363 54.8175 31.6363 54.272C31.6363 53.7266 31.1817 53.3629 30.7272 53.3629ZM36.909 53.3629H33.9999C33.4545 53.3629 33.0908 53.7266 33.0908 54.272C33.0908 54.8175 33.4545 55.1811 33.9999 55.1811H36.909C37.4545 55.1811 37.8181 54.8175 37.8181 54.272C37.8181 53.7266 37.3635 53.3629 36.909 53.3629Z" fill="#0081EA"/>
<path d="M57.2725 17.4541C56.4544 16.6359 55.3635 16.0905 54.2725 15.8177C54.9089 11.7268 52.5453 7.63592 48.4544 6.36319C46.5453 5.72683 44.6362 5.81774 42.818 6.54501C40.9998 3.4541 37.6362 1.4541 33.9089 1.4541C30.9089 1.4541 27.9998 2.81774 26.0907 5.09047C23.4544 2.63592 19.9998 1.54501 16.3635 1.99956C10.1816 2.81774 5.63618 8.18137 5.63618 14.3632C2.45436 15.4541 0.454361 18.6359 0.908906 21.9996C1.27254 24.7268 3.18163 26.9996 5.72709 27.8177V29.0905C5.72709 30.4541 6.818 31.6359 8.27254 31.6359H9.09072C9.18163 32.2723 9.45436 32.8177 9.818 33.2723C9.36345 33.7268 9.09072 34.2723 9.09072 34.9086H8.36345C6.99982 34.9086 5.818 35.9996 5.818 37.4541V41.2723C5.818 42.6359 6.90891 43.8177 8.36345 43.8177H9.09072C9.18163 44.4541 9.45436 44.9996 9.818 45.4541C9.36345 45.9086 9.09072 46.4541 9.09072 47.0905H8.36345C6.99982 47.0905 5.818 48.1814 5.818 49.6359V53.4541C5.818 54.8177 6.90891 55.9996 8.36345 55.9996H9.09072C9.27254 57.4541 10.4544 58.545 11.9089 58.545H47.9998C49.4544 58.545 50.6362 57.4541 50.818 55.9996H51.818C53.0907 55.9996 54.1816 54.9086 54.1816 53.6359V49.545C54.1816 48.2723 53.0907 47.1814 51.818 47.1814H50.9089C50.818 46.545 50.5453 45.9996 50.1816 45.545C50.6362 45.0905 50.9089 44.545 50.9089 43.9086H51.818C53.0907 43.9086 54.1816 42.8177 54.1816 41.545V37.4541C54.1816 36.1814 53.0907 35.0905 51.818 35.0905H50.9089C50.818 34.4541 50.5453 33.9086 50.1816 33.4541C50.6362 32.9996 50.9089 32.4541 50.9089 31.8177H51.818C53.0907 31.8177 54.1816 30.7268 54.1816 29.4541V28.0905C56.9998 27.2723 59.0907 24.7268 59.0907 21.8177C59.0907 20.1814 58.4544 18.6359 57.2725 17.4541ZM9.09072 29.8177H8.36345C7.99982 29.8177 7.63618 29.4541 7.63618 29.0905V25.2723C7.63618 24.9086 7.99982 24.545 8.36345 24.545H9.09072V29.8177ZM9.09072 42.0905H8.36345C7.99982 42.0905 7.63618 41.7268 7.63618 41.3632V37.545C7.63618 37.1814 7.99982 36.8177 8.36345 36.8177H9.09072V42.0905ZM9.09072 54.2723H8.36345C7.99982 54.2723 7.63618 53.9087 7.63618 53.545V49.7268C7.63618 49.3632 7.99982 48.9996 8.36345 48.9996H9.09072V54.2723ZM49.0907 55.7268C49.0907 56.2723 48.6362 56.8177 47.9998 56.8177H11.9998C11.4544 56.8177 10.9998 56.3632 10.9998 55.7268V47.4541C10.9998 46.9086 11.4544 46.4541 11.9998 46.4541H48.0907C48.6362 46.4541 49.1816 46.9086 49.1816 47.4541V55.7268H49.0907ZM13.0907 41.0905V37.6359C13.0907 36.6359 13.9089 35.8177 14.9089 35.8177H17.3635C18.3635 35.8177 19.1816 36.6359 19.1816 37.6359V41.0905C19.1816 42.0905 18.3635 42.9086 17.3635 42.9086H14.9089C13.9089 42.9086 13.0907 42.0905 13.0907 41.0905ZM21.6362 41.0905H24.5453C25.0907 41.0905 25.4544 41.4541 25.4544 41.9996C25.4544 42.4541 25.0907 42.9086 24.5453 42.9086H21.6362C21.0907 42.9086 20.7271 42.4541 20.7271 41.9996C20.7271 41.545 21.0907 41.0905 21.6362 41.0905ZM21.1816 39.1814V36.8177C21.1816 36.2723 21.5453 35.9086 22.0907 35.9086C22.6362 35.9086 22.9998 36.2723 22.9998 36.8177V39.1814C22.9998 39.7268 22.6362 40.0905 22.0907 40.0905C21.5453 40.0905 21.1816 39.7268 21.1816 39.1814ZM24.9089 39.1814V36.8177C24.9089 36.2723 25.2725 35.9086 25.818 35.9086C26.2725 35.9086 26.7271 36.2723 26.7271 36.8177V39.1814C26.7271 39.7268 26.2725 40.0905 25.818 40.0905C25.2725 40.0905 24.9089 39.7268 24.9089 39.1814ZM30.7271 41.0905C31.2725 41.0905 31.6362 41.4541 31.6362 41.9996C31.6362 42.4541 31.2725 42.9086 30.7271 42.9086H27.818C27.2725 42.9086 26.9089 42.4541 26.9089 41.9996C26.9089 41.4541 27.2725 41.0905 27.818 41.0905H30.7271ZM28.5453 39.1814V36.8177C28.5453 36.2723 28.9089 35.9086 29.4544 35.9086C29.9089 35.9086 30.3635 36.2723 30.3635 36.8177V39.1814C30.3635 39.7268 29.9089 40.0905 29.4544 40.0905C28.9998 40.0905 28.5453 39.7268 28.5453 39.1814ZM36.9089 41.0905C37.4544 41.0905 37.818 41.4541 37.818 41.9996C37.818 42.4541 37.4544 42.9086 36.9089 42.9086H33.9998C33.4544 42.9086 33.0907 42.4541 33.0907 41.9996C33.0907 41.4541 33.4544 41.0905 33.9998 41.0905H36.9089ZM35.9998 39.1814V36.8177C35.9998 36.2723 36.4544 35.9086 36.9089 35.9086C37.4544 35.9086 37.818 36.2723 37.818 36.8177V39.1814C37.818 39.7268 37.4544 40.0905 36.9089 40.0905C36.3635 40.0905 35.9998 39.7268 35.9998 39.1814ZM34.0907 39.1814C34.0907 39.7268 33.7271 40.0905 33.1816 40.0905C32.7271 40.0905 32.2725 39.7268 32.2725 39.1814V36.8177C32.2725 36.2723 32.7271 35.9086 33.1816 35.9086C33.7271 35.9086 34.0907 36.2723 34.0907 36.8177V39.1814ZM39.818 39.4541C39.818 37.4541 41.4544 35.9086 43.3635 35.9086C45.3635 35.9086 46.9089 37.4541 46.9089 39.4541C46.9089 41.3632 45.3635 42.9996 43.3635 42.9996C41.4544 42.9086 39.818 41.3632 39.818 39.4541ZM49.0907 31.3632C49.0907 31.9086 48.6362 32.4541 47.9998 32.4541H11.9998C11.4544 32.4541 10.9998 31.9996 10.9998 31.3632V23.0905C10.9998 22.545 11.4544 21.9996 11.9998 21.9996H48.0907C48.6362 21.9996 49.1816 22.4541 49.1816 23.0905V31.3632H49.0907ZM50.9089 48.9996H51.818C52.0907 48.9996 52.3635 49.2723 52.3635 49.545V53.6359C52.3635 53.9086 52.0907 54.1814 51.818 54.1814H50.9089V48.9996ZM50.9089 36.8177H51.818C52.0907 36.8177 52.3635 37.0905 52.3635 37.3632V41.4541C52.3635 41.7268 52.0907 41.9996 51.818 41.9996H50.9089V36.8177ZM52.3635 29.2723C52.3635 29.545 52.0907 29.8177 51.818 29.8177H50.9089V24.545H51.818C52.0907 24.545 52.3635 24.8177 52.3635 25.0905V29.2723Z" fill="#0081EA"/>
<path d="M19.1817 49.909V53.3635C19.1817 54.3635 18.3635 55.1817 17.3635 55.1817H14.909C13.909 55.1817 13.0908 54.3635 13.0908 53.3635V49.909C13.0908 48.909 13.909 48.0908 14.909 48.0908H17.3635C18.3635 48.0908 19.1817 48.909 19.1817 49.909ZM46.909 51.6363C46.909 53.5454 45.3636 55.1817 43.3636 55.1817C41.4545 55.1817 39.8181 53.5454 39.8181 51.6363C39.8181 49.6363 41.4545 48.0908 43.3636 48.0908C45.3636 48.0908 46.909 49.6363 46.909 51.6363Z" fill="#0081EA"/>
</svg>
