<svg width="60" height="60" viewBox="0 0 60 60" fill="none" xmlns="http://www.w3.org/2000/svg">
<g clip-path="url(#clip0_3211_10133)">
<path d="M30 11.0293C33.0456 11.0293 35.5235 8.55153 35.5235 5.50595C35.2458 -1.81159 24.7532 -1.8096 24.4766 5.50606C24.4766 8.55153 26.9544 11.0293 30 11.0293ZM23.004 11.2222C22.2174 10.2616 21.6375 9.14892 21.3006 7.95388L10.1939 19.0606H15.1657L23.004 11.2222ZM49.8062 19.0606L38.6995 7.95388C38.3626 9.14891 37.7827 10.2616 36.9961 11.2222L44.8344 19.0607H49.8062V19.0606ZM54.4765 22.5762H5.5234C2.43703 22.5762 0 25.0828 0 28.0996V54.459C0 57.5385 2.49902 59.9824 5.5234 59.9824H54.4765C57.563 59.9824 60 57.4758 60 54.459V28.0996C60 25.0132 57.4934 22.5762 54.4765 22.5762ZM16.6954 41.2793C16.6954 42.2501 15.9083 43.0371 14.9375 43.0371H11.0469V47.0528H14.9375C17.2673 47.1393 17.2656 50.4827 14.9375 50.5684H9.2891C8.31832 50.5684 7.53129 49.7814 7.53129 48.8106V41.2793C7.53129 40.3085 8.31832 39.5215 9.2891 39.5215H13.1797V35.5058H9.2891C6.9593 35.4193 6.96105 32.0759 9.2891 31.9902H14.9375C15.9083 31.9902 16.6954 32.7772 16.6954 33.748V41.2793ZM29.875 48.8106C29.7885 51.1404 26.445 51.1386 26.3593 48.8106V46.8028H20.5859C20.2862 46.8028 19.9916 46.7262 19.7299 46.5803C19.4681 46.4344 19.2481 46.2241 19.0905 45.9692C18.933 45.7143 18.8432 45.4234 18.8298 45.1241C18.8163 44.8247 18.8796 44.5269 19.0136 44.2589L24.662 32.962C24.808 32.67 25.0324 32.4245 25.3101 32.2528C25.5878 32.0812 25.9078 31.9903 26.2343 31.9903H28.117C29.0878 31.9903 29.8748 32.7774 29.8748 33.7481L29.875 48.8106ZM39.2365 34.1745L35.4709 49.2369C34.8073 51.4975 31.5716 50.6359 32.0603 48.3843L35.8259 33.3218C36.0613 32.38 37.0167 31.8079 37.9574 32.0428C38.8993 32.2781 39.472 33.2326 39.2365 34.1745ZM52.2831 34.5341L44.7518 49.5966C43.6315 51.6429 40.6427 50.1431 41.6074 48.0244L47.8666 35.5058H43.1796C40.8498 35.4193 40.8516 32.0759 43.1796 31.9902H50.7109C51.0105 31.9902 51.3052 32.0668 51.5669 32.2127C51.8286 32.3587 52.0487 32.569 52.2062 32.8239C52.3638 33.0787 52.4535 33.3697 52.467 33.669C52.4805 33.9683 52.4171 34.2661 52.2831 34.5341Z" fill="#0081EA"/>
<path d="M26.3589 43.287V37.4287L23.4297 43.287H26.3589Z" fill="#0081EA"/>
</g>
<defs>
<clipPath id="clip0_3211_10133">
<rect width="60" height="60" fill="white"/>
</clipPath>
</defs>
</svg>
