<svg width="60" height="60" viewBox="0 0 60 60" fill="none" xmlns="http://www.w3.org/2000/svg">
<g clip-path="url(#clip0_3211_9038)">
<path d="M9.35052 8.18991C9.3296 8.16396 9.30342 8.14273 9.27371 8.12763C9.24399 8.11253 9.21141 8.10389 9.17812 8.1023C9.14482 8.10071 9.11157 8.10618 9.08054 8.11838C9.04952 8.13057 9.02143 8.1492 8.99813 8.17304C8.06497 9.11956 3.97971 13.5339 4.31322 17.957C4.50869 21.6252 7.19825 23.8426 7.34814 23.9636C7.46532 24.0581 11.4145 28.2832 25.5822 35.3382C25.6189 35.3462 25.7524 35.3922 25.8304 35.2952C25.8304 35.2952 25.9402 35.2077 25.8829 35.0686C19.3721 20.8459 10.6506 9.80112 9.35052 8.18991ZM24.1188 39.102C24.0728 38.9444 23.8801 38.9444 23.8801 38.9444V38.9349L5.82927 39.5654C5.64857 39.5717 5.54193 39.7695 5.63427 39.9249C7.65458 43.3245 10.9208 45.8891 14.3121 45.0602C16.7357 44.4612 22.2218 40.6307 24.032 39.3341H24.0272C24.1642 39.2021 24.1188 39.102 24.1188 39.102ZM24.3287 37.1754C16.8305 32.1159 2.82928 24.5546 0.780025 23.4536C0.648658 23.383 0.484361 23.4497 0.442291 23.5928C-0.820636 27.8839 1.02249 31.299 1.02249 31.299C3.02229 35.5274 6.83954 36.8095 6.83954 36.8095C8.60907 37.5318 10.3727 37.5794 10.3727 37.5794C10.6471 37.6303 21.3397 37.5874 24.2065 37.573C24.3287 37.5699 24.3916 37.4515 24.3916 37.4515C24.4848 37.3044 24.3287 37.1754 24.3287 37.1754ZM22.652 0.585866C17.7602 1.85559 15.0786 6.81683 16.6357 12.1286C16.6369 12.1324 16.6377 12.136 16.6386 12.1399C18.2709 19.3725 26.2875 31.2519 28.0115 33.744C28.1315 33.8666 28.2295 33.8147 28.2295 33.8147C28.414 33.7678 28.3997 33.5874 28.3997 33.5874L28.4038 33.5898C30.8621 9.0121 26.3772 1.1629 25.7024 0.138796C25.6783 0.102139 25.6443 0.0729838 25.6045 0.0546491C25.5646 0.0363144 25.5204 0.0295362 25.4769 0.0350856C24.5884 0.148406 22.652 0.585866 22.652 0.585866ZM43.3938 6.28785C43.3925 6.28437 43.3914 6.28085 43.3904 6.2773C43.3455 6.11593 42.0938 1.76172 37.2929 0.593131C37.2929 0.593131 35.9746 0.259616 34.5363 0.0407106C33.9419 -0.0497579 29.0649 8.48956 31.5843 33.6098C31.6068 33.7744 31.7261 33.8127 31.7261 33.8127C31.9034 33.884 31.9917 33.7121 31.9917 33.7121L31.9927 33.7147C33.7664 31.1543 41.7387 19.3315 43.3612 12.1339C43.3612 12.1337 44.2394 8.65011 43.3938 6.28785ZM36.0911 38.9509C36.0911 38.9509 36.0791 38.9525 36.0605 38.9574C35.9226 38.9935 35.8414 39.1484 35.9035 39.2768C35.9148 39.3 35.9307 39.322 35.953 39.3405V39.3429C37.7171 40.6094 43.0719 44.3531 45.6503 45.0772C45.6503 45.0772 50.2625 46.6491 54.3521 39.9324C54.4464 39.7774 54.3395 39.5774 54.1581 39.571L36.0925 38.9475L36.0911 38.9509ZM59.558 23.5605C59.5146 23.4157 59.3514 23.3452 59.2183 23.417C57.1744 24.5198 43.1867 32.1056 35.6872 37.1595V37.1628C35.4833 37.2993 35.6094 37.5699 35.7795 37.5699C38.6825 37.5764 49.6721 37.5907 49.9465 37.5431C49.9465 37.5431 51.363 37.4793 53.1193 36.8095C53.1193 36.8095 57.028 35.5671 59.0594 31.1273C59.0594 31.1273 60.7883 27.6682 59.558 23.5605ZM55.682 17.9329C55.971 13.3592 51.9265 9.08487 50.9986 8.16788C50.9752 8.14455 50.9471 8.12641 50.9162 8.11463C50.8853 8.10286 50.8523 8.09771 50.8193 8.09952C50.7863 8.10133 50.754 8.11006 50.7246 8.12515C50.6951 8.14024 50.6692 8.16135 50.6485 8.1871C49.3582 9.78553 40.6562 20.8001 34.1489 34.996H34.1519C34.048 35.2199 34.2791 35.4159 34.4512 35.3167C48.0414 28.5532 51.9695 24.5221 52.6492 23.964C52.7912 23.8474 55.5287 21.5545 55.682 17.9329Z" fill="#0081EA"/>
<path d="M25.363 33.9499C13.2679 27.6174 10.2867 24.3195 9.8434 23.9634C9.69352 23.8424 7.00396 21.625 6.80849 17.9568C6.55701 14.6228 8.81602 11.2945 10.3434 9.45194C10.0171 9.02767 9.68611 8.60694 9.35063 8.18983C9.32973 8.16388 9.30356 8.14265 9.27385 8.12755C9.24415 8.11245 9.21158 8.10382 9.17829 8.10222C9.14501 8.10063 9.11176 8.10611 9.08075 8.1183C9.04973 8.13049 9.02166 8.14912 8.99837 8.17296C8.06521 9.11948 3.97994 13.5338 4.31346 17.9569C4.50892 21.6251 7.19849 23.8425 7.34837 23.9635C7.46591 24.0585 11.421 28.2863 25.5825 35.3381C25.6192 35.3461 25.7526 35.3922 25.8307 35.2951C25.8307 35.2951 25.9404 35.2076 25.8831 35.0685C25.7117 34.6947 25.5384 34.3218 25.363 33.9499ZM12.8678 37.5795C12.8678 37.5795 11.1041 37.5319 9.33458 36.8095C9.33458 36.8095 5.51744 35.5274 3.51764 31.299C3.51764 31.299 1.93092 28.3552 2.71361 24.5002C2.06999 24.1496 1.42546 23.8008 0.780025 23.4536C0.648658 23.383 0.484361 23.4497 0.442291 23.5928C-0.820636 27.884 1.02249 31.299 1.02249 31.299C3.02229 35.5274 6.83943 36.8095 6.83943 36.8095C8.60895 37.5319 10.3726 37.5795 10.3726 37.5795C10.4912 37.6015 12.5595 37.6059 15.1001 37.6028C13.8169 37.6004 12.9437 37.5935 12.8678 37.5795ZM28.6446 30.9689C25.6268 26.3521 20.4146 17.8157 19.1338 12.1401C19.1329 12.1363 19.1319 12.1325 19.1308 12.1287C17.5738 6.81698 20.2554 1.85562 25.1471 0.5859C25.1471 0.5859 25.4537 0.516642 25.8784 0.426174C25.8226 0.328634 25.7639 0.232771 25.7024 0.138713C25.6783 0.102047 25.6444 0.0728921 25.6045 0.054575C25.5646 0.0362578 25.5204 0.0295163 25.4769 0.0351198C24.5883 0.14844 22.652 0.5859 22.652 0.5859C17.7602 1.85562 15.0786 6.81686 16.6357 12.1286C16.6369 12.1325 16.6377 12.136 16.6386 12.14C18.2709 19.3725 26.2875 31.2519 28.0115 33.744C28.1315 33.8666 28.2295 33.8147 28.2295 33.8147C28.414 33.7678 28.3997 33.5875 28.3997 33.5875L28.4038 33.5898C28.4934 32.6932 28.5729 31.8215 28.6446 30.9689ZM36.6243 0.436486C36.1047 0.320822 35.3394 0.162854 34.5363 0.0407448C33.9419 -0.0497238 29.0649 8.4896 31.5843 33.6099C31.6068 33.7744 31.7261 33.8128 31.7261 33.8128C31.9034 33.8842 31.9917 33.7123 31.9917 33.7123L31.9927 33.7149C32.3687 33.1722 33.0237 32.2122 33.8371 30.9695C32.1591 10.915 35.3759 2.29426 36.6243 0.436486ZM38.5543 39.0325L36.0926 38.9475L36.0911 38.9508C36.0911 38.9508 36.0791 38.9524 36.0605 38.9573C35.9226 38.9934 35.8414 39.1484 35.9035 39.2768C35.9148 39.3 35.9307 39.322 35.953 39.3406V39.3429C37.7171 40.6095 43.0719 44.3531 45.6504 45.0772C45.6504 45.0772 46.8452 45.4837 48.5572 44.9984C45.7857 44.1029 40.4742 40.4071 38.5543 39.0325ZM59.9454 25.5314C59.8797 24.8636 59.75 24.2036 59.558 23.5606C59.5146 23.4157 59.3514 23.3452 59.2183 23.417C57.1744 24.5199 43.1867 32.1056 35.6872 37.1596V37.1629C35.4833 37.2994 35.6093 37.57 35.7795 37.57C36.5437 37.5716 37.8685 37.5738 39.4105 37.5754C45.5579 33.5606 54.6858 28.4296 59.9454 25.5314ZM52.161 9.43565C51.6565 8.83541 51.2304 8.39702 50.9986 8.16803C50.9752 8.1447 50.9471 8.12656 50.9162 8.11479C50.8853 8.10301 50.8523 8.09786 50.8193 8.09967C50.7863 8.10148 50.754 8.11022 50.7246 8.1253C50.6951 8.14039 50.6692 8.1615 50.6485 8.18725C49.3582 9.78569 40.6562 20.8002 34.1489 34.9962H34.1519C34.048 35.22 34.2791 35.4161 34.4512 35.3168C35.3473 34.871 36.2396 34.4173 37.1279 33.956C42.6284 22.2748 49.4846 12.9038 52.161 9.43565Z" fill="#0081EA"/>
<path d="M6.97686 54.1152H2.31293C2.28222 54.1152 2.25277 54.103 2.23106 54.0813C2.20934 54.0596 2.19714 54.0301 2.19714 53.9994V50.322C2.19714 50.2912 2.18495 50.2618 2.16323 50.2401C2.14152 50.2184 2.11207 50.2062 2.08136 50.2062H0.115781C0.085074 50.2062 0.0556246 50.2184 0.0339115 50.2401C0.0121983 50.2618 0 50.2912 0 50.322L0 59.7478C0 59.8118 0.0517968 59.8636 0.115781 59.8636H2.08125C2.11195 59.8636 2.1414 59.8514 2.16312 59.8297C2.18483 59.8079 2.19703 59.7785 2.19703 59.7478V55.9493C2.19703 55.8853 2.24882 55.8335 2.31281 55.8335H6.97674C7.04073 55.8335 7.09253 55.8853 7.09253 55.9493V59.7478C7.09253 59.8118 7.14432 59.8636 7.20831 59.8636H9.18022C9.21092 59.8636 9.24037 59.8514 9.26209 59.8297C9.2838 59.8079 9.296 59.7785 9.296 59.7478V50.322C9.296 50.2912 9.2838 50.2618 9.26209 50.2401C9.24037 50.2184 9.21092 50.2062 9.18022 50.2062H7.20842C7.17772 50.2062 7.14827 50.2184 7.12655 50.2401C7.10484 50.2618 7.09264 50.2912 7.09264 50.322V53.9994C7.09264 54.0301 7.08044 54.0596 7.05873 54.0813C7.03702 54.103 7.00757 54.1152 6.97686 54.1152ZM17.9833 55.9942C17.9833 57.6982 17.4616 58.4078 15.6411 58.4078C13.8212 58.4078 13.2833 57.6982 13.2833 55.9942V50.3227C13.2833 50.2919 13.2711 50.2625 13.2494 50.2408C13.2277 50.2191 13.1982 50.2069 13.1675 50.2069H11.2163C11.1856 50.2069 11.1562 50.2191 11.1345 50.2408C11.1128 50.2625 11.1006 50.2919 11.1006 50.3227V56.0435C11.1006 57.2685 11.2149 58.1183 11.6955 58.6367C12.5499 59.5851 13.8212 59.9668 15.6412 59.9668C17.4617 59.9668 18.7088 59.585 19.5697 58.6367C20.0375 58.1293 20.1835 57.2782 20.1835 56.0435V50.3227C20.1835 50.2919 20.1713 50.2625 20.1496 50.2408C20.1279 50.2191 20.0984 50.2069 20.0677 50.2069H18.0992C18.0685 50.2069 18.0391 50.2191 18.0174 50.2408C17.9956 50.2625 17.9834 50.2919 17.9834 50.3227L17.9833 55.9942ZM25.0069 50.2737L20.6868 59.6995C20.6517 59.7763 20.7077 59.8636 20.7921 59.8636H22.8619C22.885 59.8636 22.9075 59.8567 22.9267 59.8438C22.9458 59.8309 22.9606 59.8126 22.9693 59.7913L23.8421 57.6369C23.8508 57.6155 23.8656 57.5972 23.8847 57.5843C23.9039 57.5715 23.9264 57.5646 23.9494 57.5646H28.3337C28.3803 57.5646 28.4225 57.5926 28.4405 57.6357L29.3437 59.7926C29.3525 59.8136 29.3674 59.8316 29.3864 59.8443C29.4054 59.8569 29.4277 59.8637 29.4506 59.8637H31.641C31.6605 59.8637 31.6796 59.8588 31.6966 59.8495C31.7137 59.8401 31.7281 59.8267 31.7385 59.8103C31.749 59.7939 31.7552 59.7752 31.7565 59.7558C31.7579 59.7364 31.7543 59.717 31.7461 59.6994L27.3996 50.2736C27.3903 50.2535 27.3755 50.2365 27.3568 50.2245C27.3382 50.2126 27.3166 50.2063 27.2944 50.2063H25.1122C25.09 50.2062 25.0683 50.2125 25.0496 50.2245C25.0309 50.2364 25.0161 50.2535 25.0069 50.2737ZM24.6505 55.6832L26.0097 52.3905C26.0489 52.2957 26.1829 52.2948 26.2232 52.3893L27.6306 55.6819C27.6382 55.6995 27.6412 55.7187 27.6395 55.7378C27.6377 55.7568 27.6313 55.7752 27.6208 55.7912C27.6102 55.8072 27.5959 55.8203 27.579 55.8294C27.5621 55.8385 27.5433 55.8432 27.5241 55.8432H24.7575C24.7384 55.8432 24.7197 55.8385 24.7029 55.8295C24.6861 55.8205 24.6718 55.8076 24.6612 55.7917C24.6507 55.7759 24.6442 55.7577 24.6423 55.7388C24.6404 55.7199 24.6432 55.7007 24.6505 55.6832ZM42.0973 57.2748L39.8934 50.287C39.8859 50.2635 39.8712 50.243 39.8513 50.2285C39.8315 50.2139 39.8075 50.2061 39.7828 50.2061H37.3628C37.3374 50.2061 37.3128 50.2144 37.2926 50.2298C37.2724 50.2452 37.2579 50.2668 37.2511 50.2912L35.3399 57.259C35.3096 57.3698 35.1537 57.3735 35.1181 57.2642L32.8441 50.286C32.8365 50.2627 32.8217 50.2425 32.802 50.2281C32.7822 50.2138 32.7584 50.2061 32.7339 50.2061H30.6234C30.6048 50.2061 30.5865 50.2105 30.57 50.2191C30.5535 50.2277 30.5393 50.2401 30.5286 50.2553C30.5179 50.2705 30.511 50.2881 30.5086 50.3065C30.5061 50.325 30.5081 50.3437 30.5144 50.3612L33.9136 59.7871C33.9217 59.8095 33.9365 59.8289 33.956 59.8425C33.9755 59.8562 33.9988 59.8636 34.0226 59.8636H36.5303C36.5558 59.8636 36.5805 59.8552 36.6007 59.8398C36.6209 59.8243 36.6355 59.8026 36.6421 59.778L38.4636 53.0394C38.4938 52.9274 38.6518 52.9246 38.686 53.0354L40.7703 59.782C40.7776 59.8057 40.7923 59.8263 40.8122 59.841C40.8321 59.8557 40.8562 59.8637 40.8809 59.8637H43.409C43.4333 59.8637 43.4569 59.8561 43.4767 59.8419C43.4964 59.8277 43.5111 59.8076 43.5188 59.7846L46.6685 50.3587C46.6744 50.3413 46.6759 50.3228 46.6732 50.3047C46.6704 50.2865 46.6634 50.2693 46.6527 50.2544C46.6419 50.2395 46.6278 50.2274 46.6115 50.219C46.5952 50.2107 46.5771 50.2063 46.5587 50.2063H44.5535C44.5287 50.2063 44.5045 50.2143 44.4846 50.2291C44.4646 50.2439 44.4499 50.2647 44.4427 50.2884L42.3187 57.2739C42.2854 57.3825 42.1315 57.3833 42.0973 57.2748ZM47.1928 55.2114C47.1928 56.9599 47.7164 58.2263 48.7935 59.0155C49.8117 59.7663 50.7877 59.8636 52.0536 59.8636H55.6497C55.6804 59.8636 55.7098 59.8514 55.7315 59.8297C55.7532 59.8079 55.7654 59.7785 55.7654 59.7478V58.2992C55.7654 58.2685 55.7532 58.2391 55.7315 58.2174C55.7098 58.1957 55.6804 58.1835 55.6497 58.1835H52.157C50.4676 58.1835 49.7179 57.5763 49.6702 55.9351C49.6698 55.9196 49.6726 55.9042 49.6783 55.8898C49.684 55.8754 49.6925 55.8623 49.7033 55.8512C49.7141 55.8401 49.7271 55.8313 49.7413 55.8253C49.7556 55.8193 49.7709 55.8162 49.7864 55.8162H55.6497C55.6804 55.8162 55.7098 55.804 55.7315 55.7822C55.7532 55.7605 55.7654 55.7311 55.7654 55.7004V54.2471C55.7654 54.2164 55.7532 54.187 55.7315 54.1653C55.7098 54.1436 55.6804 54.1314 55.6497 54.1314H49.808C49.792 54.1314 49.7761 54.128 49.7614 54.1216C49.7467 54.1152 49.7335 54.1058 49.7226 54.094C49.7117 54.0822 49.7034 54.0683 49.6981 54.0532C49.6929 54.038 49.6908 54.022 49.6921 54.006C49.8188 52.5764 50.6137 51.891 52.157 51.891H55.6497C55.6804 51.891 55.7098 51.8788 55.7315 51.8571C55.7532 51.8353 55.7654 51.8059 55.7654 51.7752V50.322C55.7654 50.2912 55.7532 50.2618 55.7315 50.2401C55.7098 50.2184 55.6804 50.2062 55.6497 50.2062H52.1118C48.7497 50.2061 47.1928 51.7987 47.1928 55.2114ZM57.7048 50.3218V59.747C57.7048 59.811 57.7566 59.8628 57.8206 59.8628H59.8841C59.9148 59.8628 59.9443 59.8506 59.966 59.8288C59.9877 59.8071 59.9999 59.7777 59.9999 59.747V50.3218C59.9999 50.2911 59.9877 50.2617 59.966 50.24C59.9443 50.2183 59.9148 50.2061 59.8841 50.2061H57.8206C57.7898 50.2061 57.7604 50.2183 57.7387 50.24C57.717 50.2617 57.7048 50.2911 57.7048 50.3218Z" fill="#0081EA"/>
<path d="M8.36373 40.3055H8.36326C8.35705 40.2957 8.25146 40.1559 8.15771 39.9715C8.14846 39.9559 8.13885 39.9405 8.12959 39.9251C8.11656 39.9026 8.10733 39.8781 8.10229 39.8527C8.0526 39.7351 8.01545 39.6083 8.01264 39.4893L5.82944 39.5655C5.64874 39.5719 5.5421 39.7697 5.63456 39.9251C7.64315 43.3049 10.8831 45.8578 14.2531 45.073C11.9524 44.5517 9.8574 42.6618 8.36373 40.3055Z" fill="#0081EA"/>
</g>
<defs>
<clipPath id="clip0_3211_9038">
<rect width="60" height="60" fill="white"/>
</clipPath>
</defs>
</svg>
