<svg width="60" height="60" viewBox="0 0 60 60" fill="none" xmlns="http://www.w3.org/2000/svg">
<path fill-rule="evenodd" clip-rule="evenodd" d="M56.875 7.5C56.875 6.34 56.415 5.2275 55.5925 4.4075C55.1868 4.00073 54.7048 3.67806 54.1741 3.45798C53.6434 3.2379 53.0745 3.12474 52.5 3.125H7.5C6.34 3.125 5.2275 3.585 4.4075 4.4075C4.00073 4.81321 3.67806 5.29522 3.45798 5.82591C3.2379 6.35659 3.12474 6.92549 3.125 7.5V15C3.125 16.16 3.585 17.2725 4.4075 18.0925C5.2275 18.915 6.34 19.375 7.5 19.375H52.5C53.66 19.375 54.7725 18.915 55.5925 18.0925C56.415 17.2725 56.875 16.16 56.875 15V7.5ZM13.75 8.75C14.413 8.75 15.0489 9.01339 15.5178 9.48223C15.9866 9.95107 16.25 10.587 16.25 11.25C16.25 11.913 15.9866 12.5489 15.5178 13.0178C15.0489 13.4866 14.413 13.75 13.75 13.75C13.087 13.75 12.4511 13.4866 11.9822 13.0178C11.5134 12.5489 11.25 11.913 11.25 11.25C11.25 10.587 11.5134 9.95107 11.9822 9.48223C12.4511 9.01339 13.087 8.75 13.75 8.75ZM22.5 8.75C23.163 8.75 23.7989 9.01339 24.2678 9.48223C24.7366 9.95107 25 10.587 25 11.25C25 11.913 24.7366 12.5489 24.2678 13.0178C23.7989 13.4866 23.163 13.75 22.5 13.75C21.837 13.75 21.2011 13.4866 20.7322 13.0178C20.2634 12.5489 20 11.913 20 11.25C20 10.587 20.2634 9.95107 20.7322 9.48223C21.2011 9.01339 21.837 8.75 22.5 8.75ZM48.75 9.375H41.25C40.7527 9.375 40.2758 9.57254 39.9242 9.92418C39.5725 10.2758 39.375 10.7527 39.375 11.25C39.375 11.7473 39.5725 12.2242 39.9242 12.5758C40.2758 12.9275 40.7527 13.125 41.25 13.125H48.75C49.2473 13.125 49.7242 12.9275 50.0758 12.5758C50.4275 12.2242 50.625 11.7473 50.625 11.25C50.625 10.7527 50.4275 10.2758 50.0758 9.92418C49.7242 9.57254 49.2473 9.375 48.75 9.375ZM56.875 26.25C56.875 25.09 56.415 23.9775 55.5925 23.1575C55.1868 22.7507 54.7048 22.4281 54.1741 22.208C53.6434 21.9879 53.0745 21.8747 52.5 21.875H7.5C6.34 21.875 5.2275 22.335 4.4075 23.1575C4.00073 23.5632 3.67806 24.0452 3.45798 24.5759C3.2379 25.1066 3.12474 25.6755 3.125 26.25V33.75C3.125 34.91 3.585 36.0225 4.4075 36.8425C5.2275 37.665 6.34 38.125 7.5 38.125H52.5C53.66 38.125 54.7725 37.665 55.5925 36.8425C56.415 36.0225 56.875 34.91 56.875 33.75V26.25ZM13.75 27.5C14.413 27.5 15.0489 27.7634 15.5178 28.2322C15.9866 28.7011 16.25 29.337 16.25 30C16.25 30.663 15.9866 31.2989 15.5178 31.7678C15.0489 32.2366 14.413 32.5 13.75 32.5C13.087 32.5 12.4511 32.2366 11.9822 31.7678C11.5134 31.2989 11.25 30.663 11.25 30C11.25 29.337 11.5134 28.7011 11.9822 28.2322C12.4511 27.7634 13.087 27.5 13.75 27.5ZM22.5 27.5C23.163 27.5 23.7989 27.7634 24.2678 28.2322C24.7366 28.7011 25 29.337 25 30C25 30.663 24.7366 31.2989 24.2678 31.7678C23.7989 32.2366 23.163 32.5 22.5 32.5C21.837 32.5 21.2011 32.2366 20.7322 31.7678C20.2634 31.2989 20 30.663 20 30C20 29.337 20.2634 28.7011 20.7322 28.2322C21.2011 27.7634 21.837 27.5 22.5 27.5ZM48.75 28.125H41.25C40.7527 28.125 40.2758 28.3225 39.9242 28.6742C39.5725 29.0258 39.375 29.5027 39.375 30C39.375 30.4973 39.5725 30.9742 39.9242 31.3258C40.2758 31.6775 40.7527 31.875 41.25 31.875H48.75C49.2473 31.875 49.7242 31.6775 50.0758 31.3258C50.4275 30.9742 50.625 30.4973 50.625 30C50.625 29.5027 50.4275 29.0258 50.0758 28.6742C49.7242 28.3225 49.2473 28.125 48.75 28.125ZM56.875 45C56.875 43.84 56.415 42.7275 55.5925 41.9075C55.1868 41.5007 54.7048 41.1781 54.1741 40.958C53.6434 40.7379 53.0745 40.6247 52.5 40.625H7.5C6.34 40.625 5.2275 41.085 4.4075 41.9075C4.00073 42.3132 3.67806 42.7952 3.45798 43.3259C3.2379 43.8566 3.12474 44.4255 3.125 45V52.5C3.125 53.66 3.585 54.7725 4.4075 55.5925C5.2275 56.415 6.34 56.875 7.5 56.875H52.5C53.66 56.875 54.7725 56.415 55.5925 55.5925C56.415 54.7725 56.875 53.66 56.875 52.5V45ZM13.75 46.25C14.413 46.25 15.0489 46.5134 15.5178 46.9822C15.9866 47.4511 16.25 48.087 16.25 48.75C16.25 49.413 15.9866 50.0489 15.5178 50.5178C15.0489 50.9866 14.413 51.25 13.75 51.25C13.087 51.25 12.4511 50.9866 11.9822 50.5178C11.5134 50.0489 11.25 49.413 11.25 48.75C11.25 48.087 11.5134 47.4511 11.9822 46.9822C12.4511 46.5134 13.087 46.25 13.75 46.25ZM22.5 46.25C23.163 46.25 23.7989 46.5134 24.2678 46.9822C24.7366 47.4511 25 48.087 25 48.75C25 49.413 24.7366 50.0489 24.2678 50.5178C23.7989 50.9866 23.163 51.25 22.5 51.25C21.837 51.25 21.2011 50.9866 20.7322 50.5178C20.2634 50.0489 20 49.413 20 48.75C20 48.087 20.2634 47.4511 20.7322 46.9822C21.2011 46.5134 21.837 46.25 22.5 46.25ZM48.75 46.875H41.25C40.7527 46.875 40.2758 47.0725 39.9242 47.4242C39.5725 47.7758 39.375 48.2527 39.375 48.75C39.375 49.2473 39.5725 49.7242 39.9242 50.0758C40.2758 50.4275 40.7527 50.625 41.25 50.625H48.75C49.2473 50.625 49.7242 50.4275 50.0758 50.0758C50.4275 49.7242 50.625 49.2473 50.625 48.75C50.625 48.2527 50.4275 47.7758 50.0758 47.4242C49.7242 47.0725 49.2473 46.875 48.75 46.875Z" fill="#0081EA"/>
</svg>
