<svg width="61" height="30" viewBox="0 0 61 30" fill="none" xmlns="http://www.w3.org/2000/svg">
<g clip-path="url(#clip0_3211_9475)">
<path d="M60.7493 0H0.75V29.67H31.0793" fill="#0081EA"/>
<path d="M30.4208 5.93417V19.912L25.278 5.93417H20.1352L15.7836 17.5384C15.2561 14.6374 12.2232 13.5824 9.84959 12.7912C8.26719 12.2638 6.55293 11.6044 6.55293 10.6814C6.55293 10.022 7.47599 9.36271 9.19026 9.49457C10.3771 9.62644 11.432 9.62644 13.5419 10.6814L15.6517 7.12097C13.6737 6.06604 11.0364 5.53857 8.92653 5.53857C6.42106 5.53857 4.31119 6.32977 2.99253 7.64844C2.06946 8.57151 1.67386 9.75831 1.54199 11.077C1.54199 12.9231 2.20133 14.2418 3.65186 15.2967C4.83866 16.0879 6.28919 16.6154 7.60786 17.011C9.32213 17.5384 10.6408 18.0659 10.6408 18.989C10.5089 20.1758 9.19026 20.4395 8.26719 20.4395C6.68479 20.5714 5.36613 20.3076 3.38813 19.1208L1.54199 22.6812C3.51999 23.868 5.62986 24.3955 8.13533 24.3955C9.84959 24.3955 12.4869 23.868 13.9375 22.5494L13.6737 23.7362H18.6847L19.6077 21.4944C21.5857 22.0219 23.8275 22.1538 25.8055 21.4944L26.4648 23.7362H35.4317V18.4615H37.2779C41.8932 18.4615 44.6624 16.2198 44.6624 12.2638C44.6624 7.78031 42.0251 5.93417 36.3548 5.93417H30.4208ZM20.7945 17.5384L22.6407 11.6044H22.7725L24.6187 17.5384C23.3 17.934 21.9813 17.934 20.7945 17.5384ZM35.4317 14.5055V9.75831H36.7504C38.4647 9.75831 39.7833 10.2858 39.7833 12C39.7833 13.8462 38.4647 14.5055 36.7504 14.5055H35.4317Z" fill="#001B20"/>
</g>
<defs>
<clipPath id="clip0_3211_9475">
<rect width="60" height="29.67" fill="white" transform="translate(0.75)"/>
</clipPath>
</defs>
</svg>
