<svg width="61" height="60" viewBox="0 0 61 60" fill="none" xmlns="http://www.w3.org/2000/svg">
<path d="M42.4375 42.3938V38.2313C42.4281 37.4747 41.7653 37.2694 41.125 37.2188C40.8709 37.1704 40.6329 37.0595 40.4324 36.8961C40.2319 36.7327 40.0753 36.5219 39.9766 36.2828C39.878 36.0437 39.8405 35.7838 39.8675 35.5265C39.8945 35.2693 39.9851 35.0228 40.1313 34.8094C40.5297 34.3481 40.8719 33.6797 40.3375 33.1688L37.3938 30.225C36.8744 29.6981 36.2266 30.0234 35.7531 30.4313C35.5394 30.5764 35.2931 30.6662 35.0361 30.6927C34.7792 30.7192 34.5197 30.6815 34.2809 30.583C34.0421 30.4845 33.8315 30.3283 33.6679 30.1284C33.5044 29.9285 33.393 29.6911 33.3438 29.4375C33.2922 28.8094 33.0934 28.1288 32.3313 28.125H28.1688C27.9457 28.1244 27.7296 28.2033 27.5595 28.3476C27.3894 28.492 27.2763 28.6923 27.2406 28.9125L27.1563 29.4375C27.1079 29.6916 26.997 29.9296 26.8336 30.1301C26.6702 30.3306 26.4594 30.4873 26.2203 30.5859C25.9812 30.6845 25.7213 30.722 25.464 30.695C25.2068 30.668 24.9603 30.5774 24.7469 30.4313C24.2856 30.0328 23.6172 29.6906 23.1063 30.225L20.1625 33.1688C20.005 33.3256 19.9083 33.5331 19.8894 33.7545C19.8705 33.976 19.9307 34.1969 20.0594 34.3781C20.3299 34.6048 20.521 34.9118 20.6051 35.2545C20.6892 35.5973 20.6619 35.9579 20.527 36.284C20.3922 36.6101 20.1569 36.8848 19.8553 37.068C19.5537 37.2513 19.2016 37.3337 18.85 37.3031C18.6298 37.3388 18.4295 37.4519 18.2851 37.622C18.1408 37.7921 18.0619 38.0081 18.0625 38.2313V42.3938C18.0719 43.1503 18.7347 43.3556 19.375 43.4063C19.6305 43.4522 19.8704 43.5617 20.0725 43.7247C20.2746 43.8877 20.4324 44.0989 20.5314 44.3389C20.6304 44.5789 20.6674 44.84 20.639 45.0981C20.6105 45.3561 20.5176 45.6029 20.3688 45.8156C19.9694 46.2806 19.6375 46.9322 20.1625 47.4563L23.1063 50.4C23.2631 50.5575 23.4706 50.6542 23.692 50.6731C23.9135 50.692 24.1344 50.6318 24.3156 50.5031L24.7469 50.1938C24.9606 50.0486 25.2069 49.9588 25.4639 49.9323C25.7208 49.9058 25.9803 49.9435 26.2191 50.042C26.4579 50.1405 26.6685 50.2967 26.8321 50.4966C26.9956 50.6965 27.107 50.9339 27.1563 51.1875C27.2088 51.8175 27.4066 52.4953 28.1688 52.5H32.3313C33.0878 52.4906 33.2931 51.8278 33.3438 51.1875C33.3921 50.9334 33.503 50.6954 33.6664 50.4949C33.8298 50.2944 34.0406 50.1378 34.2797 50.0391C34.5188 49.9405 34.7788 49.903 35.036 49.93C35.2932 49.957 35.5397 50.0476 35.7531 50.1938C36.2153 50.5922 36.8828 50.9334 37.3938 50.4L40.3375 47.4563C40.8569 46.9341 40.5372 46.2844 40.1313 45.8156C39.9844 45.6024 39.8931 45.3558 39.8658 45.0984C39.8384 44.8409 39.8758 44.5807 39.9745 44.3413C40.0732 44.102 40.2301 43.8911 40.4311 43.7278C40.632 43.5645 40.8705 43.454 41.125 43.4063C41.7541 43.3547 42.4338 43.1559 42.4375 42.3938ZM30.25 45.4688C23.4363 45.2484 23.4381 35.3756 30.25 35.1563C37.0638 35.3766 37.0619 45.2494 30.25 45.4688Z" fill="#0081EA"/>
<path d="M4 44.0625C4.00223 44.8077 4.29926 45.5218 4.82622 46.0488C5.35319 46.5757 6.06726 46.8728 6.8125 46.875H18.025C17.9963 46.2668 18.1711 45.6664 18.5219 45.1688C17.8663 45.0595 17.2711 44.7201 16.8433 44.2115C16.4154 43.7028 16.1829 43.0584 16.1875 42.3938V38.2312C16.1859 37.5674 16.4195 36.9245 16.8469 36.4166C17.2742 35.9086 17.8676 35.5684 18.5219 35.4562C18.1351 34.9093 17.9566 34.2421 18.0185 33.5751C18.0804 32.9081 18.3786 32.2852 18.8594 31.8187L21.7844 28.9031C22.2541 28.4369 22.8722 28.1498 23.5315 28.0916C24.1907 28.0334 24.8496 28.2077 25.3937 28.5844C25.503 27.9288 25.8424 27.3336 26.351 26.9058C26.8597 26.4779 27.5041 26.2454 28.1688 26.25H32.3313C32.9951 26.2484 33.638 26.482 34.1459 26.9094C34.6539 27.3367 34.9941 27.9301 35.1063 28.5844C35.6557 28.2046 36.3213 28.0303 36.9863 28.092C37.6514 28.1537 38.2736 28.4475 38.7438 28.9219L41.6594 31.8469C42.1338 32.3119 42.4266 32.931 42.485 33.5927C42.5434 34.2544 42.3637 34.9153 41.9781 35.4562C42.6337 35.5655 43.2289 35.9049 43.6567 36.4135C44.0846 36.9222 44.3171 37.5666 44.3125 38.2312V42.3938C44.3141 43.0576 44.0805 43.7005 43.6531 44.2084C43.2258 44.7164 42.6324 45.0566 41.9781 45.1688C42.3266 45.6675 42.5012 46.2671 42.475 46.875H53.6875C54.4327 46.8728 55.1468 46.5757 55.6738 46.0488C56.2007 45.5218 56.4978 44.8077 56.5 44.0625V16.875H4V44.0625ZM53.6875 7.5H6.8125C6.06726 7.50223 5.35319 7.79926 4.82622 8.32622C4.29926 8.85318 4.00223 9.56726 4 10.3125V15H56.5V10.3125C56.4978 9.56726 56.2007 8.85318 55.6738 8.32622C55.1468 7.79926 54.4327 7.50223 53.6875 7.5ZM17.125 12.1875H9.625C9.37636 12.1875 9.1379 12.0887 8.96209 11.9129C8.78627 11.7371 8.6875 11.4986 8.6875 11.25C8.6875 11.0014 8.78627 10.7629 8.96209 10.5871C9.1379 10.4113 9.37636 10.3125 9.625 10.3125H17.125C17.3736 10.3125 17.6121 10.4113 17.7879 10.5871C17.9637 10.7629 18.0625 11.0014 18.0625 11.25C18.0625 11.4986 17.9637 11.7371 17.7879 11.9129C17.6121 12.0887 17.3736 12.1875 17.125 12.1875ZM43.375 12.1875C43.1264 12.1875 42.8879 12.0887 42.7121 11.9129C42.5363 11.7371 42.4375 11.4986 42.4375 11.25C42.4375 11.0014 42.5363 10.7629 42.7121 10.5871C42.8879 10.4113 43.1264 10.3125 43.375 10.3125C43.6236 10.3125 43.8621 10.4113 44.0379 10.5871C44.2137 10.7629 44.3125 11.0014 44.3125 11.25C44.3125 11.4986 44.2137 11.7371 44.0379 11.9129C43.8621 12.0887 43.6236 12.1875 43.375 12.1875ZM47.125 12.1875C46.8764 12.1875 46.6379 12.0887 46.4621 11.9129C46.2863 11.7371 46.1875 11.4986 46.1875 11.25C46.1875 11.0014 46.2863 10.7629 46.4621 10.5871C46.6379 10.4113 46.8764 10.3125 47.125 10.3125C47.3736 10.3125 47.6121 10.4113 47.7879 10.5871C47.9637 10.7629 48.0625 11.0014 48.0625 11.25C48.0625 11.4986 47.9637 11.7371 47.7879 11.9129C47.6121 12.0887 47.3736 12.1875 47.125 12.1875ZM50.875 12.1875C50.6264 12.1875 50.3879 12.0887 50.2121 11.9129C50.0363 11.7371 49.9375 11.4986 49.9375 11.25C49.9375 11.0014 50.0363 10.7629 50.2121 10.5871C50.3879 10.4113 50.6264 10.3125 50.875 10.3125C51.1236 10.3125 51.3621 10.4113 51.5379 10.5871C51.7137 10.7629 51.8125 11.0014 51.8125 11.25C51.8125 11.4986 51.7137 11.7371 51.5379 11.9129C51.3621 12.0887 51.1236 12.1875 50.875 12.1875Z" fill="#0081EA"/>
<path d="M30.25 37.0312C29.3798 37.0312 28.5452 37.377 27.9298 37.9923C27.3145 38.6077 26.9688 39.4423 26.9688 40.3125C26.9688 41.1827 27.3145 42.0173 27.9298 42.6327C28.5452 43.248 29.3798 43.5938 30.25 43.5938C31.1202 43.5938 31.9548 43.248 32.5702 42.6327C33.1855 42.0173 33.5312 41.1827 33.5312 40.3125C33.5312 39.4423 33.1855 38.6077 32.5702 37.9923C31.9548 37.377 31.1202 37.0312 30.25 37.0312Z" fill="#0081EA"/>
</svg>
