<svg width="60" height="60" viewBox="0 0 60 60" fill="none" xmlns="http://www.w3.org/2000/svg">
<path d="M52.8847 13.6691C53.6078 12.7763 53.9729 11.6463 53.9087 10.4991C53.8446 9.3519 53.3559 8.26961 52.5378 7.46289L49.8847 4.80977C49.7074 4.63827 49.4704 4.5424 49.2237 4.5424C48.9771 4.5424 48.7401 4.63827 48.5628 4.80977L47.8972 5.47539L45.244 2.82227L43.9222 4.14414L46.5753 6.79727L45.244 8.12852L42.6003 5.47539L41.269 6.79727L43.9222 9.45039L43.2565 10.116C43.1694 10.2015 43.1004 10.3036 43.0536 10.4164C43.0069 10.5292 42.9835 10.6502 42.9847 10.7723C42.9834 10.8957 43.0068 11.0182 43.0535 11.1325C43.1002 11.2468 43.1692 11.3506 43.2565 11.4379L45.9097 14.091C46.6199 14.8071 47.5446 15.2716 48.543 15.4137C49.5415 15.5559 50.5591 15.3679 51.4409 14.8785C54.5825 19.2939 56.2642 24.5814 56.2503 30.0004C56.2464 34.308 55.1835 38.5485 53.1551 42.3487C51.1268 46.1488 48.1952 49.3919 44.6185 51.7924C41.0418 54.1929 36.9297 55.6772 32.6444 56.1146C28.3591 56.5519 24.0319 55.9289 20.044 54.3004L19.3315 56.0348C23.6042 57.7803 28.2406 58.4483 32.8322 57.9802C37.4239 57.512 41.83 55.9219 45.6624 53.3499C49.4949 50.778 52.6361 47.3031 54.8094 43.2313C56.9827 39.1596 58.1214 34.6159 58.1253 30.0004C58.1409 24.1407 56.307 18.4256 52.8847 13.6691Z" fill="#0081EA"/>
<path d="M12.1875 30C12.1875 33.523 13.2322 36.9668 15.1894 39.8961C17.1467 42.8253 19.9286 45.1084 23.1835 46.4566C26.4383 47.8048 30.0198 48.1575 33.475 47.4702C36.9303 46.7829 40.1042 45.0865 42.5953 42.5953C45.0865 40.1042 46.7829 36.9303 47.4702 33.475C48.1575 30.0198 47.8048 26.4383 46.4566 23.1835C45.1084 19.9286 42.8253 17.1467 39.8961 15.1894C36.9668 13.2322 33.523 12.1875 30 12.1875C25.2771 12.1917 20.7489 14.0697 17.4093 17.4093C14.0697 20.7489 12.1917 25.2771 12.1875 30ZM30.9375 20.625V27.1875H35.625C35.7848 27.188 35.9418 27.2293 36.0812 27.3076C36.2205 27.3858 36.3376 27.4984 36.4212 27.6346C36.5048 27.7708 36.5522 27.9261 36.5588 28.0858C36.5655 28.2454 36.5313 28.4042 36.4594 28.5469L30.8344 39.7969C30.7565 39.9515 30.6373 40.0815 30.49 40.1725C30.3427 40.2635 30.1731 40.312 30 40.3125C29.9272 40.3124 29.8548 40.3029 29.7844 40.2844C29.5794 40.2359 29.3967 40.1199 29.2657 39.9549C29.1348 39.7899 29.0632 39.5856 29.0625 39.375V32.8125H24.375C24.2152 32.812 24.0582 32.7707 23.9188 32.6924C23.7795 32.6142 23.6624 32.5016 23.5788 32.3654C23.4952 32.2292 23.4478 32.0739 23.4412 31.9142C23.4345 31.7546 23.4687 31.5958 23.5406 31.4531L29.1656 20.2031C29.2613 20.0163 29.417 19.867 29.6077 19.7791C29.7983 19.6913 30.0129 19.6699 30.2172 19.7185C30.4214 19.7672 30.6034 19.8829 30.734 20.0473C30.8646 20.2116 30.9363 20.4151 30.9375 20.625Z" fill="#0081EA"/>
<path d="M16.7438 49.8843C16.831 49.7989 16.9 49.6967 16.9467 49.584C16.9935 49.4712 17.0169 49.3501 17.0157 49.2281C17.017 49.1046 16.9935 48.9822 16.9469 48.8679C16.9002 48.7536 16.8312 48.6498 16.7438 48.5625L14.0907 45.9093C13.3805 45.1933 12.4558 44.7288 11.4574 44.5866C10.4589 44.4445 9.4413 44.6324 8.55947 45.1218C5.41785 40.7065 3.7362 35.4189 3.7501 30C3.75395 25.6924 4.81686 21.4518 6.84524 17.6517C8.87362 13.8516 11.8052 10.6085 15.3819 8.20794C18.9586 5.80742 23.0707 4.32314 27.356 3.88579C31.6413 3.44845 35.9685 4.07146 39.9563 5.69997L40.6688 3.96559C36.3962 2.22009 31.7598 1.55201 27.1682 2.0202C22.5765 2.4884 18.1704 4.07849 14.338 6.65043C10.5055 9.22238 7.3643 12.6973 5.19099 16.769C3.01768 20.8408 1.87895 25.3845 1.8751 30C1.85946 35.8596 3.69343 41.5748 7.11572 46.3312C6.39258 47.2241 6.02754 48.3541 6.09166 49.5013C6.15577 50.6485 6.64446 51.7307 7.4626 52.5375L10.1157 55.1906C10.293 55.3621 10.53 55.458 10.7767 55.458C11.0233 55.458 11.2603 55.3621 11.4376 55.1906L12.1032 54.525L14.7563 57.1781L16.0782 55.8562L13.4251 53.2031L14.7563 51.8718L17.4001 54.525L18.7313 53.2031L16.0782 50.55L16.7438 49.8843Z" fill="#0081EA"/>
</svg>
