<svg width="61" height="60" viewBox="0 0 61 60" fill="none" xmlns="http://www.w3.org/2000/svg">
<path d="M27.5026 12.2473H21.0079C20.1707 12.2473 19.492 12.926 19.492 13.7632V20.2579C19.492 21.0951 20.1707 21.7738 21.0079 21.7738H27.5026C28.3398 21.7738 29.0185 21.0951 29.0185 20.2579V13.7632C29.0185 12.926 28.3398 12.2473 27.5026 12.2473ZM27.3948 33.2473V26.7526C27.3948 25.9154 26.7161 25.2367 25.8789 25.2367H19.3842C18.547 25.2367 17.8683 25.9154 17.8683 26.7526V33.2473C17.8683 34.0845 18.547 34.7632 19.3842 34.7632H25.8789C26.7161 34.7632 27.3948 34.0845 27.3948 33.2473ZM27.5026 38.2262H21.0079C20.1707 38.2262 19.492 38.9049 19.492 39.7421V46.2368C19.492 47.074 20.1707 47.7527 21.0079 47.7527H27.5026C28.3398 47.7527 29.0185 47.074 29.0185 46.2368V39.7421C29.0185 38.9049 28.3398 38.2262 27.5026 38.2262ZM12.8895 31.7314H6.39479C5.55762 31.7314 4.87891 32.4101 4.87891 33.2473V39.7421C4.87891 40.5792 5.55762 41.2579 6.39479 41.2579H12.8895C13.7267 41.2579 14.4054 40.5792 14.4054 39.7421V33.2473C14.4054 32.4101 13.7267 31.7314 12.8895 31.7314ZM12.8895 18.7421H6.39479C5.55762 18.7421 4.87891 19.4208 4.87891 20.2579V26.7527C4.87891 27.5899 5.55762 28.2686 6.39479 28.2686H12.8895C13.7267 28.2686 14.4054 27.5899 14.4054 26.7527V20.2579C14.4054 19.4208 13.7267 18.7421 12.8895 18.7421ZM56.0918 35.4277L52.3783 32.2428C52.5848 30.7547 52.5848 29.2452 52.3783 27.7571L56.0918 24.5722C56.3602 24.3421 56.5397 24.0253 56.5992 23.6768C56.6587 23.3282 56.5945 22.9698 56.4177 22.6636L52.7645 16.3363C52.5876 16.0301 52.3093 15.7953 51.9777 15.6726C51.6462 15.5499 51.2821 15.5469 50.9485 15.6642L46.3304 17.289C45.1485 16.3619 43.8418 15.6059 42.449 15.0434L41.5475 10.2365C41.4823 9.88895 41.2977 9.57516 41.0256 9.34937C40.7535 9.12358 40.4111 9 40.0575 9H33.9972C33.16 9 32.4813 9.67871 32.4813 10.5159V22.2453C32.4813 22.727 32.7102 23.18 33.098 23.4656C33.2892 23.6066 33.5109 23.7006 33.7451 23.7401C33.9793 23.7796 34.2195 23.7634 34.4464 23.693C38.5919 22.3417 43.0771 25.629 43.0067 30C43.0773 34.3701 38.5915 37.6592 34.4464 36.3069C34.2195 36.2364 33.9793 36.2203 33.7451 36.2598C33.5108 36.2993 33.2892 36.3932 33.0979 36.5341C32.9067 36.675 32.7513 36.8589 32.6441 37.0709C32.537 37.2829 32.4812 37.5171 32.4813 37.7546V49.4841C32.4813 50.3213 33.16 51 33.9972 51H40.0575C40.4111 51 40.7535 50.8764 41.0256 50.6506C41.2977 50.4248 41.4823 50.111 41.5475 49.7635L42.449 44.9566C43.8418 44.394 45.1484 43.6381 46.3304 42.711L50.9485 44.3358C51.2821 44.4531 51.6462 44.4501 51.9778 44.3274C52.3094 44.2047 52.5876 43.9699 52.7645 43.6637L56.4177 37.3364C56.5946 37.0301 56.6588 36.6717 56.5992 36.3232C56.5397 35.9746 56.3602 35.6579 56.0918 35.4277Z" fill="#0081EA"/>
</svg>
