<svg width="61" height="60" viewBox="0 0 61 60" fill="none" xmlns="http://www.w3.org/2000/svg">
<g clip-path="url(#clip0_3211_10080)">
<path d="M30.2502 24.606C25.839 24.606 22.25 28.195 22.25 32.6061C22.25 37.0173 25.839 40.6063 30.2502 40.6063C34.6613 40.6063 38.2504 37.0173 38.2504 32.6061C38.2504 28.195 34.6613 24.606 30.2502 24.606Z" fill="#0081EA"/>
<path d="M30.2505 2.60547C13.7083 2.60547 0.25 16.0637 0.25 32.606C0.25 42.3892 5.06204 51.5884 13.1202 57.2144C13.5733 57.5314 14.1963 57.4204 14.5133 56.9664C14.8283 56.5134 14.7182 55.8904 14.2653 55.5744C6.74207 50.3222 2.25007 41.7352 2.25007 32.606C2.25007 17.1667 14.8113 4.60543 30.2505 4.60543C45.6898 4.60543 58.251 17.1666 58.251 32.6059C58.251 41.7351 53.7599 50.3222 46.2358 55.5743C45.7827 55.8904 45.6728 56.5134 45.9878 56.9663C46.0629 57.0741 46.1584 57.166 46.2691 57.2367C46.3797 57.3075 46.5032 57.3558 46.6324 57.3788C46.7617 57.4019 46.8943 57.3992 47.0225 57.371C47.1508 57.3427 47.2722 57.2895 47.3799 57.2143C55.439 51.5882 60.2501 42.389 60.2501 32.6059C60.2511 16.0636 46.7928 2.60547 30.2505 2.60547Z" fill="#0081EA"/>
<path d="M30.2504 9.60547C17.5682 9.60547 7.25 19.9237 7.25 32.6059C7.25 40.641 11.3501 47.9642 18.2162 52.1973C18.6872 52.4883 19.3022 52.3403 19.5923 51.8713C19.6612 51.7595 19.7075 51.6353 19.7284 51.5057C19.7494 51.376 19.7446 51.2435 19.7143 51.1157C19.684 50.988 19.6289 50.8674 19.552 50.7609C19.4751 50.6545 19.378 50.5642 19.2663 50.4953C12.9942 46.6292 9.24914 39.9421 9.24914 32.6059C9.24914 21.0257 18.6704 11.6055 30.2495 11.6055C41.8287 11.6055 51.2499 21.0257 51.2499 32.6059C51.2499 39.941 47.5058 46.6281 41.2337 50.4953C41.1219 50.5642 41.0248 50.6545 40.9479 50.7609C40.8711 50.8674 40.8159 50.988 40.7857 51.1157C40.7554 51.2435 40.7506 51.376 40.7715 51.5057C40.7924 51.6353 40.8387 51.7595 40.9077 51.8713C41.0956 52.1783 41.4247 52.3463 41.7596 52.3463C41.9386 52.3463 42.1196 52.2982 42.2836 52.1973C49.1507 47.9652 53.2508 40.6411 53.2508 32.6059C53.2509 19.9237 42.9327 9.60547 30.2504 9.60547Z" fill="#0081EA"/>
<path d="M30.2502 16.6055C21.4281 16.6055 14.25 23.7836 14.25 32.6057C14.25 38.7698 17.8741 44.4529 23.4822 47.0849C23.601 47.1411 23.7297 47.1732 23.8609 47.1794C23.9922 47.1857 24.1234 47.1659 24.2469 47.1213C24.3705 47.0767 24.4841 47.0082 24.5811 46.9195C24.6781 46.8309 24.7566 46.724 24.8122 46.6049C25.0462 46.1049 24.8322 45.5099 24.3322 45.275C19.422 42.9709 16.2501 37.9978 16.2501 32.6068C16.2501 24.8867 22.5301 18.6065 30.2504 18.6065C37.9706 18.6065 44.2506 24.8866 44.2506 32.6068C44.2506 37.9989 41.0786 42.9709 36.1685 45.275C36.0497 45.3307 35.9429 45.4094 35.8545 45.5064C35.766 45.6034 35.6975 45.717 35.6529 45.8405C35.6084 45.964 35.5886 46.0951 35.5947 46.2262C35.6008 46.3574 35.6327 46.4861 35.6885 46.6049C35.7692 46.7771 35.8973 46.9226 36.0578 47.0245C36.2182 47.1263 36.4045 47.1803 36.5945 47.18C36.7412 47.1802 36.886 47.1477 37.0185 47.0849C42.6266 44.4529 46.2507 38.7698 46.2507 32.6057C46.2505 23.7837 39.0724 16.6055 30.2502 16.6055Z" fill="#0081EA"/>
</g>
<defs>
<clipPath id="clip0_3211_10080">
<rect width="60" height="60" fill="white" transform="translate(0.25)"/>
</clipPath>
</defs>
</svg>
