<svg width="61" height="60" viewBox="0 0 61 60" fill="none" xmlns="http://www.w3.org/2000/svg">
<g clip-path="url(#clip0_3211_10670)">
<path d="M55.6323 42.0672C54.7812 41.5998 53.7125 41.9107 53.2453 42.7615C52.7779 43.6123 53.0886 44.6811 53.9395 45.1484C56.0334 46.2988 57.2344 47.574 57.2344 48.6472C57.2344 49.9598 55.3746 51.9942 50.1547 53.7676C44.9979 55.5198 38.1064 56.4846 30.75 56.4846C23.3936 56.4846 16.5021 55.5198 11.3453 53.7676C6.12539 51.9943 4.26562 49.9598 4.26562 48.6472C4.26562 47.574 5.46656 46.2988 7.56047 45.1483C8.41137 44.681 8.72215 43.6122 8.25469 42.7613C7.78723 41.9106 6.71883 41.5997 5.8677 42.0671C3.53309 43.3497 0.75 45.5325 0.75 48.6472C0.75 51.0348 2.39203 54.4388 10.2143 57.0964C15.7259 58.969 23.0189 60.0002 30.75 60.0002C38.4811 60.0002 45.7741 58.969 51.2857 57.0964C59.108 54.4388 60.75 51.0348 60.75 48.6472C60.75 45.5325 57.9669 43.3497 55.6323 42.0672Z" fill="#0081EA"/>
<path d="M17.4786 51.2264C21.0469 52.2345 25.7601 52.7897 30.7498 52.7897C35.7395 52.7897 40.4527 52.2346 44.0211 51.2264C48.3866 49.9932 50.6002 48.208 50.6002 45.9207C50.6002 43.6334 48.3866 41.8484 44.0211 40.6152C43.0519 40.3414 41.9979 40.1013 40.8774 39.8965C40.2478 40.9835 39.6102 42.0659 38.9645 43.1435C40.2048 43.3296 41.3693 43.5578 42.4268 43.8272C45.6396 44.6455 46.8134 45.5667 47.0547 45.9209C46.8133 46.2751 45.6398 47.1963 42.4269 48.0145C39.386 48.789 35.4736 49.2308 31.353 49.2703C31.1523 49.2854 30.9511 49.2931 30.7498 49.2934C30.5472 49.2934 30.3462 49.2851 30.1465 49.2703C26.0259 49.2308 22.1134 48.7891 19.0725 48.0145C15.8597 47.1963 14.6861 46.275 14.4448 45.9209C14.6861 45.5667 15.8598 44.6455 19.0727 43.8272C20.1302 43.5579 21.2946 43.3296 22.5351 43.1435C21.8684 42.0302 21.2308 40.9478 20.6222 39.8965C19.5017 40.1014 18.4476 40.3414 17.4786 40.6152C13.113 41.8484 10.8994 43.6335 10.8994 45.9207C10.8994 48.208 13.113 49.9931 17.4786 51.2264Z" fill="#0081EA"/>
<path d="M30.7498 45.7774C32.3146 45.7774 33.736 44.9801 34.5523 43.6445C40.2722 34.2863 47.0904 21.9527 47.0904 16.3405C47.0904 7.33031 39.7601 0 30.7498 0C21.7395 0 14.4092 7.33031 14.4092 16.3405C14.4092 21.9527 21.2275 34.2863 26.9473 43.6445C27.7636 44.9801 29.1851 45.7774 30.7498 45.7774ZM24.1818 15.2186C24.1818 11.5971 27.1282 8.65078 30.7498 8.65078C34.3714 8.65078 37.3178 11.5971 37.3178 15.2186C37.3178 18.8401 34.3714 21.7864 30.7498 21.7864C27.1282 21.7864 24.1818 18.8402 24.1818 15.2186Z" fill="#0081EA"/>
</g>
<defs>
<clipPath id="clip0_3211_10670">
<rect width="60" height="60" fill="white" transform="translate(0.75)"/>
</clipPath>
</defs>
</svg>
