<svg width="61" height="60" viewBox="0 0 61 60" fill="none" xmlns="http://www.w3.org/2000/svg">
<g clip-path="url(#clip0_3211_10575)">
<path d="M58.7197 23.4716L54.3452 22.5968C53.8648 21.0038 53.2267 19.4627 52.4403 17.9964L54.9145 14.2852C55.1399 13.9471 55.2413 13.5413 55.2012 13.1369C55.1612 12.7325 54.9822 12.3545 54.6948 12.0671L48.0658 5.43797C47.7784 5.15065 47.4004 4.97175 46.996 4.93169C46.5917 4.89163 46.1859 4.99289 45.8478 5.21824L42.1363 7.69242C40.67 6.90614 39.1289 6.26806 37.5359 5.78766L36.6611 1.41305C36.5814 1.01458 36.3661 0.656036 36.0519 0.39841C35.7377 0.140784 35.3438 -4.36874e-06 34.9375 4.55839e-10H25.5625C25.1561 -9.25006e-06 24.7623 0.140775 24.4481 0.3984C24.1338 0.656024 23.9185 1.01457 23.8388 1.41305L22.964 5.78766C21.371 6.26811 19.8299 6.90619 18.3636 7.69242L14.6521 5.21824C14.314 4.99289 13.9082 4.89163 13.5038 4.93169C13.0995 4.97175 12.7215 5.15065 12.4341 5.43797L5.80504 12.0671C5.51766 12.3545 5.33873 12.7325 5.29869 13.1369C5.25865 13.5413 5.35998 13.9471 5.58543 14.2852L8.05961 17.9964C7.27328 19.4627 6.63516 21.0038 6.15473 22.5968L1.78023 23.4716C1.38176 23.5513 1.02321 23.7666 0.765587 24.0809C0.507962 24.3951 0.367178 24.7889 0.367188 25.1953V34.5703C0.367188 35.4082 0.958633 36.1297 1.78035 36.2939L6.15484 37.1688C6.63525 38.7618 7.27337 40.3029 8.05973 41.7691L5.58555 45.4805C5.36012 45.8186 5.2588 46.2243 5.29884 46.6287C5.33888 47.0331 5.5178 47.4111 5.80516 47.6985L12.4342 54.3275C12.7215 54.6149 13.0996 54.7938 13.5039 54.8339C13.9083 54.8739 14.3141 54.7727 14.6522 54.5473L18.2876 52.1238V41.0889C15.5346 38.1586 13.8438 34.2217 13.8438 29.8828C13.8438 20.8219 21.1891 13.4766 30.25 13.4766C39.3109 13.4766 46.6562 20.8219 46.6562 29.8828C46.6562 34.2217 44.9654 38.1586 42.2124 41.0889V52.1238L45.8478 54.5473C46.1362 54.7399 46.4753 54.8427 46.8222 54.8426C47.2758 54.8426 47.7261 54.6674 48.0657 54.3277L54.6947 47.6986C54.9821 47.4113 55.161 47.0332 55.201 46.6288C55.2411 46.2245 55.1398 45.8187 54.9143 45.4806L52.4402 41.7693C53.2265 40.303 53.8646 38.7619 54.345 37.1689L58.7195 36.294C59.118 36.2144 59.4767 35.9991 59.7343 35.6848C59.992 35.3706 60.1328 34.9767 60.1328 34.5703V25.1953C60.1328 24.7889 59.992 24.3951 59.7344 24.0808C59.4767 23.7666 59.1181 23.5513 58.7197 23.4716Z" fill="#0081EA"/>
<path d="M35.8186 20.2515C34.934 19.7391 33.8116 20.2828 33.6654 21.2946L32.5938 28.7112H27.9062L26.8347 21.2946C26.6884 20.2828 25.5661 19.7391 24.6815 20.2515C21.2492 22.2396 19.1172 25.9303 19.1172 29.8831C19.1172 34.1665 21.516 37.9983 25.3775 39.883L25.5625 39.9734V58.2424C25.5625 59.2132 26.3495 60.0002 27.3203 60.0002H33.1797C34.1505 60.0002 34.9375 59.2132 34.9375 58.2424V39.9734L35.1225 39.883C38.984 37.9983 41.3828 34.1665 41.3828 29.8831C41.3828 25.9303 39.2508 22.2396 35.8186 20.2515Z" fill="#0081EA"/>
</g>
<defs>
<clipPath id="clip0_3211_10575">
<rect width="60" height="60" fill="white" transform="translate(0.25)"/>
</clipPath>
</defs>
</svg>
