<svg width="61" height="60" viewBox="0 0 61 60" fill="none" xmlns="http://www.w3.org/2000/svg">
<path d="M52.8823 12.8647L40.3853 0.367735C40.2693 0.251018 40.1314 0.158427 39.9794 0.0953103C39.8275 0.0321933 39.6646 -0.0002 39.5 9.29034e-07H13.25C10.4937 9.29034e-07 8.25 2.24238 8.25 5.00004V55.0001C8.25 57.7576 10.4937 60 13.25 60H48.2501C51.0063 60 53.25 57.7576 53.25 55V13.75C53.2502 13.5854 53.2178 13.4225 53.1547 13.2706C53.0916 13.1186 52.999 12.9807 52.8823 12.8647ZM17 12.5H32C32.1642 12.4999 32.3268 12.5322 32.4785 12.595C32.6302 12.6578 32.7681 12.7498 32.8842 12.8659C33.0003 12.982 33.0924 13.1199 33.1551 13.2716C33.2179 13.4233 33.2502 13.5859 33.2501 13.7501C33.2502 13.9143 33.2179 14.0769 33.1551 14.2286C33.0924 14.3803 33.0003 14.5181 32.8842 14.6342C32.7681 14.7503 32.6302 14.8424 32.4785 14.9052C32.3268 14.968 32.1642 15.0002 32 15.0001H17C16.8359 15.0002 16.6733 14.968 16.5215 14.9052C16.3698 14.8424 16.232 14.7503 16.1159 14.6342C15.9998 14.5181 15.9077 14.3803 15.8449 14.2286C15.7822 14.0769 15.7499 13.9143 15.75 13.7501C15.7499 13.5859 15.7822 13.4233 15.8449 13.2716C15.9077 13.1199 15.9998 12.982 16.1159 12.8659C16.232 12.7498 16.3698 12.6578 16.5215 12.595C16.6733 12.5322 16.8359 12.4999 17 12.5ZM35.3764 47.1411C29.9346 52.5 28.6675 52.5 28.25 52.5C26.6973 52.5 26.1407 50.7178 25.5645 48.8086C24.6928 50.5774 23.6895 52.5 22 52.5C21.1308 52.5 20.0907 51.9275 19.1118 51.0559C18.6455 51.5197 18.1815 51.9263 17.7495 52.2498C17.6181 52.3484 17.4686 52.4201 17.3095 52.4609C17.1504 52.5017 16.9849 52.5107 16.8223 52.4875C16.6597 52.4642 16.5033 52.4092 16.362 52.3254C16.2207 52.2417 16.0974 52.131 15.9989 51.9995C15.5863 51.4478 15.6986 50.664 16.2504 50.2502C16.6459 49.9523 17.0488 49.5935 17.4443 49.198C16.4507 47.8271 15.75 46.2647 15.75 45C15.75 42.1472 18.0254 40 19.5 40C20.9502 40 23.25 41.0181 23.25 43.75C23.25 45.3417 22.144 47.4011 20.767 49.1796C21.2773 49.6557 21.7412 49.9718 22.0121 49.9999C22.288 49.8059 23.0473 48.2604 23.4135 47.5182C24.1605 46.0021 24.6537 44.9999 25.75 44.9999C27.0318 44.9999 27.4296 46.3293 27.9375 48.0125C28.0864 48.5118 28.333 49.3345 28.5503 49.8265C29.4682 49.2063 31.7851 47.1677 33.6236 45.3587C34.1167 44.8765 34.9077 44.8789 35.3911 45.3734C35.8745 45.8654 35.8697 46.6564 35.3764 47.1411ZM44.5 37.5H27C26.8358 37.5001 26.6732 37.4678 26.5215 37.4051C26.3698 37.3423 26.2319 37.2502 26.1158 37.1341C25.9998 37.018 25.9077 36.8802 25.8449 36.7285C25.7821 36.5767 25.7499 36.4142 25.75 36.25C25.7499 36.0858 25.7821 35.9232 25.8449 35.7715C25.9077 35.6198 25.9998 35.4819 26.1158 35.3658C26.2319 35.2497 26.3698 35.1576 26.5215 35.0949C26.6732 35.0321 26.8358 34.9998 27 34.9999H44.5C44.6642 34.9998 44.8267 35.0321 44.9785 35.0949C45.1302 35.1576 45.268 35.2497 45.3841 35.3658C45.5002 35.4819 45.5923 35.6198 45.6551 35.7715C45.7178 35.9232 45.7501 36.0858 45.75 36.25C45.7501 36.4142 45.7178 36.5767 45.6551 36.7285C45.5923 36.8802 45.5002 37.018 45.3841 37.1341C45.268 37.2502 45.1302 37.3423 44.9785 37.4051C44.8267 37.4678 44.6642 37.5001 44.5 37.5ZM44.5 30H17C16.8359 30.0001 16.6733 29.9678 16.5215 29.9051C16.3698 29.8423 16.232 29.7502 16.1159 29.6341C15.9998 29.518 15.9077 29.3802 15.8449 29.2285C15.7822 29.0767 15.7499 28.9142 15.75 28.75C15.7499 28.5858 15.7822 28.4232 15.8449 28.2715C15.9077 28.1198 15.9998 27.9819 16.1159 27.8658C16.232 27.7497 16.3698 27.6576 16.5215 27.5949C16.6733 27.5321 16.8359 27.4998 17 27.4999H44.5001C44.6643 27.4998 44.8269 27.5321 44.9786 27.5949C45.1303 27.6576 45.2681 27.7497 45.3842 27.8658C45.5003 27.9819 45.5924 28.1198 45.6552 28.2715C45.718 28.4232 45.7502 28.5858 45.7501 28.75C45.7502 28.9142 45.7179 29.0767 45.6551 29.2285C45.5923 29.3802 45.5002 29.518 45.3841 29.6341C45.268 29.7502 45.1302 29.8423 44.9785 29.905C44.8267 29.9678 44.6642 30.0001 44.5 30ZM44.5 22.5H17C16.8359 22.5001 16.6733 22.4678 16.5215 22.4051C16.3698 22.3423 16.232 22.2502 16.1159 22.1341C15.9998 22.018 15.9077 21.8802 15.8449 21.7285C15.7822 21.5767 15.7499 21.4142 15.75 21.25C15.7499 21.0858 15.7822 20.9232 15.8449 20.7715C15.9077 20.6198 15.9998 20.4819 16.1159 20.3658C16.232 20.2497 16.3698 20.1576 16.5215 20.0949C16.6733 20.0321 16.8359 19.9998 17 19.9999H44.5001C44.6643 19.9998 44.8269 20.0321 44.9786 20.0949C45.1303 20.1576 45.2681 20.2497 45.3842 20.3658C45.5003 20.4819 45.5924 20.6198 45.6552 20.7715C45.718 20.9232 45.7502 21.0858 45.7501 21.25C45.7502 21.4142 45.7179 21.5767 45.6551 21.7285C45.5923 21.8802 45.5002 22.018 45.3841 22.1341C45.268 22.2502 45.1302 22.3423 44.9785 22.405C44.8267 22.4678 44.6642 22.5001 44.5 22.5ZM43.25 12.5C41.8706 12.5 40.7501 11.3782 40.7501 10.0001V4.26762L48.9825 12.5H43.25Z" fill="#0081EA"/>
<path d="M19.5 42.5C19.3682 42.583 18.25 43.4754 18.25 45C18.25 45.6396 18.6113 46.4429 19.1192 47.2168C20.0763 45.8923 20.7501 44.5472 20.7501 43.75C20.7501 42.5598 19.7076 42.5 19.5 42.5Z" fill="#0081EA"/>
</svg>
