<svg width="60" height="60" viewBox="0 0 60 60" fill="none" xmlns="http://www.w3.org/2000/svg">
<path d="M50.8465 29.6295H58.2422C59.2125 29.6295 60 28.8432 60 27.8717C60 26.9014 59.2125 26.1139 58.2422 26.1139H51.5449C52.3875 20.8029 51.9961 17.2111 51.9738 17.0178C51.9349 16.6779 51.7977 16.3569 51.5789 16.0939C51.3601 15.831 51.0693 15.6377 50.7422 15.5377C48.0715 14.7197 45.7441 13.89 43.7191 13.0768V8.73145H49.7555C50.4809 10.7775 52.4355 12.2471 54.7266 12.2471C57.634 12.2471 60 9.88105 60 6.97363C60 4.06504 57.634 1.7002 54.7266 1.7002C52.4355 1.7002 50.4809 3.16973 49.7555 5.21582H41.9613C40.9898 5.21582 40.2035 6.00215 40.2035 6.97363V11.5475C33.6879 8.47129 31.5281 5.94824 31.398 5.79121C30.6957 4.825 29.3048 4.82418 28.602 5.79121C28.4719 5.94824 26.3121 8.47129 19.7965 11.5475V6.97363C19.7965 6.00215 19.0102 5.21582 18.0387 5.21582H10.2445C9.51914 3.16973 7.56445 1.7002 5.27344 1.7002C2.36602 1.7002 0 4.06504 0 6.97363C0 9.88105 2.36602 12.2471 5.27344 12.2471C7.56445 12.2471 9.51914 10.7775 10.2445 8.73145H16.2809V13.0768C14.2559 13.89 11.9285 14.7197 9.25781 15.5377C8.58984 15.7416 8.10586 16.3229 8.02617 17.0178C8.00391 17.2111 7.6125 20.8029 8.45508 26.1139H1.75781C0.7875 26.1139 0 26.9014 0 27.8717C0 28.8432 0.7875 29.6295 1.75781 29.6295H9.15352C9.53754 31.2288 9.98637 32.7659 10.5844 34.44H5.75508C4.78477 34.44 3.99727 35.2264 3.99727 36.1979C3.99727 37.1682 4.78477 37.9557 5.75508 37.9557H12.0023C13.5278 41.3286 15.3841 44.3772 17.5816 47.2217H10.2445C9.51914 45.1756 7.56445 43.7061 5.27344 43.7061C2.36602 43.7061 0 46.0721 0 48.9795C0 51.8869 2.36602 54.2529 5.27344 54.2529C7.56445 54.2529 9.51914 52.7834 10.2445 50.7373H20.5793C23.0555 53.3775 25.8668 55.8021 28.9945 57.983C29.5993 58.4049 30.4008 58.4049 31.0055 57.983C34.1332 55.8021 36.9445 53.3775 39.4207 50.7373H49.7555C50.4809 52.7834 52.4355 54.2529 54.7266 54.2529C57.634 54.2529 60 51.8869 60 48.9795C60 46.0721 57.634 43.7061 54.7266 43.7061C52.4355 43.7061 50.4809 45.1756 49.7555 47.2217H42.4184C44.6106 44.384 46.4687 41.3363 47.9977 37.9557H54.2449C55.2152 37.9557 56.0027 37.1682 56.0027 36.1979C56.0027 35.2264 55.2152 34.44 54.2449 34.44H49.4156C50.0129 32.7679 50.4619 31.2307 50.8465 29.6295ZM39.6727 38.6342C39.6727 40.4014 38.2359 41.8381 36.4688 41.8381H23.5312C21.7641 41.8381 20.3273 40.4014 20.3273 38.6342V28.5678C20.3273 27.1709 21.225 25.9814 22.4742 25.5432V24.3994C22.4742 20.2498 25.8504 16.8736 30 16.8736C34.1496 16.8736 37.5258 20.2498 37.5258 24.3994V25.5432C38.775 25.9814 39.6727 27.1709 39.6727 28.5678V38.6342Z" fill="#0081EA"/>
<path d="M23.843 28.8799V38.3228H36.1571V28.8799H23.843ZM31.7579 34.2213C31.7579 35.1928 30.9704 35.9791 30 35.9791C29.0297 35.9791 28.2422 35.1928 28.2422 34.2213V32.9814C28.2422 32.01 29.0297 31.2236 30 31.2236C30.9704 31.2236 31.7579 32.01 31.7579 32.9814V34.2213ZM34.0102 24.3998V25.3643H25.9899V24.3998C25.9899 22.1885 27.7887 20.3896 30 20.3896C32.2114 20.3896 34.0102 22.1885 34.0102 24.3998Z" fill="#0081EA"/>
</svg>
