<svg width="60" height="60" viewBox="0 0 60 60" fill="none" xmlns="http://www.w3.org/2000/svg">
<path d="M55.7464 11.3707C47.2641 10.882 39.1477 7.74924 32.5366 2.41229C31.8093 1.82695 30.9038 1.50781 29.9702 1.50781C29.0367 1.50781 28.1311 1.82695 27.4039 2.41229C20.7926 7.74815 12.676 10.8789 4.19398 11.3648C3.18718 11.4158 2.23585 11.8415 1.52688 12.5582C0.817902 13.2749 0.402511 14.2307 0.362296 15.238C-0.035724 26.2578 2.26923 50.5667 28.6692 59.1984C29.5142 59.4768 30.4262 59.4768 31.2712 59.1984C57.7128 50.5489 59.9999 26.2578 59.5841 15.238C59.5423 14.2308 59.1254 13.2756 58.4154 12.56C57.7053 11.8445 56.7533 11.4202 55.7464 11.3707ZM29.9762 14.1865C31.4384 14.2006 32.8638 14.6472 34.0728 15.4699C35.2817 16.2927 36.2201 17.4549 36.7697 18.81C37.3193 20.1651 37.4555 21.6526 37.1612 23.0851C36.8669 24.5175 36.1552 25.8308 35.1158 26.8594C34.0764 27.8881 32.7558 28.5861 31.3204 28.8655C29.885 29.145 28.399 28.9933 27.0496 28.4297C25.7003 27.8661 24.5479 26.9157 23.7377 25.6983C22.9276 24.4808 22.4958 23.0509 22.4969 21.5885C22.5079 19.6154 23.3019 17.7274 24.7044 16.3394C26.1068 14.9514 28.003 14.1771 29.9762 14.1865ZM42.2613 41.8281H17.6791V38.8994C17.6813 38.1798 17.8702 37.473 18.2274 36.8482C18.5845 36.2235 19.0977 35.7021 19.7168 35.3351L25.9247 32.7747L29.489 35.3469C29.6251 35.4469 29.7895 35.501 29.9583 35.5014H30.0296C30.1988 35.5031 30.3638 35.4488 30.4989 35.3469L34.0633 32.7747L40.2712 35.3351C40.8902 35.7021 41.4034 36.2235 41.7606 36.8482C42.1177 37.473 42.3066 38.1798 42.3088 38.8994L42.2613 41.8281Z" fill="#0081EA"/>
</svg>
