<svg width="60" height="60" viewBox="0 0 60 60" fill="none" xmlns="http://www.w3.org/2000/svg">
<path d="M16 15.9996V21.9996H20V15.9996C20.0022 14.6286 20.2858 13.2727 20.8334 12.0159C21.3809 10.759 22.1806 9.62791 23.1831 8.69269C24.1855 7.75747 25.3693 7.03802 26.6611 6.5789C27.9529 6.11979 29.3252 5.93078 30.693 6.0236C33.2604 6.25803 35.6449 7.45236 37.3702 9.36804C39.0955 11.2837 40.0346 13.7797 40 16.3576V17.9996C40 18.53 40.2107 19.0387 40.5858 19.4138C40.9609 19.7889 41.4696 19.9996 42 19.9996C42.5304 19.9996 43.0391 19.7889 43.4142 19.4138C43.7893 19.0387 44 18.53 44 17.9996V16.3996C44.0394 12.7539 42.681 9.23149 40.2038 6.55628C37.7267 3.88107 34.319 2.25621 30.681 2.0156C28.7873 1.92338 26.8947 2.21673 25.1178 2.87788C23.3409 3.53903 21.7169 4.5542 20.3441 5.86182C18.9713 7.16943 17.8784 8.74225 17.1317 10.4849C16.3849 12.2275 15.9999 14.1037 16 15.9996ZM11 57.9996H49C49.5304 57.9996 50.0391 57.7889 50.4142 57.4138C50.7893 57.0387 51 56.53 51 55.9996V49.9996C51 49.4692 50.7893 48.9605 50.4142 48.5854C50.0391 48.2103 49.5304 47.9996 49 47.9996H32.989C32.9729 48.7011 32.7185 49.3763 32.2675 49.9139C31.8166 50.4516 31.196 50.8197 30.508 50.9576C30.3428 50.9853 30.1755 50.9993 30.008 50.9996C29.2128 50.998 28.4507 50.6814 27.8884 50.1192C27.3262 49.5569 27.0096 48.7948 27.008 47.9996H11C10.4696 47.9996 9.96086 48.2103 9.58579 48.5854C9.21071 48.9605 9 49.4692 9 49.9996V55.9996C9 56.53 9.21071 57.0387 9.58579 57.4138C9.96086 57.7889 10.4696 57.9996 11 57.9996ZM45 49.9996C45.5933 49.9996 46.1734 50.1755 46.6667 50.5052C47.1601 50.8348 47.5446 51.3034 47.7716 51.8515C47.9987 52.3997 48.0581 53.0029 47.9424 53.5849C47.8266 54.1668 47.5409 54.7014 47.1213 55.1209C46.7018 55.5405 46.1672 55.8262 45.5853 55.942C45.0033 56.0577 44.4001 55.9983 43.852 55.7712C43.3038 55.5442 42.8352 55.1597 42.5056 54.6663C42.1759 54.173 42 53.5929 42 52.9996C42 52.2039 42.3161 51.4409 42.8787 50.8783C43.4413 50.3157 44.2043 49.9996 45 49.9996ZM17 49.9996H18C18.2652 49.9996 18.5196 50.1049 18.7071 50.2925C18.8946 50.48 19 50.7344 19 50.9996C19 51.2648 18.8946 51.5192 18.7071 51.7067C18.5196 51.8942 18.2652 51.9996 18 51.9996H17C16.7348 51.9996 16.4804 51.8942 16.2929 51.7067C16.1054 51.5192 16 51.2648 16 50.9996C16 50.7344 16.1054 50.48 16.2929 50.2925C16.4804 50.1049 16.7348 49.9996 17 49.9996ZM17 53.9996H18C18.2652 53.9996 18.5196 54.1049 18.7071 54.2925C18.8946 54.48 19 54.7344 19 54.9996C19 55.2648 18.8946 55.5192 18.7071 55.7067C18.5196 55.8942 18.2652 55.9996 18 55.9996H17C16.7348 55.9996 16.4804 55.8942 16.2929 55.7067C16.1054 55.5192 16 55.2648 16 54.9996C16 54.7344 16.1054 54.48 16.2929 54.2925C16.4804 54.1049 16.7348 53.9996 17 53.9996ZM12 49.9996H13C13.2652 49.9996 13.5196 50.1049 13.7071 50.2925C13.8946 50.48 14 50.7344 14 50.9996C14 51.2648 13.8946 51.5192 13.7071 51.7067C13.5196 51.8942 13.2652 51.9996 13 51.9996H12C11.7348 51.9996 11.4804 51.8942 11.2929 51.7067C11.1054 51.5192 11 51.2648 11 50.9996C11 50.7344 11.1054 50.48 11.2929 50.2925C11.4804 50.1049 11.7348 49.9996 12 49.9996ZM12 53.9996H13C13.2652 53.9996 13.5196 54.1049 13.7071 54.2925C13.8946 54.48 14 54.7344 14 54.9996C14 55.2648 13.8946 55.5192 13.7071 55.7067C13.5196 55.8942 13.2652 55.9996 13 55.9996H12C11.7348 55.9996 11.4804 55.8942 11.2929 55.7067C11.1054 55.5192 11 55.2648 11 54.9996C11 54.7344 11.1054 54.48 11.2929 54.2925C11.4804 54.1049 11.7348 53.9996 12 53.9996ZM51 37.9996C51 37.4692 50.7893 36.9605 50.4142 36.5854C50.0391 36.2103 49.5304 35.9996 49 35.9996H36.907C37.1261 37.4848 36.8603 39.0011 36.1491 40.3233C35.4378 41.6454 34.3191 42.7029 32.959 43.3386L32.983 45.9996H49C49.5304 45.9996 50.0391 45.7889 50.4142 45.4138C50.7893 45.0387 51 44.53 51 43.9996V37.9996ZM45 43.9996C44.4067 43.9996 43.8266 43.8236 43.3333 43.494C42.8399 43.1644 42.4554 42.6958 42.2284 42.1476C42.0013 41.5995 41.9419 40.9963 42.0576 40.4143C42.1734 39.8324 42.4591 39.2978 42.8787 38.8783C43.2982 38.4587 43.8328 38.173 44.4147 38.0572C44.9967 37.9415 45.5999 38.0009 46.148 38.228C46.6962 38.455 47.1648 38.8395 47.4944 39.3329C47.8241 39.8262 48 40.4062 48 40.9996C48 41.7952 47.6839 42.5583 47.1213 43.1209C46.5587 43.6835 45.7957 43.9996 45 43.9996Z" fill="#0081EA"/>
<path d="M45 54C45.5523 54 46 53.5523 46 53C46 52.4477 45.5523 52 45 52C44.4477 52 44 52.4477 44 53C44 53.5523 44.4477 54 45 54Z" fill="#0081EA"/>
<path d="M11 36C10.4696 36 9.96086 36.2107 9.58579 36.5858C9.21071 36.9609 9 37.4696 9 38V44C9 44.5304 9.21071 45.0391 9.58579 45.4142C9.96086 45.7893 10.4696 46 11 46H27V43.366C25.6402 42.7244 24.5241 41.6607 23.8177 40.3335C23.1114 39.0062 22.8526 37.4862 23.08 36H11ZM13 44H12C11.7348 44 11.4804 43.8946 11.2929 43.7071C11.1054 43.5196 11 43.2652 11 43C11 42.7348 11.1054 42.4804 11.2929 42.2929C11.4804 42.1054 11.7348 42 12 42H13C13.2652 42 13.5196 42.1054 13.7071 42.2929C13.8946 42.4804 14 42.7348 14 43C14 43.2652 13.8946 43.5196 13.7071 43.7071C13.5196 43.8946 13.2652 44 13 44ZM13 40H12C11.7348 40 11.4804 39.8946 11.2929 39.7071C11.1054 39.5196 11 39.2652 11 39C11 38.7348 11.1054 38.4804 11.2929 38.2929C11.4804 38.1054 11.7348 38 12 38H13C13.2652 38 13.5196 38.1054 13.7071 38.2929C13.8946 38.4804 14 38.7348 14 39C14 39.2652 13.8946 39.5196 13.7071 39.7071C13.5196 39.8946 13.2652 40 13 40ZM18 44H17C16.7348 44 16.4804 43.8946 16.2929 43.7071C16.1054 43.5196 16 43.2652 16 43C16 42.7348 16.1054 42.4804 16.2929 42.2929C16.4804 42.1054 16.7348 42 17 42H18C18.2652 42 18.5196 42.1054 18.7071 42.2929C18.8946 42.4804 19 42.7348 19 43C19 43.2652 18.8946 43.5196 18.7071 43.7071C18.5196 43.8946 18.2652 44 18 44ZM18 40H17C16.7348 40 16.4804 39.8946 16.2929 39.7071C16.1054 39.5196 16 39.2652 16 39C16 38.7348 16.1054 38.4804 16.2929 38.2929C16.4804 38.1054 16.7348 38 17 38H18C18.2652 38 18.5196 38.1054 18.7071 38.2929C18.8946 38.4804 19 38.7348 19 39C19 39.2652 18.8946 39.5196 18.7071 39.7071C18.5196 39.8946 18.2652 40 18 40Z" fill="#0081EA"/>
<path d="M29.357 48.764C29.4684 48.8595 29.5998 48.929 29.7415 48.9672C29.8832 49.0054 30.0316 49.0115 30.176 48.985C30.419 48.9222 30.6333 48.7782 30.7832 48.5768C30.933 48.3754 31.0096 48.1289 31 47.878V43.318C30.9969 42.944 31.1004 42.5768 31.2981 42.2593C31.4959 41.9419 31.7799 41.6872 32.117 41.525C33.0638 41.0831 33.8483 40.3556 34.3605 39.4449C34.8726 38.5341 35.0865 37.4858 34.9722 36.4473C34.8579 35.4087 34.4211 34.432 33.7232 33.6544C33.0252 32.8768 32.1012 32.3374 31.081 32.112C30.7301 32.0383 30.3725 32.0008 30.014 32C28.9744 31.9978 27.9598 32.3192 27.1112 32.9197C26.2625 33.5202 25.6218 34.3699 25.278 35.351C25.2745 35.3667 25.2698 35.3821 25.264 35.397C24.8711 36.5569 24.9181 37.8207 25.3962 38.9482C25.8743 40.0757 26.7501 40.9881 27.857 41.512C28.2036 41.6809 28.4952 41.9449 28.6975 42.2731C28.8999 42.6014 29.0048 42.9804 29 43.366V48C29.0006 48.1456 29.0329 48.2893 29.0946 48.4212C29.1562 48.5531 29.2457 48.6701 29.357 48.764Z" fill="#0081EA"/>
<path d="M45 42C45.5523 42 46 41.5523 46 41C46 40.4477 45.5523 40 45 40C44.4477 40 44 40.4477 44 41C44 41.5523 44.4477 42 45 42Z" fill="#0081EA"/>
<path d="M45 30C45.5523 30 46 29.5523 46 29C46 28.4477 45.5523 28 45 28C44.4477 28 44 28.4477 44 29C44 29.5523 44.4477 30 45 30Z" fill="#0081EA"/>
<path d="M51 26C51 25.4696 50.7893 24.9609 50.4142 24.5858C50.0391 24.2107 49.5304 24 49 24H11C10.4696 24 9.96086 24.2107 9.58579 24.5858C9.21071 24.9609 9 25.4696 9 26V32C9 32.5304 9.21071 33.0391 9.58579 33.4142C9.96086 33.7893 10.4696 34 11 34H23.674C24.2395 32.8016 25.134 31.7886 26.2533 31.0792C27.3725 30.3698 28.6704 29.9931 29.9955 29.9931C31.3206 29.9931 32.6185 30.3698 33.7377 31.0792C34.857 31.7886 35.7515 32.8016 36.317 34H49C49.5304 34 50.0391 33.7893 50.4142 33.4142C50.7893 33.0391 51 32.5304 51 32V26ZM13 32H12C11.7348 32 11.4804 31.8946 11.2929 31.7071C11.1054 31.5196 11 31.2652 11 31C11 30.7348 11.1054 30.4804 11.2929 30.2929C11.4804 30.1054 11.7348 30 12 30H13C13.2652 30 13.5196 30.1054 13.7071 30.2929C13.8946 30.4804 14 30.7348 14 31C14 31.2652 13.8946 31.5196 13.7071 31.7071C13.5196 31.8946 13.2652 32 13 32ZM13 28H12C11.7348 28 11.4804 27.8946 11.2929 27.7071C11.1054 27.5196 11 27.2652 11 27C11 26.7348 11.1054 26.4804 11.2929 26.2929C11.4804 26.1054 11.7348 26 12 26H13C13.2652 26 13.5196 26.1054 13.7071 26.2929C13.8946 26.4804 14 26.7348 14 27C14 27.2652 13.8946 27.5196 13.7071 27.7071C13.5196 27.8946 13.2652 28 13 28ZM18 32H17C16.7348 32 16.4804 31.8946 16.2929 31.7071C16.1054 31.5196 16 31.2652 16 31C16 30.7348 16.1054 30.4804 16.2929 30.2929C16.4804 30.1054 16.7348 30 17 30H18C18.2652 30 18.5196 30.1054 18.7071 30.2929C18.8946 30.4804 19 30.7348 19 31C19 31.2652 18.8946 31.5196 18.7071 31.7071C18.5196 31.8946 18.2652 32 18 32ZM18 28H17C16.7348 28 16.4804 27.8946 16.2929 27.7071C16.1054 27.5196 16 27.2652 16 27C16 26.7348 16.1054 26.4804 16.2929 26.2929C16.4804 26.1054 16.7348 26 17 26H18C18.2652 26 18.5196 26.1054 18.7071 26.2929C18.8946 26.4804 19 26.7348 19 27C19 27.2652 18.8946 27.5196 18.7071 27.7071C18.5196 27.8946 18.2652 28 18 28ZM45 32C44.4067 32 43.8266 31.8241 43.3333 31.4944C42.8399 31.1648 42.4554 30.6962 42.2284 30.1481C42.0013 29.5999 41.9419 28.9967 42.0576 28.4147C42.1734 27.8328 42.4591 27.2982 42.8787 26.8787C43.2982 26.4591 43.8328 26.1734 44.4147 26.0576C44.9967 25.9419 45.5999 26.0013 46.148 26.2284C46.6962 26.4554 47.1648 26.8399 47.4944 27.3333C47.8241 27.8266 48 28.4067 48 29C48 29.7956 47.6839 30.5587 47.1213 31.1213C46.5587 31.6839 45.7957 32 45 32Z" fill="#0081EA"/>
</svg>
