<svg width="61" height="60" viewBox="0 0 61 60" fill="none" xmlns="http://www.w3.org/2000/svg">
<path fill-rule="evenodd" clip-rule="evenodd" d="M23 27.5C25.3206 27.5 27.5462 26.5781 29.1872 24.9372C30.8281 23.2962 31.75 21.0706 31.75 18.75C31.75 16.4294 30.8281 14.2038 29.1872 12.5628C27.5462 10.9219 25.3206 10 23 10C20.6794 10 18.4538 10.9219 16.8128 12.5628C15.1719 14.2038 14.25 16.4294 14.25 18.75C14.25 21.0706 15.1719 23.2962 16.8128 24.9372C18.4538 26.5781 20.6794 27.5 23 27.5ZM10.5 50C7.75 50 5.5 47.75 5.5 45C5.5 39.475 9.975 35 15.5 35H30.5C36.025 35 40.5 39.475 40.5 45C40.5 47.75 38.25 50 35.5 50H10.5ZM42.435 17.3125C43.2862 16.7398 44.2433 16.3429 45.25 16.145V12.5H48.25V16.145C49.275 16.345 50.23 16.75 51.065 17.3125L53.64 14.7375L55.76 16.8625L53.1875 19.4325C53.75 20.27 54.1525 21.225 54.355 22.25H58V25.25H54.355C54.155 26.275 53.75 27.23 53.1875 28.0675L55.7625 30.64L53.6375 32.76L51.065 30.1875C50.2137 30.7601 49.2567 31.1571 48.25 31.355V35H45.25V31.355C44.2425 31.1573 43.2846 30.7604 42.4325 30.1875L39.86 32.7625L37.74 30.6375L40.3125 28.065C39.7399 27.2137 39.3429 26.2567 39.145 25.25H35.5V22.25H39.145C39.345 21.225 39.75 20.27 40.3125 19.4325L37.7375 16.86L39.8625 14.74L42.435 17.3125ZM46.75 19C46.1262 19 45.5085 19.1229 44.9323 19.3616C44.356 19.6003 43.8323 19.9502 43.3912 20.3912C42.9502 20.8323 42.6003 21.356 42.3616 21.9323C42.1229 22.5086 42 23.1262 42 23.75C42 24.3738 42.1229 24.9914 42.3616 25.5677C42.6003 26.144 42.9502 26.6677 43.3912 27.1088C43.8323 27.5498 44.356 27.8997 44.9323 28.1384C45.5085 28.3771 46.1262 28.5 46.75 28.5C48.0098 28.5 49.218 27.9996 50.1088 27.1088C50.9996 26.218 51.5 25.0098 51.5 23.75C51.5 22.4902 50.9996 21.282 50.1088 20.3912C49.218 19.5004 48.0098 19 46.75 19Z" fill="#0081EA"/>
</svg>
