<svg width="61" height="60" viewBox="0 0 61 60" fill="none" xmlns="http://www.w3.org/2000/svg">
<path d="M40.6719 13.0029C37.1281 12.1592 33.7156 10.8748 30.5 9.15918C27.2869 10.8684 23.8686 12.1601 20.3281 13.0029C17.8191 13.5944 15.2619 13.9584 12.6875 14.0904V29.9154C12.8187 32.8311 13.7 38.5873 18.1437 43.8467C22.3719 48.8529 27.6125 50.7467 30.5 51.4498C33.3875 50.7467 38.6281 48.8529 42.8563 43.8467C47.3 38.5873 48.1813 32.8404 48.3125 29.8779V14.0904C45.735 13.959 43.1745 13.5951 40.6625 13.0029H40.6719ZM34.0531 41.1842C30.6406 42.3842 26.4125 41.7092 24.0312 38.9998C22.7469 37.5467 22.0719 36.0654 22.6062 32.5686C23.6562 25.7248 22.0719 24.6654 22.0719 24.6654C22.0719 24.6654 25.0906 25.4436 26.7781 29.8404C26.7781 29.8404 27.1812 27.6654 27.1156 24.8998C27.05 22.1342 28.4938 17.6904 31.3906 16.3873C31.3906 16.3873 30.3313 21.3561 32.0469 22.9217C34.5313 25.1998 35.2719 27.6373 35.075 29.6248C35.075 29.6248 36.8938 27.7686 36.95 25.3029C36.95 25.3029 42.9875 38.0623 34.0531 41.2029V41.1842Z" fill="#0081EA"/>
<path d="M41.75 8.4375C37.7711 7.49398 33.9717 5.9109 30.5 3.75C27.0283 5.9109 23.2289 7.49398 19.25 8.4375C14.7031 9.51562 10.7656 9.5625 8 9.375V30C8.09375 32.3344 8.70312 39.9375 14.5625 46.875C20.5813 54.0094 28.25 55.8094 30.5 56.25C32.75 55.8094 40.4188 54.0094 46.4375 46.875C52.2969 39.9375 52.9062 32.3344 53 30V9.375C50.2344 9.5625 46.2969 9.51562 41.75 8.4375ZM50.1875 29.9156C50.0469 33.1594 49.0906 39.375 44.2906 45.0563C39.6125 50.5969 33.7719 52.6125 30.7156 53.325C30.65 53.3438 30.575 53.3531 30.5 53.3531C30.425 53.3531 30.3594 53.3531 30.2844 53.325C27.2188 52.6125 21.3875 50.5969 16.7094 45.0563C11.9094 39.375 10.9531 33.1594 10.8125 29.9531V13.1906C10.8125 12.6844 11.2156 12.2719 11.7219 12.2531C14.4781 12.1687 17.225 11.8125 19.8969 11.175C23.4392 10.331 26.8535 9.01945 30.05 7.275C30.3313 7.125 30.6687 7.125 30.95 7.275C34.1375 9.02813 37.5594 10.3406 41.1031 11.175C43.775 11.8125 46.5219 12.1687 49.2781 12.2531C49.7844 12.2719 50.1875 12.6844 50.1875 13.1906V29.925V29.9156Z" fill="#0081EA"/>
</svg>
