<svg width="61" height="60" viewBox="0 0 61 60" fill="none" xmlns="http://www.w3.org/2000/svg">
<g clip-path="url(#clip0_3211_4812)">
<path d="M47.8282 24.7266H32.0079V38.7891H53.7819L49.4949 25.9282C49.3786 25.5782 49.155 25.2737 48.8558 25.058C48.5566 24.8423 48.197 24.7263 47.8282 24.7266ZM11.0052 25.9282L6.71821 38.7891H28.4922V24.7266H12.6719C12.3031 24.7263 11.9435 24.8423 11.6443 25.058C11.3451 25.2737 11.1215 25.5782 11.0052 25.9282ZM54.9538 42.3047H32.0079V60H58.4922C59.0566 60 59.5872 59.7286 59.9186 59.2703C60.0815 59.0441 60.1882 58.7824 60.2299 58.5069C60.2717 58.2313 60.2474 57.9498 60.1589 57.6855L54.9538 42.3047ZM0.341098 57.686C0.160747 58.2211 0.251919 58.8116 0.58145 59.2704C0.744571 59.4961 0.958911 59.68 1.20687 59.8068C1.45483 59.9336 1.72934 59.9999 2.00786 60H28.4922V42.3047H5.54633L0.341098 57.686ZM26.7344 10.6641C23.8266 10.6641 21.461 8.29828 21.461 5.39062C21.461 4.41914 20.675 3.63281 19.7032 3.63281C18.7317 3.63281 17.9454 4.41914 17.9454 5.39062C17.9454 8.2984 15.58 10.6641 12.6719 10.6641C11.7004 10.6641 10.9141 11.45 10.9141 12.4219C10.9141 13.3934 11.7004 14.1797 12.6719 14.1797C15.58 14.1797 17.9454 16.5455 17.9454 19.4531C17.9454 20.4246 18.7317 21.2109 19.7032 21.2109C20.675 21.2109 21.461 20.4246 21.461 19.4531C21.461 16.5454 23.8268 14.1797 26.7344 14.1797C27.7063 14.1797 28.4922 13.3934 28.4922 12.4219C28.4922 11.45 27.7063 10.6641 26.7344 10.6641ZM47.8282 7.14844C44.9204 7.14844 42.5547 4.66547 42.5547 1.75781C42.5547 0.786328 41.7684 0 40.7969 0C39.8251 0 39.0391 0.786328 39.0391 1.75781C39.0391 4.66559 36.6733 7.14844 33.7657 7.14844C32.7942 7.14844 32.0079 7.93441 32.0079 8.90625C32.0079 9.87773 32.7942 10.6641 33.7657 10.6641C36.6734 10.6641 39.0391 13.0298 39.0391 15.9375C39.0391 16.909 39.8251 17.6953 40.7969 17.6953C41.7684 17.6953 42.5547 16.909 42.5547 15.9375C42.5547 13.0297 44.9205 10.6641 47.8282 10.6641C48.7997 10.6641 49.586 9.87773 49.586 8.90625C49.586 7.93441 48.7997 7.14844 47.8282 7.14844Z" fill="#0081EA"/>
</g>
<defs>
<clipPath id="clip0_3211_4812">
<rect width="60" height="60" fill="white" transform="translate(0.25)"/>
</clipPath>
</defs>
</svg>
